<svg width="36" height="35" viewBox="0 0 36 35" fill="none" xmlns="http://www.w3.org/2000/svg">
<circle cx="17.8595" cy="17.3595" r="16.8595" stroke="#409587"/>
<g clip-path="url(#clip0_2401_4240)">
<path fill-rule="evenodd" clip-rule="evenodd" d="M18.9316 7.41473C20.3825 5.50939 22.3992 5.49927 22.3992 5.49927C22.3992 5.49927 22.6992 7.29077 21.2578 9.01613C19.7191 10.8593 17.9697 10.5572 17.9697 10.5572C17.9697 10.5572 17.6414 9.10865 18.9316 7.41473Z" fill="#409587"/>
<path fill-rule="evenodd" clip-rule="evenodd" d="M18.1543 11.8127C18.9008 11.8127 20.2857 10.7903 22.0888 10.7903C25.1922 10.7903 26.4131 12.9909 26.4131 12.9909C26.4131 12.9909 24.0253 14.207 24.0253 17.159C24.0253 20.4887 26.9996 21.6361 26.9996 21.6361C26.9996 21.6361 24.9202 27.4678 22.1116 27.4678C20.8214 27.4678 19.8185 26.6004 18.4594 26.6004C17.0742 26.6004 15.6998 27.4989 14.8043 27.4989C12.2398 27.4989 9.00073 21.9672 9.00073 17.5204C9.00073 13.1474 11.7433 10.8506 14.3157 10.8506C15.9871 10.8517 17.2849 11.8127 18.1543 11.8127Z" fill="#409587"/>
</g>
<defs>
<clipPath id="clip0_2401_4240">
<rect width="18" height="22" fill="white" transform="translate(9 5.5)"/>
</clipPath>
</defs>
</svg>
