<svg width="20" height="20" viewBox="0 0 20 20" fill="none" xmlns="http://www.w3.org/2000/svg">
<path d="M2.15016 15.8416L2.1335 15.8583C1.9085 15.3667 1.76683 14.8083 1.7085 14.1917C1.76683 14.8 1.92516 15.35 2.15016 15.8416Z" fill="#409587"/>
<path d="M7.49994 8.65002C8.5953 8.65002 9.48327 7.76205 9.48327 6.66668C9.48327 5.57132 8.5953 4.68335 7.49994 4.68335C6.40457 4.68335 5.5166 5.57132 5.5166 6.66668C5.5166 7.76205 6.40457 8.65002 7.49994 8.65002Z" fill="#409587"/>
<path d="M13.4915 1.66675H6.50817C3.47484 1.66675 1.6665 3.47508 1.6665 6.50841V13.4917C1.6665 14.4001 1.82484 15.1917 2.13317 15.8584C2.84984 17.4417 4.38317 18.3334 6.50817 18.3334H13.4915C16.5248 18.3334 18.3332 16.5251 18.3332 13.4917V11.5834V6.50841C18.3332 3.47508 16.5248 1.66675 13.4915 1.66675ZM16.9748 10.4167C16.3248 9.85841 15.2748 9.85841 14.6248 10.4167L11.1582 13.3917C10.5082 13.9501 9.45817 13.9501 8.80817 13.3917L8.52484 13.1584C7.93317 12.6417 6.9915 12.5917 6.32484 13.0417L3.20817 15.1334C3.02484 14.6667 2.9165 14.1251 2.9165 13.4917V6.50841C2.9165 4.15841 4.15817 2.91675 6.50817 2.91675H13.4915C15.8415 2.91675 17.0832 4.15841 17.0832 6.50841V10.5084L16.9748 10.4167Z" fill="#409587"/>
</svg>
