<svg width="34" height="40" viewBox="0 0 34 40" fill="none" xmlns="http://www.w3.org/2000/svg">
<path d="M21.738 13.7378V18.5102C21.738 19.9999 20.469 21.2274 18.9242 21.2274H5.80696C4.26213 21.2274 2.99316 19.9999 2.99316 18.5102V13.7378" stroke="#595857" stroke-width="1.5" stroke-miterlimit="10" stroke-linecap="round"/>
<path d="M1.97248 38.9657L11.4208 24.276H13.3104L22.7587 38.9657M12.3587 24.276V38.9657M23.6966 5.73812C23.6966 8.34501 21.5863 10.4554 18.9794 10.4554C16.3725 10.4554 14.2621 8.34501 14.2621 5.73812C14.2621 3.13122 16.3725 1.03467 18.9794 1.03467C21.5863 1.03467 23.6966 3.14501 23.6966 5.73812ZM10.4828 5.73812C10.4828 8.34501 8.37248 10.4554 5.76558 10.4554C3.15868 10.4554 1.04834 8.34501 1.04834 5.73812C1.04834 3.13122 3.15868 1.03467 5.76558 1.03467C8.35868 1.03467 10.4828 3.14501 10.4828 5.73812Z" stroke="#595857" stroke-width="1.5" stroke-miterlimit="10" stroke-linecap="round" stroke-linejoin="round"/>
<path d="M25.2 10.0966L32.069 6.66211V20.5656L22.1931 16.4828" stroke="#595857" stroke-width="1.5" stroke-miterlimit="3" stroke-linecap="round" stroke-linejoin="round"/>
</svg>
