<svg width="40" height="40" viewBox="0 0 40 40" fill="none" xmlns="http://www.w3.org/2000/svg">
<path d="M21.4666 34.7667H11.3499C5.43325 34.7667 3.33325 30.6167 3.33325 26.7501V13.2501C3.33325 7.4834 5.58325 5.2334 11.3499 5.2334H21.4666C27.2333 5.2334 29.4833 7.4834 29.4833 13.2501V26.7501C29.4833 32.5167 27.2333 34.7667 21.4666 34.7667ZM11.3499 7.76673C6.99992 7.76673 5.86659 8.90006 5.86659 13.2501V26.7501C5.86659 28.8001 6.58325 32.2334 11.3499 32.2334H21.4666C25.8166 32.2334 26.9499 31.1001 26.9499 26.7501V13.2501C26.9499 8.90006 25.8166 7.76673 21.4666 7.76673H11.3499Z" fill="#595857"/>
<path d="M34.6335 30.1832C33.9168 30.1832 33.0001 29.9498 31.9501 29.2165L27.5001 26.0998C27.1668 25.8665 26.9668 25.4832 26.9668 25.0665V14.9332C26.9668 14.5165 27.1668 14.1332 27.5001 13.8998L31.9501 10.7832C33.9335 9.39983 35.3835 9.79983 36.0668 10.1498C36.7501 10.5165 37.9168 11.4665 37.9168 13.8832V26.0998C37.9168 28.5165 36.7501 29.4832 36.0668 29.8332C35.7501 30.0165 35.2501 30.1832 34.6335 30.1832ZM29.4835 24.3998L33.4001 27.1332C34.1501 27.6498 34.6835 27.6998 34.9001 27.5832C35.1335 27.4665 35.3835 26.9998 35.3835 26.0998V13.8998C35.3835 12.9832 35.1168 12.5332 34.9001 12.4165C34.6835 12.2998 34.1501 12.3498 33.4001 12.8665L29.4835 15.5998V24.3998Z" fill="#595857"/>
<path d="M19.1667 19.5835C17.1001 19.5835 15.4167 17.9002 15.4167 15.8335C15.4167 13.7668 17.1001 12.0835 19.1667 12.0835C21.2334 12.0835 22.9167 13.7668 22.9167 15.8335C22.9167 17.9002 21.2334 19.5835 19.1667 19.5835ZM19.1667 14.5835C18.4834 14.5835 17.9167 15.1502 17.9167 15.8335C17.9167 16.5168 18.4834 17.0835 19.1667 17.0835C19.8501 17.0835 20.4167 16.5168 20.4167 15.8335C20.4167 15.1502 19.8501 14.5835 19.1667 14.5835Z" fill="#595857"/>
</svg>
