<svg width="20" height="20" viewBox="0 0 20 20" fill="none" xmlns="http://www.w3.org/2000/svg">
<path d="M18.3337 18.9583H1.66699C1.32533 18.9583 1.04199 18.675 1.04199 18.3333C1.04199 17.9916 1.32533 17.7083 1.66699 17.7083H18.3337C18.6753 17.7083 18.9587 17.9916 18.9587 18.3333C18.9587 18.675 18.6753 18.9583 18.3337 18.9583Z" fill="#409587"/>
<path d="M17.5 18.9584H2.5C2.15833 18.9584 1.875 18.675 1.875 18.3334V5.00002C1.875 2.48335 3.31667 1.04169 5.83333 1.04169H14.1667C16.6833 1.04169 18.125 2.48335 18.125 5.00002V18.3334C18.125 18.675 17.8417 18.9584 17.5 18.9584ZM3.125 17.7084H16.875V5.00002C16.875 3.15002 16.0167 2.29169 14.1667 2.29169H5.83333C3.98333 2.29169 3.125 3.15002 3.125 5.00002V17.7084Z" fill="#409587"/>
<path d="M8.33301 14.375H5.83301C5.49134 14.375 5.20801 14.0917 5.20801 13.75C5.20801 13.4083 5.49134 13.125 5.83301 13.125H8.33301C8.67467 13.125 8.95801 13.4083 8.95801 13.75C8.95801 14.0917 8.67467 14.375 8.33301 14.375Z" fill="#409587"/>
<path d="M14.167 14.375H11.667C11.3253 14.375 11.042 14.0917 11.042 13.75C11.042 13.4083 11.3253 13.125 11.667 13.125H14.167C14.5087 13.125 14.792 13.4083 14.792 13.75C14.792 14.0917 14.5087 14.375 14.167 14.375Z" fill="#409587"/>
<path d="M8.33301 10.625H5.83301C5.49134 10.625 5.20801 10.3417 5.20801 10C5.20801 9.65833 5.49134 9.375 5.83301 9.375H8.33301C8.67467 9.375 8.95801 9.65833 8.95801 10C8.95801 10.3417 8.67467 10.625 8.33301 10.625Z" fill="#409587"/>
<path d="M14.167 10.625H11.667C11.3253 10.625 11.042 10.3417 11.042 10C11.042 9.65833 11.3253 9.375 11.667 9.375H14.167C14.5087 9.375 14.792 9.65833 14.792 10C14.792 10.3417 14.5087 10.625 14.167 10.625Z" fill="#409587"/>
<path d="M8.33301 6.875H5.83301C5.49134 6.875 5.20801 6.59167 5.20801 6.25C5.20801 5.90833 5.49134 5.625 5.83301 5.625H8.33301C8.67467 5.625 8.95801 5.90833 8.95801 6.25C8.95801 6.59167 8.67467 6.875 8.33301 6.875Z" fill="#409587"/>
<path d="M14.167 6.875H11.667C11.3253 6.875 11.042 6.59167 11.042 6.25C11.042 5.90833 11.3253 5.625 11.667 5.625H14.167C14.5087 5.625 14.792 5.90833 14.792 6.25C14.792 6.59167 14.5087 6.875 14.167 6.875Z" fill="#409587"/>
</svg>
