<svg width="24" height="24" viewBox="0 0 24 24" fill="none" xmlns="http://www.w3.org/2000/svg">
<path d="M16.0294 4.25C16.3175 4.25 16.5767 4.41453 16.7017 4.66741L16.7421 4.76623L17.569 7.287L21 7.28772C21.3797 7.28772 21.6935 7.56987 21.7432 7.93595L21.75 8.03772V15.3201C21.75 15.7343 21.4142 16.0701 21 16.0701C20.6203 16.0701 20.3065 15.788 20.2568 15.4219L20.25 15.3201V8.787L17.0259 8.78772C16.7378 8.78772 16.4786 8.62319 16.3536 8.37031L16.3132 8.27149L15.486 5.75H8.601L7.7393 8.27974C7.64724 8.54976 7.41153 8.74111 7.13488 8.7803L7.02942 8.78772L3.75 8.787V15.0377C3.75 16.7708 5.10645 18.187 6.81558 18.2826L7 18.2877H21C21.4142 18.2877 21.75 18.6235 21.75 19.0377C21.75 19.4174 21.4678 19.7312 21.1018 19.7809L21 19.7877H7C4.44952 19.7877 2.36853 17.7776 2.25489 15.2551L2.25 15.0377V8.03772C2.25 7.65802 2.53215 7.34423 2.89823 7.29457L3 7.28772L6.492 7.287L7.35519 4.75798C7.44724 4.48796 7.68295 4.29661 7.9596 4.25742L8.06506 4.25H16.0294Z" fill="#413773"/>
<path fill-rule="evenodd" clip-rule="evenodd" d="M8.25 13C8.25 10.9289 9.92893 9.25 12 9.25C14.0711 9.25 15.75 10.9289 15.75 13C15.75 15.0711 14.0711 16.75 12 16.75C9.92893 16.75 8.25 15.0711 8.25 13ZM14.25 13C14.25 11.7574 13.2426 10.75 12 10.75C10.7574 10.75 9.75 11.7574 9.75 13C9.75 14.2426 10.7574 15.25 12 15.25C13.2426 15.25 14.25 14.2426 14.25 13Z" fill="#413773"/>
<path d="M18.5 9.75C18.9142 9.75 19.25 10.0858 19.25 10.5C19.25 10.8797 18.9678 11.1935 18.6018 11.2432L18.5 11.25H17.5C17.0858 11.25 16.75 10.9142 16.75 10.5C16.75 10.1203 17.0322 9.80651 17.3982 9.75685L17.5 9.75H18.5Z" fill="#413773"/>
</svg>
