<svg width="20" height="20" viewBox="0 0 20 20" fill="none" xmlns="http://www.w3.org/2000/svg">
<path d="M10.0003 18.9587C5.05866 18.9587 1.04199 14.942 1.04199 10.0003C1.04199 5.05866 5.05866 1.04199 10.0003 1.04199C14.942 1.04199 18.9587 5.05866 18.9587 10.0003C18.9587 14.942 14.942 18.9587 10.0003 18.9587ZM10.0003 2.29199C5.75033 2.29199 2.29199 5.75033 2.29199 10.0003C2.29199 14.2503 5.75033 17.7087 10.0003 17.7087C14.2503 17.7087 17.7087 14.2503 17.7087 10.0003C17.7087 5.75033 14.2503 2.29199 10.0003 2.29199Z" fill="#409587"/>
<path d="M13.0919 13.275C12.9835 13.275 12.8752 13.25 12.7752 13.1833L10.1919 11.6416C9.55019 11.2583 9.0752 10.4166 9.0752 9.67497V6.2583C9.0752 5.91663 9.35853 5.6333 9.7002 5.6333C10.0419 5.6333 10.3252 5.91663 10.3252 6.2583V9.67497C10.3252 9.97497 10.5752 10.4166 10.8335 10.5666L13.4169 12.1083C13.7169 12.2833 13.8085 12.6666 13.6335 12.9666C13.5085 13.1666 13.3002 13.275 13.0919 13.275Z" fill="#409587"/>
</svg>
