<svg width="25" height="24" viewBox="0 0 25 24" fill="none" xmlns="http://www.w3.org/2000/svg">
<path d="M19.9317 12.98C19.9717 12.66 20.0017 12.34 20.0017 12C20.0017 11.66 19.9717 11.34 19.9317 11.02L22.0417 9.37C22.2317 9.22 22.2817 8.95 22.1617 8.73L20.1617 5.27C20.0717 5.11 19.9017 5.02 19.7217 5.02C19.6617 5.02 19.6017 5.03 19.5517 5.05L17.0617 6.05C16.5417 5.65 15.9817 5.32 15.3717 5.07L14.9917 2.42C14.9617 2.18 14.7517 2 14.5017 2H10.5017C10.2517 2 10.0417 2.18 10.0117 2.42L9.63173 5.07C9.02173 5.32 8.46173 5.66 7.94173 6.05L5.45173 5.05C5.39173 5.03 5.33173 5.02 5.27173 5.02C5.10173 5.02 4.93173 5.11 4.84173 5.27L2.84173 8.73C2.71173 8.95 2.77173 9.22 2.96173 9.37L5.07173 11.02C5.03173 11.34 5.00173 11.67 5.00173 12C5.00173 12.33 5.03173 12.66 5.07173 12.98L2.96173 14.63C2.77173 14.78 2.72173 15.05 2.84173 15.27L4.84173 18.73C4.93173 18.89 5.10173 18.98 5.28173 18.98C5.34173 18.98 5.40173 18.97 5.45173 18.95L7.94173 17.95C8.46173 18.35 9.02173 18.68 9.63173 18.93L10.0117 21.58C10.0417 21.82 10.2517 22 10.5017 22H14.5017C14.7517 22 14.9617 21.82 14.9917 21.58L15.3717 18.93C15.9817 18.68 16.5417 18.34 17.0617 17.95L19.5517 18.95C19.6117 18.97 19.6717 18.98 19.7317 18.98C19.9017 18.98 20.0717 18.89 20.1617 18.73L22.1617 15.27C22.2817 15.05 22.2317 14.78 22.0417 14.63L19.9317 12.98ZM17.9517 11.27C17.9917 11.58 18.0017 11.79 18.0017 12C18.0017 12.21 17.9817 12.43 17.9517 12.73L17.8117 13.86L18.7017 14.56L19.7817 15.4L19.0817 16.61L17.8117 16.1L16.7717 15.68L15.8717 16.36C15.4417 16.68 15.0317 16.92 14.6217 17.09L13.5617 17.52L13.4017 18.65L13.2017 20H11.8017L11.4517 17.52L10.3917 17.09C9.96173 16.91 9.56173 16.68 9.16173 16.38L8.25173 15.68L7.19173 16.11L5.92173 16.62L5.22173 15.41L6.30173 14.57L7.19173 13.87L7.05173 12.74C7.02173 12.43 7.00173 12.2 7.00173 12C7.00173 11.8 7.02173 11.57 7.05173 11.27L7.19173 10.14L6.30173 9.44L5.22173 8.6L5.92173 7.39L7.19173 7.9L8.23173 8.32L9.13173 7.64C9.56173 7.32 9.97173 7.08 10.3817 6.91L11.4417 6.48L11.6017 5.35L11.8017 4H13.1917L13.5417 6.48L14.6017 6.91C15.0317 7.09 15.4317 7.32 15.8317 7.62L16.7417 8.32L17.8017 7.89L19.0717 7.38L19.7717 8.59L18.7017 9.44L17.8117 10.14L17.9517 11.27ZM12.5017 8C10.2917 8 8.50173 9.79 8.50173 12C8.50173 14.21 10.2917 16 12.5017 16C14.7117 16 16.5017 14.21 16.5017 12C16.5017 9.79 14.7117 8 12.5017 8ZM12.5017 14C11.4017 14 10.5017 13.1 10.5017 12C10.5017 10.9 11.4017 10 12.5017 10C13.6017 10 14.5017 10.9 14.5017 12C14.5017 13.1 13.6017 14 12.5017 14Z" fill="#409587"/>
</svg>
