<svg width="24" height="24" viewBox="0 0 24 24" fill="none" xmlns="http://www.w3.org/2000/svg">
<mask id="mask0_1_2147" style="mask-type:alpha" maskUnits="userSpaceOnUse" x="2" y="5" width="17" height="17">
<path fill-rule="evenodd" clip-rule="evenodd" d="M2 5.09961H18.5V21.5996H2V5.09961Z" fill="white"/>
</mask>
<g mask="url(#mask0_1_2147)">
<path fill-rule="evenodd" clip-rule="evenodd" d="M18.3073 19.5563C18.306 19.557 18.3054 19.5576 18.3048 19.5583L18.3105 19.5429L17.5117 20.3476C16.4854 21.3953 14.9908 21.8265 13.5712 21.4843C12.1402 21.098 10.7797 20.4835 9.54179 19.6633C8.39161 18.9226 7.32532 18.0557 6.36323 17.0799C5.47804 16.1931 4.68245 15.2198 3.98853 14.1748C3.22916 13.0496 2.62865 11.8239 2.20353 10.5328C1.71613 9.01556 2.11965 7.35156 3.24758 6.23348L4.17662 5.29672C4.43462 5.03466 4.85466 5.03402 5.11392 5.29416C5.11456 5.29544 5.11519 5.29608 5.11583 5.29672L8.0491 8.25372C8.30837 8.5145 8.30964 8.93803 8.05101 9.19945C8.05037 9.20009 8.04974 9.20073 8.0491 9.20137L6.32638 10.9378C5.83263 11.4311 5.77035 12.2141 6.18086 12.7799C6.80361 13.6423 7.49244 14.4529 8.24228 15.2064C9.07791 16.0521 9.98598 16.8217 10.9563 17.506C11.5168 17.9 12.2774 17.834 12.7617 17.3484L14.4272 15.6434C14.6852 15.3813 15.1052 15.38 15.3645 15.6408C15.3651 15.6414 15.3658 15.6427 15.3664 15.6434L18.3048 18.6106C18.564 18.8714 18.5653 19.2949 18.3073 19.5563Z" fill="#E9E7F3"/>
</g>
<path d="M16.6536 7.34667C18.1376 8.83067 18.1376 11.2367 16.6536 12.7207C16.4583 12.9159 16.1417 12.9159 15.9465 12.7207C15.7512 12.5254 15.7512 12.2088 15.9465 12.0136C17.0399 10.9201 17.0399 9.14725 15.9465 8.05378C14.853 6.96031 13.0801 6.96031 11.9867 8.05378C11.7914 8.24904 11.4748 8.24904 11.2795 8.05378C11.0843 7.85852 11.0843 7.54194 11.2795 7.34667C12.7635 5.86268 15.1696 5.86268 16.6536 7.34667Z" fill="#E9E7F3"/>
<path d="M18.987 5.01313C21.7597 7.78586 21.7597 12.2813 18.987 15.054C18.7917 15.2493 18.4752 15.2493 18.2799 15.054C18.0846 14.8588 18.0846 14.5422 18.2799 14.3469C20.6621 11.9647 20.6621 8.10244 18.2799 5.72024C15.8977 3.33804 12.0354 3.33804 9.6532 5.72024C9.45794 5.9155 9.14136 5.9155 8.94609 5.72024C8.75083 5.52498 8.75083 5.2084 8.94609 5.01313C11.7188 2.24041 16.2143 2.24041 18.987 5.01313Z" fill="#E9E7F3"/>
</svg>
