<svg width="25" height="24" viewBox="0 0 25 24" fill="none" xmlns="http://www.w3.org/2000/svg">
<path d="M12.4995 2C6.97951 2 2.49951 6.48 2.49951 12C2.49951 17.52 6.97951 22 12.4995 22C18.0195 22 22.4995 17.52 22.4995 12C22.4995 6.48 18.0195 2 12.4995 2ZM12.4995 20C8.08951 20 4.49951 16.41 4.49951 12C4.49951 7.59 8.08951 4 12.4995 4C16.9095 4 20.4995 7.59 20.4995 12C20.4995 16.41 16.9095 20 12.4995 20ZM17.0895 7.58L10.4995 14.17L7.90951 11.59L6.49951 13L10.4995 17L18.4995 9L17.0895 7.58Z" fill="#E7E5DF"/>
</svg>
