<svg width="20" height="20" viewBox="0 0 20 20" fill="none" xmlns="http://www.w3.org/2000/svg">
<path d="M7.49173 17.9166C6.1084 17.9166 4.71673 17.3916 3.6584 16.3333C1.55007 14.2166 1.55007 10.7833 3.6584 8.67494C3.90007 8.43327 4.30007 8.43327 4.54173 8.67494C4.7834 8.9166 4.7834 9.3166 4.54173 9.55827C2.91673 11.1833 2.91673 13.8249 4.54173 15.4499C6.16673 17.0749 8.8084 17.0749 10.4334 15.4499C11.2167 14.6666 11.6501 13.6166 11.6501 12.4999C11.6501 11.3916 11.2167 10.3416 10.4334 9.54994C10.1917 9.30827 10.1917 8.90827 10.4334 8.6666C10.6751 8.42493 11.0751 8.42493 11.3167 8.6666C12.3417 9.6916 12.9001 11.0499 12.9001 12.4999C12.9001 13.9499 12.3334 15.3083 11.3167 16.3333C10.2667 17.3916 8.8834 17.9166 7.49173 17.9166Z" fill="#409587"/>
<path d="M15.8917 11.8C15.7334 11.8 15.5751 11.7417 15.4501 11.6167C15.2084 11.375 15.2084 10.975 15.4501 10.7334C17.1584 9.02503 17.1584 6.25003 15.4501 4.55003C13.7417 2.8417 10.9667 2.8417 9.26673 4.55003C8.44173 5.37503 7.9834 6.47503 7.9834 7.6417C7.9834 8.80837 8.44173 9.90837 9.26673 10.7334C9.5084 10.975 9.5084 11.375 9.26673 11.6167C9.02506 11.8584 8.62507 11.8584 8.3834 11.6167C7.32507 10.5584 6.7334 9.1417 6.7334 7.6417C6.7334 6.1417 7.31673 4.72503 8.3834 3.6667C10.5751 1.47503 14.1417 1.47503 16.3417 3.6667C18.5334 5.85837 18.5334 9.43337 16.3417 11.625C16.2167 11.7417 16.0501 11.8 15.8917 11.8Z" fill="#409587"/>
</svg>
