<svg width="68" height="56" viewBox="0 0 68 56" fill="none" xmlns="http://www.w3.org/2000/svg">
<g clip-path="url(#clip0_169_3985)">
<path d="M43.0284 33.4777C39.3351 28.912 33.7045 26.0004 27.4169 26.0004C16.2803 26.0004 7.25098 35.1091 7.25098 46.3476V55.2636H29.9773" stroke="#409587" stroke-width="1.3" stroke-linecap="round" stroke-linejoin="round"/>
<path d="M27.4051 21.1176C32.2542 21.1176 36.1852 17.1866 36.1852 12.3375C36.1852 7.48835 32.2542 3.55737 27.4051 3.55737C22.556 3.55737 18.625 7.48835 18.625 12.3375C18.625 17.1866 22.556 21.1176 27.4051 21.1176Z" stroke="#409587" stroke-width="1.3" stroke-miterlimit="10"/>
<path d="M55.626 50.8566H38.0885C36.7063 50.8566 35.7773 49.4291 36.3551 48.1602L45.9056 27.1107C46.2115 26.4309 46.8912 25.9891 47.639 25.9891H65.1765C66.5586 25.9891 67.4876 27.4165 66.9098 28.6854L57.3594 49.735C57.0535 50.4147 56.3737 50.8566 55.626 50.8566Z" fill="#409587"/>
<path d="M0.736328 55.207H54.0853" stroke="#409587" stroke-width="1.3" stroke-miterlimit="10" stroke-linecap="round"/>
<path d="M30.1582 30.9512L32.6959 55.2069" stroke="#409587" stroke-width="1.3" stroke-miterlimit="10" stroke-linecap="round"/>
<path d="M24.6637 30.9512L22.126 55.2069" stroke="#409587" stroke-width="1.3" stroke-miterlimit="10" stroke-linecap="round"/>
<path d="M23.6548 16.2573H15.8604V12.2808C15.8604 5.90248 21.0378 0.736389 27.4048 0.736389C33.7831 0.736389 38.9492 5.90248 38.9492 12.2808" stroke="#409587" stroke-width="1.3" stroke-linecap="round" stroke-linejoin="round"/>
</g>
<defs>
<clipPath id="clip0_169_3985">
<rect width="67.0799" height="56" fill="white"/>
</clipPath>
</defs>
</svg>
