<svg width="36" height="36" viewBox="0 0 36 36" fill="none" xmlns="http://www.w3.org/2000/svg">
<path d="M34.719 17.8595C34.719 8.54825 27.1708 1 17.8595 1C8.54825 1 1 8.54825 1 17.8595C1 26.2746 7.16528 33.2494 15.2252 34.5141V22.733H10.9445V17.8595H15.2252V14.1451C15.2252 9.91973 17.7422 7.58574 21.5933 7.58574C23.4379 7.58574 25.3673 7.91503 25.3673 7.91503V12.0641H23.2413C21.1469 12.0641 20.4938 13.3636 20.4938 14.6969V17.8595H25.1697L24.4222 22.733H20.4938V34.5141C28.5537 33.2494 34.719 26.2746 34.719 17.8595" stroke="#409587"/>
<path fill-rule="evenodd" clip-rule="evenodd" d="M24.4222 22.7329L25.1697 17.8595H20.4938V14.6969C20.4938 13.3636 21.1469 12.064 23.2413 12.064H25.3672V7.91498C25.3672 7.91498 23.4378 7.58569 21.5933 7.58569C17.7422 7.58569 15.2252 9.91968 15.2252 14.1451V17.8595H10.9445V22.7329H15.2252V34.514C16.0836 34.6488 16.9633 34.719 17.8595 34.719C18.7557 34.719 19.6354 34.6488 20.4938 34.514V22.7329H24.4222Z" fill="#409587"/>
</svg>
