<svg width="70" height="70" viewBox="0 0 70 70" fill="none" xmlns="http://www.w3.org/2000/svg">
<g clip-path="url(#clip0_229_372)">
<path d="M35 69C53.7777 69 69 53.7777 69 35C69 16.2223 53.7777 1 35 1C16.2223 1 1 16.2223 1 35C1 53.7777 16.2223 69 35 69Z" stroke="#409587" stroke-width="2" stroke-miterlimit="10"/>
<path d="M11.4 44.0101C11.4 39.7601 14.85 36.3101 19.1 36.3101C23.35 36.3101 26.8 39.7601 26.8 44.0101" stroke="#409587" stroke-width="1.3" stroke-linecap="round" stroke-linejoin="round"/>
<path d="M19.1 34.44C21.4306 34.44 23.32 32.5506 23.32 30.22C23.32 27.8894 21.4306 26 19.1 26C16.7694 26 14.88 27.8894 14.88 30.22C14.88 32.5506 16.7694 34.44 19.1 34.44Z" fill="#409587"/>
<path d="M58.91 23.1802H42.29C41.5389 23.1802 40.93 23.7891 40.93 24.5402V45.4602C40.93 46.2113 41.5389 46.8202 42.29 46.8202H58.91C59.6611 46.8202 60.27 46.2113 60.27 45.4602V24.5402C60.27 23.7891 59.6611 23.1802 58.91 23.1802Z" fill="#409587"/>
<path d="M42.9 45.3401C42.9 41.0901 46.35 37.6401 50.6 37.6401C54.85 37.6401 58.3 41.0901 58.3 45.3401" fill="white"/>
<path d="M50.6 35.7198C52.9306 35.7198 54.82 33.8304 54.82 31.4998C54.82 29.1691 52.9306 27.2798 50.6 27.2798C48.2694 27.2798 46.38 29.1691 46.38 31.4998C46.38 33.8304 48.2694 35.7198 50.6 35.7198Z" fill="white"/>
<path d="M37.63 32.4201L50.43 20.3901L63.56 32.4201" stroke="white" stroke-width="1.3" stroke-linejoin="round"/>
<path d="M35 12.9302V57.0702" stroke="#409587" stroke-width="1.3" stroke-linecap="round" stroke-linejoin="round"/>
</g>
<defs>
<clipPath id="clip0_229_372">
<rect width="70" height="70" fill="white"/>
</clipPath>
</defs>
</svg>
