<svg width="68" height="68" viewBox="0 0 68 68" fill="none" xmlns="http://www.w3.org/2000/svg">
<circle cx="34" cy="34" r="34" fill="white"/>
<path fill-rule="evenodd" clip-rule="evenodd" d="M43.594 42.6644H60.3714V22.5789H43.594V42.6644Z" fill="#D9D7E5"/>
<path fill-rule="evenodd" clip-rule="evenodd" d="M43.9691 42.829C43.9691 38.3843 47.5723 34.7811 52.0171 34.7811C56.4618 34.7811 60.065 38.3843 60.065 42.829" fill="white"/>
<path d="M43.9691 42.829C43.9691 38.3843 47.5723 34.7811 52.0171 34.7811C56.4618 34.7811 60.065 38.3843 60.065 42.829" stroke="#413773" stroke-linecap="round"/>
<path fill-rule="evenodd" clip-rule="evenodd" d="M52.0172 33.2141C50.5637 33.2141 49.3806 32.0319 49.3806 30.5776C49.3806 29.1241 50.5637 27.941 52.0172 27.941C53.4707 27.941 54.6537 29.1241 54.6537 30.5776C54.6537 32.0319 53.4707 33.2141 52.0172 33.2141Z" fill="white"/>
<path fill-rule="evenodd" clip-rule="evenodd" d="M52.0172 27.5548C50.3473 27.5548 48.9943 28.9079 48.9943 30.5777C48.9943 32.2468 50.3473 33.6007 52.0172 33.6007C53.687 33.6007 55.0401 32.2468 55.0401 30.5777C55.0401 28.9079 53.687 27.5548 52.0172 27.5548ZM52.0171 28.3276C53.2573 28.3276 54.2673 29.3367 54.2673 30.5777C54.2673 31.8187 53.2573 32.8279 52.0171 32.8279C50.7769 32.8279 49.7669 31.8187 49.7669 30.5777C49.7669 29.3367 50.7769 28.3276 52.0171 28.3276Z" fill="#413773"/>
<path d="M60.0719 30.8239L52.0973 22.8485L43.894 31.0518" stroke="#413773" stroke-linecap="round"/>
<mask id="mask0_2_370" style="mask-type:alpha" maskUnits="userSpaceOnUse" x="4" y="14" width="60" height="38">
<path fill-rule="evenodd" clip-rule="evenodd" d="M4.38281 51.3831H63.1101V14.3726H4.38281V51.3831Z" fill="white"/>
</mask>
<g mask="url(#mask0_2_370)">
<path fill-rule="evenodd" clip-rule="evenodd" d="M43.6289 43.1775H60.4056V22.5789H43.6289V43.1775Z" stroke="#413773" stroke-linecap="round"/>
<path d="M34.0701 14.7592V50.997" stroke="#413773" stroke-linecap="round"/>
<path fill-rule="evenodd" clip-rule="evenodd" d="M8.84778 40.515C8.84778 36.0703 12.451 32.467 16.8957 32.467C21.3405 32.467 24.9437 36.0703 24.9437 40.515" fill="white"/>
<path d="M8.84778 40.515C8.84778 36.0703 12.451 32.467 16.8957 32.467C21.3405 32.467 24.9437 36.0703 24.9437 40.515" stroke="#413773" stroke-linecap="round"/>
<path fill-rule="evenodd" clip-rule="evenodd" d="M16.8953 30.9C15.4418 30.9 14.2588 29.717 14.2588 28.2635C14.2588 26.81 15.4418 25.627 16.8953 25.627C18.3488 25.627 19.5319 26.81 19.5319 28.2635C19.5319 29.717 18.3488 30.9 16.8953 30.9Z" fill="white"/>
<path fill-rule="evenodd" clip-rule="evenodd" d="M16.8953 25.2408C15.2263 25.2408 13.8724 26.5939 13.8724 28.2637C13.8724 29.9328 15.2263 31.2866 16.8953 31.2866C18.5652 31.2866 19.9183 29.9328 19.9183 28.2637C19.9183 26.5939 18.5652 25.2408 16.8953 25.2408ZM16.8954 26.0135C18.1364 26.0135 19.1455 27.0227 19.1455 28.2637C19.1455 29.5047 18.1364 30.5139 16.8954 30.5139C15.6551 30.5139 14.6452 29.5047 14.6452 28.2637C14.6452 27.0227 15.6551 26.0135 16.8954 26.0135Z" fill="#413773"/>
</g>
</svg>
