<svg width="70" height="70" viewBox="0 0 70 70" fill="none" xmlns="http://www.w3.org/2000/svg">
<g clip-path="url(#clip0_229_421)">
<path d="M35 69C53.7777 69 69 53.7777 69 35C69 16.2223 53.7777 1 35 1C16.2223 1 1 16.2223 1 35C1 53.7777 16.2223 69 35 69Z" stroke="#409587" stroke-width="2" stroke-miterlimit="10"/>
<path d="M44.39 36.6701C42.15 33.9001 38.74 32.1401 34.93 32.1401C28.18 32.1401 22.71 37.6601 22.71 44.4701V49.8801H36.48" stroke="#409587" stroke-width="1.3" stroke-linecap="round" stroke-linejoin="round"/>
<path d="M34.93 29.18C37.8682 29.18 40.25 26.7982 40.25 23.86C40.25 20.9219 37.8682 18.54 34.93 18.54C31.9918 18.54 29.61 20.9219 29.61 23.86C29.61 26.7982 31.9918 29.18 34.93 29.18Z" stroke="#409587" stroke-width="1.3" stroke-miterlimit="10"/>
<path d="M52.03 47.2101H41.4C40.56 47.2101 40 46.3401 40.35 45.5801L46.14 32.8201C46.33 32.4101 46.74 32.1401 47.19 32.1401H57.82C58.66 32.1401 59.22 33.0101 58.87 33.7701L53.08 46.5301C52.89 46.9401 52.48 47.2101 52.03 47.2101Z" fill="#409587"/>
<path d="M18.76 49.8398H51.1" stroke="#409587" stroke-width="1.3" stroke-miterlimit="10" stroke-linecap="round"/>
<path d="M36.6 35.1401L38.13 49.8401" stroke="#409587" stroke-width="1.3" stroke-miterlimit="10" stroke-linecap="round"/>
<path d="M33.26 35.1401L31.73 49.8401" stroke="#409587" stroke-width="1.3" stroke-miterlimit="10" stroke-linecap="round"/>
<path d="M32.65 26.2298H27.93V23.8198C27.93 19.9498 31.06 16.8198 34.93 16.8198C38.8 16.8198 41.93 19.9498 41.93 23.8198" stroke="#409587" stroke-width="1.3" stroke-linecap="round" stroke-linejoin="round"/>
</g>
<defs>
<clipPath id="clip0_229_421">
<rect width="70" height="70" fill="white"/>
</clipPath>
</defs>
</svg>
