<svg width="70" height="70" viewBox="0 0 70 70" fill="none" xmlns="http://www.w3.org/2000/svg">
<g clip-path="url(#clip0_229_383)">
<path d="M35 69C53.7777 69 69 53.7777 69 35C69 16.2223 53.7777 1 35 1C16.2223 1 1 16.2223 1 35C1 53.7777 16.2223 69 35 69Z" stroke="#409587" stroke-width="2" stroke-miterlimit="10"/>
<path d="M27.07 13.5801H18.52C17.7689 13.5801 17.16 14.189 17.16 14.9401V26.0001C17.16 26.7512 17.7689 27.3601 18.52 27.3601H27.07C27.8211 27.3601 28.43 26.7512 28.43 26.0001V14.9401C28.43 14.189 27.8211 13.5801 27.07 13.5801Z" fill="#409587"/>
<path d="M18.31 26.49C18.31 24.01 20.32 22 22.8 22C25.28 22 27.29 24.01 27.29 26.49" fill="white"/>
<path d="M22.79 20.8902C24.1486 20.8902 25.25 19.7888 25.25 18.4302C25.25 17.0716 24.1486 15.9702 22.79 15.9702C21.4314 15.9702 20.33 17.0716 20.33 18.4302C20.33 19.7888 21.4314 20.8902 22.79 20.8902Z" fill="white"/>
<path d="M39.27 13.5801H30.72C29.9689 13.5801 29.36 14.189 29.36 14.9401V26.0001C29.36 26.7512 29.9689 27.3601 30.72 27.3601H39.27C40.0211 27.3601 40.63 26.7512 40.63 26.0001V14.9401C40.63 14.189 40.0211 13.5801 39.27 13.5801Z" fill="#409587"/>
<path d="M30.51 26.49C30.51 24.01 32.52 22 35 22C37.48 22 39.49 24.01 39.49 26.49" fill="white"/>
<path d="M35 20.8902C36.3586 20.8902 37.46 19.7888 37.46 18.4302C37.46 17.0716 36.3586 15.9702 35 15.9702C33.6414 15.9702 32.54 17.0716 32.54 18.4302C32.54 19.7888 33.6414 20.8902 35 20.8902Z" fill="white"/>
<path d="M51.48 13.5801H42.93C42.1789 13.5801 41.57 14.189 41.57 14.9401V26.0001C41.57 26.7512 42.1789 27.3601 42.93 27.3601H51.48C52.2311 27.3601 52.84 26.7512 52.84 26.0001V14.9401C52.84 14.189 52.2311 13.5801 51.48 13.5801Z" fill="#409587"/>
<path d="M42.72 26.49C42.72 24.01 44.73 22 47.21 22C49.69 22 51.7 24.01 51.7 26.49" fill="white"/>
<path d="M47.21 20.8902C48.5686 20.8902 49.67 19.7888 49.67 18.4302C49.67 17.0716 48.5686 15.9702 47.21 15.9702C45.8514 15.9702 44.75 17.0716 44.75 18.4302C44.75 19.7888 45.8514 20.8902 47.21 20.8902Z" fill="white"/>
<path d="M27.07 28.1099H18.52C17.7689 28.1099 17.16 28.7188 17.16 29.4699V40.5299C17.16 41.281 17.7689 41.8899 18.52 41.8899H27.07C27.8211 41.8899 28.43 41.281 28.43 40.5299V29.4699C28.43 28.7188 27.8211 28.1099 27.07 28.1099Z" fill="#409587"/>
<path d="M18.31 41.03C18.31 38.55 20.32 36.54 22.8 36.54C25.28 36.54 27.29 38.55 27.29 41.03" fill="white"/>
<path d="M22.79 35.42C24.1486 35.42 25.25 34.3186 25.25 32.96C25.25 31.6014 24.1486 30.5 22.79 30.5C21.4314 30.5 20.33 31.6014 20.33 32.96C20.33 34.3186 21.4314 35.42 22.79 35.42Z" fill="white"/>
<path d="M39.27 28.1099H30.72C29.9689 28.1099 29.36 28.7188 29.36 29.4699V40.5299C29.36 41.281 29.9689 41.8899 30.72 41.8899H39.27C40.0211 41.8899 40.63 41.281 40.63 40.5299V29.4699C40.63 28.7188 40.0211 28.1099 39.27 28.1099Z" fill="#409587"/>
<path d="M30.51 41.03C30.51 38.55 32.52 36.54 35 36.54C37.48 36.54 39.49 38.55 39.49 41.03" fill="white"/>
<path d="M35 35.42C36.3586 35.42 37.46 34.3186 37.46 32.96C37.46 31.6014 36.3586 30.5 35 30.5C33.6414 30.5 32.54 31.6014 32.54 32.96C32.54 34.3186 33.6414 35.42 35 35.42Z" fill="white"/>
<path d="M51.48 28.1099H42.93C42.1789 28.1099 41.57 28.7188 41.57 29.4699V40.5299C41.57 41.281 42.1789 41.8899 42.93 41.8899H51.48C52.2311 41.8899 52.84 41.281 52.84 40.5299V29.4699C52.84 28.7188 52.2311 28.1099 51.48 28.1099Z" fill="#409587"/>
<path d="M42.72 41.03C42.72 38.55 44.73 36.54 47.21 36.54C49.69 36.54 51.7 38.55 51.7 41.03" fill="white"/>
<path d="M47.21 35.42C48.5686 35.42 49.67 34.3186 49.67 32.96C49.67 31.6014 48.5686 30.5 47.21 30.5C45.8514 30.5 44.75 31.6014 44.75 32.96C44.75 34.3186 45.8514 35.42 47.21 35.42Z" fill="white"/>
<path d="M27.07 42.6401H18.52C17.7689 42.6401 17.16 43.249 17.16 44.0001V55.0601C17.16 55.8112 17.7689 56.4201 18.52 56.4201H27.07C27.8211 56.4201 28.43 55.8112 28.43 55.0601V44.0001C28.43 43.249 27.8211 42.6401 27.07 42.6401Z" fill="#409587"/>
<path d="M18.31 55.5603C18.31 53.0803 20.32 51.0703 22.8 51.0703C25.28 51.0703 27.29 53.0803 27.29 55.5603" fill="white"/>
<path d="M22.79 49.9503C24.1486 49.9503 25.25 48.8489 25.25 47.4903C25.25 46.1317 24.1486 45.0303 22.79 45.0303C21.4314 45.0303 20.33 46.1317 20.33 47.4903C20.33 48.8489 21.4314 49.9503 22.79 49.9503Z" fill="white"/>
<path d="M39.27 42.6401H30.72C29.9689 42.6401 29.36 43.249 29.36 44.0001V55.0601C29.36 55.8112 29.9689 56.4201 30.72 56.4201H39.27C40.0211 56.4201 40.63 55.8112 40.63 55.0601V44.0001C40.63 43.249 40.0211 42.6401 39.27 42.6401Z" fill="#409587"/>
<path d="M30.51 55.5603C30.51 53.0803 32.52 51.0703 35 51.0703C37.48 51.0703 39.49 53.0803 39.49 55.5603" fill="white"/>
<path d="M35 49.9503C36.3586 49.9503 37.46 48.8489 37.46 47.4903C37.46 46.1317 36.3586 45.0303 35 45.0303C33.6414 45.0303 32.54 46.1317 32.54 47.4903C32.54 48.8489 33.6414 49.9503 35 49.9503Z" fill="white"/>
<path d="M51.48 42.6401H42.93C42.1789 42.6401 41.57 43.249 41.57 44.0001V55.0601C41.57 55.8112 42.1789 56.4201 42.93 56.4201H51.48C52.2311 56.4201 52.84 55.8112 52.84 55.0601V44.0001C52.84 43.249 52.2311 42.6401 51.48 42.6401Z" fill="#409587"/>
<path d="M42.72 55.5603C42.72 53.0803 44.73 51.0703 47.21 51.0703C49.69 51.0703 51.7 53.0803 51.7 55.5603" fill="white"/>
<path d="M47.21 49.9503C48.5686 49.9503 49.67 48.8489 49.67 47.4903C49.67 46.1317 48.5686 45.0303 47.21 45.0303C45.8514 45.0303 44.75 46.1317 44.75 47.4903C44.75 48.8489 45.8514 49.9503 47.21 49.9503Z" fill="white"/>
</g>
<defs>
<clipPath id="clip0_229_383">
<rect width="70" height="70" fill="white"/>
</clipPath>
</defs>
</svg>
