<svg width="68" height="68" viewBox="0 0 68 68" fill="none" xmlns="http://www.w3.org/2000/svg">
<circle cx="34" cy="34" r="34" fill="white"/>
<path fill-rule="evenodd" clip-rule="evenodd" d="M10.2 27.2H22.1V17H10.2V27.2Z" fill="#D9D7E5"/>
<path fill-rule="evenodd" clip-rule="evenodd" d="M11.7555 26.4227C12.3578 24.4559 14.1659 23.0276 16.3032 23.0276C18.4502 23.0276 20.2643 24.4681 20.8588 26.4478" fill="white"/>
<path d="M11.7555 26.4227C12.3578 24.4559 14.1659 23.0276 16.3032 23.0276C18.4502 23.0276 20.2643 24.4681 20.8588 26.4478" stroke="#413773" stroke-linecap="round"/>
<path fill-rule="evenodd" clip-rule="evenodd" d="M16.3033 22.0137C15.4833 22.0137 14.8165 21.3374 14.8165 20.5059C14.8165 19.6744 15.4833 18.9976 16.3033 18.9976C17.1233 18.9976 17.7901 19.6744 17.7901 20.5059C17.7901 21.3374 17.1233 22.0137 16.3033 22.0137Z" fill="white"/>
<path fill-rule="evenodd" clip-rule="evenodd" d="M16.3031 18.6922C15.3156 18.6922 14.5149 19.5041 14.5149 20.5056C14.5149 21.5071 15.3156 22.3196 16.3031 22.3196C17.2907 22.3196 18.0913 21.5071 18.0913 20.5056C18.0913 19.5041 17.2907 18.6922 16.3031 18.6922ZM16.3032 19.3036C16.9568 19.3036 17.4885 19.8428 17.4885 20.5056C17.4885 21.1683 16.9568 21.7082 16.3032 21.7082C15.6497 21.7082 15.1179 21.1683 15.1179 20.5056C15.1179 19.8428 15.6497 19.3036 16.3032 19.3036Z" fill="#413773"/>
<mask id="mask0_2_372" style="mask-type:alpha" maskUnits="userSpaceOnUse" x="10" y="16" width="52" height="35">
<path fill-rule="evenodd" clip-rule="evenodd" d="M10.2 51H61.9595V16.7229H10.2V51Z" fill="white"/>
</mask>
<g mask="url(#mask0_2_372)">
<path fill-rule="evenodd" clip-rule="evenodd" d="M10.2 26.808H22.3865V16.7431H10.2V26.808ZM10.8029 26.1972H21.7837V17.3551H10.8029V26.1972Z" fill="#413773"/>
<path fill-rule="evenodd" clip-rule="evenodd" d="M24.4883 26.7878H36.371V16.7229H24.4883V26.7878Z" fill="#D9D7E5"/>
<path fill-rule="evenodd" clip-rule="evenodd" d="M25.7404 26.4227C26.3427 24.4559 28.1508 23.0276 30.2881 23.0276C32.435 23.0276 34.2492 24.4681 34.8436 26.4478" fill="white"/>
<path d="M25.7404 26.4227C26.3427 24.4559 28.1508 23.0276 30.2881 23.0276C32.435 23.0276 34.2492 24.4681 34.8436 26.4478" stroke="#413773" stroke-linecap="round"/>
<path fill-rule="evenodd" clip-rule="evenodd" d="M30.288 22.0137C29.4681 22.0137 28.8013 21.3374 28.8013 20.5059C28.8013 19.6744 29.4681 18.9976 30.288 18.9976C31.108 18.9976 31.7748 19.6744 31.7748 20.5059C31.7748 21.3374 31.108 22.0137 30.288 22.0137Z" fill="white"/>
<path fill-rule="evenodd" clip-rule="evenodd" d="M30.2881 18.6922C29.3005 18.6922 28.4999 19.5041 28.4999 20.5056C28.4999 21.5071 29.3005 22.3196 30.2881 22.3196C31.2757 22.3196 32.0763 21.5071 32.0763 20.5056C32.0763 19.5041 31.2757 18.6922 30.2881 18.6922ZM30.2882 19.3036C30.9417 19.3036 31.4735 19.8428 31.4735 20.5056C31.4735 21.1683 30.9417 21.7082 30.2882 21.7082C29.6346 21.7082 29.1029 21.1683 29.1029 20.5056C29.1029 19.8428 29.6346 19.3036 30.2882 19.3036Z" fill="#413773"/>
<path fill-rule="evenodd" clip-rule="evenodd" d="M24.1851 26.808H36.3716V16.7431H24.1851V26.808ZM24.788 26.1972H35.7687V17.3551H24.788V26.1972Z" fill="#413773"/>
<path fill-rule="evenodd" clip-rule="evenodd" d="M38.4733 26.7878H50.356V16.7229H38.4733V26.7878Z" fill="#D9D7E5"/>
<path fill-rule="evenodd" clip-rule="evenodd" d="M39.7251 26.4227C40.3274 24.4559 42.1355 23.0276 44.2728 23.0276C46.4198 23.0276 48.2345 24.4681 48.829 26.4478" fill="white"/>
<path d="M39.7251 26.4227C40.3274 24.4559 42.1355 23.0276 44.2728 23.0276C46.4198 23.0276 48.2345 24.4681 48.829 26.4478" stroke="#413773" stroke-linecap="round"/>
<path fill-rule="evenodd" clip-rule="evenodd" d="M44.273 22.0137C43.4531 22.0137 42.7863 21.3374 42.7863 20.5059C42.7863 19.6744 43.4531 18.9976 44.273 18.9976C45.093 18.9976 45.7598 19.6744 45.7598 20.5059C45.7598 21.3374 45.093 22.0137 44.273 22.0137Z" fill="white"/>
<path fill-rule="evenodd" clip-rule="evenodd" d="M44.2731 18.6922C43.2855 18.6922 42.4849 19.5041 42.4849 20.5056C42.4849 21.5071 43.2855 22.3196 44.2731 22.3196C45.2606 22.3196 46.0613 21.5071 46.0613 20.5056C46.0613 19.5041 45.2606 18.6922 44.2731 18.6922ZM44.2731 19.3036C44.9267 19.3036 45.4584 19.8428 45.4584 20.5056C45.4584 21.1683 44.9267 21.7082 44.2731 21.7082C43.6196 21.7082 43.0878 21.1683 43.0878 20.5056C43.0878 19.8428 43.6196 19.3036 44.2731 19.3036Z" fill="#413773"/>
<path fill-rule="evenodd" clip-rule="evenodd" d="M38.1694 26.808H50.356V16.7431H38.1694V26.808ZM38.7724 26.1972H49.7532V17.3551H38.7724V26.1972Z" fill="#413773"/>
<path fill-rule="evenodd" clip-rule="evenodd" d="M10.5033 38.8832H22.386V28.8183H10.5033V38.8832Z" fill="#D9D7E5"/>
<path fill-rule="evenodd" clip-rule="evenodd" d="M11.7555 38.5186C12.3578 36.5517 14.1659 35.1234 16.3032 35.1234C18.4502 35.1234 20.2643 36.5639 20.8588 38.5436" fill="white"/>
<path d="M11.7555 38.5186C12.3578 36.5517 14.1659 35.1234 16.3032 35.1234C18.4502 35.1234 20.2643 36.5639 20.8588 38.5436" stroke="#413773" stroke-linecap="round"/>
<path fill-rule="evenodd" clip-rule="evenodd" d="M16.3033 34.1095C15.4833 34.1095 14.8165 33.4333 14.8165 32.6018C14.8165 31.7703 15.4833 31.0934 16.3033 31.0934C17.1233 31.0934 17.7901 31.7703 17.7901 32.6018C17.7901 33.4333 17.1233 34.1095 16.3033 34.1095Z" fill="white"/>
<path fill-rule="evenodd" clip-rule="evenodd" d="M16.3031 30.7879C15.3156 30.7879 14.5149 31.5999 14.5149 32.6013C14.5149 33.6028 15.3156 34.4154 16.3031 34.4154C17.2907 34.4154 18.0913 33.6028 18.0913 32.6013C18.0913 31.5999 17.2907 30.7879 16.3031 30.7879ZM16.3032 31.3993C16.9568 31.3993 17.4885 31.9386 17.4885 32.6013C17.4885 33.2641 16.9568 33.804 16.3032 33.804C15.6497 33.804 15.1179 33.2641 15.1179 32.6013C15.1179 31.9386 15.6497 31.3993 16.3032 31.3993Z" fill="#413773"/>
<path fill-rule="evenodd" clip-rule="evenodd" d="M10.2 38.904H22.3865V28.8391H10.2V38.904ZM10.8029 38.2926H21.7837V29.4505H10.8029V38.2926Z" fill="#413773"/>
<path fill-rule="evenodd" clip-rule="evenodd" d="M24.4883 38.8832H36.371V28.8183H24.4883V38.8832Z" fill="#D9D7E5"/>
<path fill-rule="evenodd" clip-rule="evenodd" d="M25.7404 38.5186C26.3427 36.5517 28.1508 35.1234 30.2881 35.1234C32.435 35.1234 34.2492 36.5639 34.8436 38.5436" fill="white"/>
<path d="M25.7404 38.5186C26.3427 36.5517 28.1508 35.1234 30.2881 35.1234C32.435 35.1234 34.2492 36.5639 34.8436 38.5436" stroke="#413773" stroke-linecap="round"/>
<path fill-rule="evenodd" clip-rule="evenodd" d="M30.288 34.1095C29.4681 34.1095 28.8013 33.4333 28.8013 32.6018C28.8013 31.7703 29.4681 31.0934 30.288 31.0934C31.108 31.0934 31.7748 31.7703 31.7748 32.6018C31.7748 33.4333 31.108 34.1095 30.288 34.1095Z" fill="white"/>
<path fill-rule="evenodd" clip-rule="evenodd" d="M30.2881 30.7879C29.3005 30.7879 28.4999 31.5999 28.4999 32.6013C28.4999 33.6028 29.3005 34.4154 30.2881 34.4154C31.2757 34.4154 32.0763 33.6028 32.0763 32.6013C32.0763 31.5999 31.2757 30.7879 30.2881 30.7879ZM30.2882 31.3993C30.9417 31.3993 31.4735 31.9386 31.4735 32.6013C31.4735 33.2641 30.9417 33.804 30.2882 33.804C29.6346 33.804 29.1029 33.2641 29.1029 32.6013C29.1029 31.9386 29.6346 31.3993 30.2882 31.3993Z" fill="#413773"/>
<path fill-rule="evenodd" clip-rule="evenodd" d="M24.1851 38.904H36.3716V28.8391H24.1851V38.904ZM24.788 38.2926H35.7687V29.4505H24.788V38.2926Z" fill="#413773"/>
<path fill-rule="evenodd" clip-rule="evenodd" d="M38.4733 38.8832H50.356V28.8183H38.4733V38.8832Z" fill="#D9D7E5"/>
<path fill-rule="evenodd" clip-rule="evenodd" d="M39.7251 38.5186C40.3274 36.5517 42.1355 35.1234 44.2728 35.1234C46.4198 35.1234 48.2345 36.5639 48.829 38.5436" fill="white"/>
<path d="M39.7251 38.5186C40.3274 36.5517 42.1355 35.1234 44.2728 35.1234C46.4198 35.1234 48.2345 36.5639 48.829 38.5436" stroke="#413773" stroke-linecap="round"/>
<path fill-rule="evenodd" clip-rule="evenodd" d="M44.273 34.1095C43.4531 34.1095 42.7863 33.4333 42.7863 32.6018C42.7863 31.7703 43.4531 31.0934 44.273 31.0934C45.093 31.0934 45.7598 31.7703 45.7598 32.6018C45.7598 33.4333 45.093 34.1095 44.273 34.1095Z" fill="white"/>
<path fill-rule="evenodd" clip-rule="evenodd" d="M44.2731 30.7879C43.2855 30.7879 42.4849 31.5999 42.4849 32.6013C42.4849 33.6028 43.2855 34.4154 44.2731 34.4154C45.2606 34.4154 46.0613 33.6028 46.0613 32.6013C46.0613 31.5999 45.2606 30.7879 44.2731 30.7879ZM44.2731 31.3993C44.9267 31.3993 45.4584 31.9386 45.4584 32.6013C45.4584 33.2641 44.9267 33.804 44.2731 33.804C43.6196 33.804 43.0878 33.2641 43.0878 32.6013C43.0878 31.9386 43.6196 31.3993 44.2731 31.3993Z" fill="#413773"/>
<path fill-rule="evenodd" clip-rule="evenodd" d="M38.1694 38.904H50.356V28.8391H38.1694V38.904ZM38.7724 38.2926H49.7532V29.4505H38.7724V38.2926Z" fill="#413773"/>
<path fill-rule="evenodd" clip-rule="evenodd" d="M10.5033 50.9792H22.386V40.9143H10.5033V50.9792Z" fill="#D9D7E5"/>
<path fill-rule="evenodd" clip-rule="evenodd" d="M11.7555 50.6144C12.3578 48.6475 14.1659 47.2193 16.3032 47.2193C18.4502 47.2193 20.2643 48.6597 20.8588 50.6395" fill="white"/>
<path d="M11.7555 50.6144C12.3578 48.6475 14.1659 47.2193 16.3032 47.2193C18.4502 47.2193 20.2643 48.6597 20.8588 50.6395" stroke="#413773" stroke-linecap="round"/>
<path fill-rule="evenodd" clip-rule="evenodd" d="M16.3033 46.2053C15.4833 46.2053 14.8165 45.5291 14.8165 44.6976C14.8165 43.8661 15.4833 43.1893 16.3033 43.1893C17.1233 43.1893 17.7901 43.8661 17.7901 44.6976C17.7901 45.5291 17.1233 46.2053 16.3033 46.2053Z" fill="white"/>
<path fill-rule="evenodd" clip-rule="evenodd" d="M16.3031 42.8837C15.3156 42.8837 14.5149 43.6957 14.5149 44.6972C14.5149 45.6986 15.3156 46.5112 16.3031 46.5112C17.2907 46.5112 18.0913 45.6986 18.0913 44.6972C18.0913 43.6957 17.2907 42.8837 16.3031 42.8837ZM16.3032 43.4951C16.9568 43.4951 17.4885 44.0344 17.4885 44.6972C17.4885 45.3599 16.9568 45.8998 16.3032 45.8998C15.6497 45.8998 15.1179 45.3599 15.1179 44.6972C15.1179 44.0344 15.6497 43.4951 16.3032 43.4951Z" fill="#413773"/>
<path fill-rule="evenodd" clip-rule="evenodd" d="M10.2 51H22.3865V40.9351H10.2V51ZM10.8029 50.3886H21.7837V41.5465H10.8029V50.3886Z" fill="#413773"/>
<path fill-rule="evenodd" clip-rule="evenodd" d="M24.4883 50.9792H36.371V40.9143H24.4883V50.9792Z" fill="#D9D7E5"/>
<path fill-rule="evenodd" clip-rule="evenodd" d="M25.7404 50.6144C26.3427 48.6475 28.1508 47.2193 30.2881 47.2193C32.5568 47.2193 34.1274 48.2519 34.8436 50.6395" fill="white"/>
<path d="M25.7404 50.6144C26.3427 48.6475 28.1508 47.2193 30.2881 47.2193C32.5568 47.2193 34.1274 48.2519 34.8436 50.6395" stroke="#413773" stroke-linecap="round"/>
<path fill-rule="evenodd" clip-rule="evenodd" d="M30.288 46.2053C29.4681 46.2053 28.8013 45.5291 28.8013 44.6976C28.8013 43.8661 29.4681 43.1893 30.288 43.1893C31.108 43.1893 31.7748 43.8661 31.7748 44.6976C31.7748 45.5291 31.108 46.2053 30.288 46.2053Z" fill="white"/>
<path fill-rule="evenodd" clip-rule="evenodd" d="M30.2881 42.8837C29.3005 42.8837 28.4999 43.6957 28.4999 44.6972C28.4999 45.6986 29.3005 46.5112 30.2881 46.5112C31.2757 46.5112 32.0763 45.6986 32.0763 44.6972C32.0763 43.6957 31.2757 42.8837 30.2881 42.8837ZM30.2882 43.4951C30.9417 43.4951 31.4735 44.0344 31.4735 44.6972C31.4735 45.3599 30.9417 45.8998 30.2882 45.8998C29.6346 45.8998 29.1029 45.3599 29.1029 44.6972C29.1029 44.0344 29.6346 43.4951 30.2882 43.4951Z" fill="#413773"/>
<path fill-rule="evenodd" clip-rule="evenodd" d="M24.1851 51H36.3716V40.9351H24.1851V51ZM24.788 50.3886H35.7687V41.5465H24.788V50.3886Z" fill="#413773"/>
<path fill-rule="evenodd" clip-rule="evenodd" d="M38.4733 50.9792H50.356V40.9143H38.4733V50.9792Z" fill="#D9D7E5"/>
<path fill-rule="evenodd" clip-rule="evenodd" d="M39.7251 50.6144C40.3274 48.6475 42.1355 47.2193 44.2728 47.2193C46.4198 47.2193 48.2345 48.6597 48.829 50.6395" fill="white"/>
<path d="M39.7251 50.6144C40.3274 48.6475 42.1355 47.2193 44.2728 47.2193C46.4198 47.2193 48.2345 48.6597 48.829 50.6395" stroke="#413773" stroke-linecap="round"/>
<path fill-rule="evenodd" clip-rule="evenodd" d="M44.273 46.2053C43.4531 46.2053 42.7863 45.5291 42.7863 44.6976C42.7863 43.8661 43.4531 43.1893 44.273 43.1893C45.093 43.1893 45.7598 43.8661 45.7598 44.6976C45.7598 45.5291 45.093 46.2053 44.273 46.2053Z" fill="white"/>
<path fill-rule="evenodd" clip-rule="evenodd" d="M44.2731 42.8837C43.2855 42.8837 42.4849 43.6957 42.4849 44.6972C42.4849 45.6986 43.2855 46.5112 44.2731 46.5112C45.2606 46.5112 46.0613 45.6986 46.0613 44.6972C46.0613 43.6957 45.2606 42.8837 44.2731 42.8837ZM44.2731 43.4951C44.9267 43.4951 45.4584 44.0344 45.4584 44.6972C45.4584 45.3599 44.9267 45.8998 44.2731 45.8998C43.6196 45.8998 43.0878 45.3599 43.0878 44.6972C43.0878 44.0344 43.6196 43.4951 44.2731 43.4951Z" fill="#413773"/>
<path fill-rule="evenodd" clip-rule="evenodd" d="M38.1694 51H50.356V40.9351H38.1694V51ZM38.7724 50.3886H49.7532V41.5465H38.7724V50.3886Z" fill="#413773"/>
<path fill-rule="evenodd" clip-rule="evenodd" d="M55.0429 33.8715C55.0429 34.316 54.6878 34.6761 54.2495 34.6761C53.8112 34.6761 53.4554 34.316 53.4554 33.8715C53.4554 33.427 53.8112 33.0669 54.2495 33.0669C54.6878 33.0669 55.0429 33.427 55.0429 33.8715Z" fill="#413773"/>
<path fill-rule="evenodd" clip-rule="evenodd" d="M58.5014 33.8715C58.5014 34.316 58.1463 34.6761 57.708 34.6761C57.2697 34.6761 56.9139 34.316 56.9139 33.8715C56.9139 33.427 57.2697 33.0669 57.708 33.0669C58.1463 33.0669 58.5014 33.427 58.5014 33.8715Z" fill="#413773"/>
<path fill-rule="evenodd" clip-rule="evenodd" d="M61.9599 33.8715C61.9599 34.316 61.6048 34.6761 61.1665 34.6761C60.7282 34.6761 60.3724 34.316 60.3724 33.8715C60.3724 33.427 60.7282 33.0669 61.1665 33.0669C61.6048 33.0669 61.9599 33.427 61.9599 33.8715Z" fill="#413773"/>
</g>
</svg>
