<svg width="68" height="68" viewBox="0 0 68 68" fill="none" xmlns="http://www.w3.org/2000/svg">
<circle cx="34" cy="34" r="34" fill="white"/>
<path fill-rule="evenodd" clip-rule="evenodd" d="M20.4453 27.8288L18.2851 30.2652C17.6885 30.9381 17.6885 32.0287 18.2851 32.7023C18.8811 33.3745 19.8486 33.3745 20.4453 32.7023C21.0419 32.0287 21.0419 30.9381 20.4453 30.2652C20.4453 30.2652 19.3652 29.047 20.4453 27.8288Z" fill="#D9D7E5"/>
<path fill-rule="evenodd" clip-rule="evenodd" d="M20.4453 27.8288L18.2851 30.2652C17.6885 30.9381 17.6885 32.0287 18.2851 32.7023C18.8811 33.3745 19.8486 33.3745 20.4453 32.7023C21.0419 32.0287 21.0419 30.9381 20.4453 30.2652C20.4453 30.2652 19.3652 29.047 20.4453 27.8288Z" stroke="#413773" stroke-linecap="round" stroke-linejoin="round"/>
<path fill-rule="evenodd" clip-rule="evenodd" d="M25.5287 20.7844C27.1268 19.0379 27.0314 16.7898 26.1107 15.4722C25.8313 15.1838 25.6984 14.861 25.6984 14.5178C25.6984 14.1738 25.8313 13.8511 26.0725 13.6085C26.3138 13.366 26.6347 13.2324 26.9769 13.2324C27.3183 13.2324 27.6393 13.366 27.8805 13.6085C29.5802 15.3174 27.5098 18.8693 26.6204 19.7635L24.6509 21.743L25.5287 20.7844ZM16.4027 27.5033C15.3934 27.5033 13.98 27.2922 12.9796 26.2871C12.4814 25.7855 12.4814 24.9702 12.9796 24.4693C13.2215 24.2267 13.5425 24.0931 13.8839 24.0931C14.226 24.0931 14.5463 24.2267 14.7883 24.4693C15.9918 25.6793 17.2471 26.3193 18.4179 26.3193C18.5426 26.3193 18.6674 26.3117 18.7907 26.2967C19.3107 26.2343 19.8014 26.0425 20.2498 25.7259L21.2332 25.0325L20.0338 25.1038C19.9765 25.1072 19.9193 25.1093 19.862 25.1093C17.9497 25.1093 16.0893 23.2737 16.0709 23.2552L15.6517 22.8338C15.1529 22.3322 15.1529 21.5169 15.6517 21.0153C15.893 20.7728 16.2147 20.6391 16.5554 20.6391C16.8975 20.6391 17.2185 20.7728 17.4597 21.0153C17.6567 21.2133 17.8809 21.4758 18.1263 21.7622C19.0388 22.8262 20.1735 24.1514 21.4063 24.1507L21.8036 24.1315L21.8206 23.8252C21.8908 22.5501 20.536 21.3764 19.4477 20.4336C19.1628 20.1869 18.9018 19.9615 18.7048 19.7635C18.2067 19.2626 18.2067 18.4473 18.7048 17.9457C18.9468 17.7032 19.2671 17.5695 19.6092 17.5695C19.9506 17.5695 20.2716 17.7032 20.5135 17.9457L20.9333 18.3678C20.9524 18.387 22.8879 20.3706 22.7713 22.3521L22.7005 23.5573L23.3901 22.5686C23.705 22.1178 23.8958 21.6244 23.9578 21.1016C24.1098 19.8176 23.4815 18.426 22.1403 17.0776C21.6414 16.576 21.6414 15.7607 22.1403 15.2598C22.3815 15.0173 22.7025 14.883 23.0439 14.883C23.386 14.883 23.707 15.0173 23.9483 15.2598C25.5185 16.8385 25.1627 19.4291 25.0169 20.1856C24.9992 20.2746 24.9753 20.3671 24.9494 20.461L24.5739 21.8211L19.5063 26.9161L18.1535 27.2936C18.0601 27.3196 17.9681 27.3436 17.8795 27.3614C17.5483 27.4258 17.0229 27.5033 16.4027 27.5033ZM13.0682 30.9018C12.356 30.9011 11.7734 30.6791 11.3379 30.2406C10.839 29.7397 10.839 28.9243 11.3379 28.4228C11.5791 28.1802 11.9001 28.0466 12.2416 28.0466C12.5837 28.0466 12.9047 28.1802 13.1459 28.4228C13.796 28.888 14.5791 29.123 15.3955 29.123C16.5125 29.123 17.6063 28.6804 18.4752 27.876L19.4286 26.9942L17.4598 28.9737C16.8117 29.6246 14.7951 30.9018 13.0689 30.9018H13.0682Z" fill="#D9D7E5"/>
<path fill-rule="evenodd" clip-rule="evenodd" d="M27.3844 13.2324C26.9684 13.2324 26.5523 13.3921 26.2348 13.7114C25.5998 14.3501 25.5998 15.3853 26.2348 16.024C27.0628 17.2106 27.1675 19.3023 25.6785 20.9301C25.7072 20.8275 25.7333 20.7257 25.7524 20.6273C26.0001 19.3477 26.1185 16.9119 24.5857 15.3695C24.2682 15.0508 23.8522 14.8911 23.4361 14.8911C23.0201 14.8911 22.604 15.0508 22.2865 15.3695C21.6515 16.0089 21.6515 17.0441 22.2865 17.6828C23.4361 18.8391 24.1642 20.1695 24.0137 21.4408C23.9507 21.9694 23.7488 22.4065 23.5039 22.7575C23.6311 20.5853 21.5585 18.4922 21.5585 18.4922L21.1369 18.0682C20.8194 17.7489 20.4027 17.5892 19.9867 17.5892C19.5713 17.5892 19.1546 17.7489 18.8371 18.0682C18.2027 18.707 18.2027 19.7421 18.8371 20.3808C19.7403 21.2894 21.9444 22.7657 21.8664 24.1987C21.8411 24.2001 21.8157 24.2008 21.7911 24.2008C20.3904 24.2008 18.9582 22.0444 18.0707 21.1517C17.7532 20.8324 17.3371 20.6734 16.9211 20.6734C16.505 20.6734 16.089 20.8324 15.7715 21.1517C15.1365 21.7904 15.1365 22.8263 15.7715 23.465L16.193 23.889C16.193 23.889 18.1514 25.8513 20.2405 25.8513C20.3049 25.8513 20.3692 25.8492 20.4335 25.8458C20.0845 26.0922 19.65 26.2952 19.1252 26.3586C19.0136 26.3716 18.9021 26.3785 18.7905 26.3785C17.63 26.3785 16.4366 25.6765 15.3883 24.6213C15.0708 24.302 14.6548 24.1423 14.2387 24.1423C13.8227 24.1423 13.4059 24.302 13.0884 24.6213C12.4541 25.2601 12.4541 26.2952 13.0884 26.934C14.1196 27.9712 15.5525 28.2568 16.7678 28.2568C17.3597 28.2568 17.8989 28.1887 18.3157 28.1075C18.4135 28.0882 18.5148 28.062 18.6167 28.0331C17.7279 28.8563 16.6987 29.1956 15.7564 29.1956C14.9839 29.1956 14.2702 28.9678 13.7392 28.5927C13.4217 28.2733 13.0056 28.1137 12.5896 28.1137C12.1736 28.1137 11.7575 28.2733 11.44 28.5927C10.805 29.2314 10.805 30.2673 11.44 30.9053C11.9881 31.4573 12.6833 31.67 13.4196 31.67C15.2747 31.67 17.3891 30.3182 18.0707 29.6327C18.5743 29.1254 20.35 27.34 21.1369 26.5485L21.5201 26.1631L22.6697 25.0068L23.8193 23.8505L27.2688 20.3808C28.2206 19.4234 30.4651 15.6537 28.534 13.7114C28.2165 13.3921 27.8005 13.2324 27.3844 13.2324ZM12.5896 28.8019C12.8415 28.8019 13.0775 28.9004 13.2554 29.0793L13.2979 29.1213L13.3458 29.1557C14.0109 29.6251 14.8669 29.8839 15.7565 29.8839C16.1075 29.8839 16.4565 29.8433 16.798 29.7648C15.8981 30.3581 14.5542 30.9817 13.4197 30.9817C12.7895 30.9817 12.3002 30.798 11.9238 30.4187C11.7459 30.2398 11.6481 30.0023 11.6481 29.749C11.6481 29.4957 11.7459 29.2583 11.9238 29.0793C12.1017 28.9004 12.3378 28.8019 12.5896 28.8019ZM14.2387 24.8306C14.4898 24.8306 14.7266 24.929 14.9045 25.1079C16.1786 26.3895 17.5219 27.0668 18.7905 27.0668C18.9301 27.0668 19.0697 27.0585 19.2059 27.042C19.4098 27.0172 19.6096 26.9752 19.8039 26.9154L19.7068 27.0138L18.4333 27.3703C18.3485 27.3937 18.265 27.4157 18.1849 27.4316C17.8667 27.4942 17.3624 27.5685 16.7678 27.5685C15.8187 27.5685 14.4939 27.3738 13.5722 26.4473C13.2054 26.0784 13.2054 25.4776 13.5722 25.1079C13.7508 24.929 13.9869 24.8306 14.2387 24.8306ZM16.9211 21.3616C17.1729 21.3616 17.409 21.4601 17.5869 21.6383C17.7717 21.8242 17.9989 22.0892 18.2391 22.37C19.2005 23.4919 20.3966 24.8891 21.7912 24.8891C21.8007 24.8891 21.8103 24.8884 21.8192 24.8884L21.6242 25.0852L20.3932 25.1582C20.3425 25.1616 20.2912 25.163 20.2406 25.163C18.4655 25.163 16.6926 23.4182 16.6768 23.4024L16.2553 22.9784C15.8879 22.6088 15.8879 22.0079 16.2553 21.6383C16.4332 21.4601 16.6693 21.3616 16.9211 21.3616ZM19.9867 18.2775C20.2385 18.2775 20.4753 18.3759 20.6532 18.5548L21.0727 18.9774C21.0911 18.996 22.9278 20.8847 22.8203 22.7169L22.7478 23.9551L22.5521 24.1512C22.5726 22.7382 21.1753 21.5268 20.0483 20.5502C19.7691 20.3086 19.5057 20.0801 19.3209 19.8942C18.9541 19.5253 18.9541 18.9244 19.3209 18.5548C19.4995 18.3759 19.7356 18.2775 19.9867 18.2775ZM23.4362 15.5794C23.688 15.5794 23.9241 15.6778 24.102 15.8568C25.5595 17.3228 25.2194 19.7779 25.0805 20.4958C25.0648 20.5763 25.0429 20.6603 25.0196 20.7457L24.6651 22.0265L24.5673 22.1243C24.6268 21.9288 24.6686 21.7278 24.6932 21.5227C24.8595 20.1241 24.1944 18.6278 22.7704 17.1962C22.5925 17.0172 22.4946 16.7791 22.4946 16.5265C22.4946 16.2732 22.5925 16.0358 22.7704 15.8568C22.9483 15.6778 23.1844 15.5794 23.4362 15.5794ZM27.3844 13.9207C27.6362 13.9207 27.8723 14.0191 28.0502 14.198C28.8481 15.0006 28.6449 16.2705 28.3342 17.1948C28.0988 17.8948 27.743 18.5659 27.4084 19.0821C27.6951 17.7922 27.4152 16.5175 26.7946 15.6283L26.7604 15.5801L26.7186 15.5374C26.5407 15.3585 26.4429 15.121 26.4429 14.8677C26.4429 14.6145 26.5407 14.377 26.7186 14.198C26.8965 14.0191 27.1326 13.9207 27.3844 13.9207Z" fill="#413773"/>
<path fill-rule="evenodd" clip-rule="evenodd" d="M30.3201 20.5966C29.6512 19.9965 28.5664 19.9965 27.8982 20.5966L25.4755 22.7693C26.6865 21.683 27.8982 22.7693 27.8982 22.7693C28.5664 23.3694 29.6512 23.3694 30.3201 22.7693C30.9891 22.1699 30.9891 21.1967 30.3201 20.5966Z" fill="#D9D7E5"/>
<path fill-rule="evenodd" clip-rule="evenodd" d="M30.3201 20.5966C29.6512 19.9965 28.5664 19.9965 27.8982 20.5966L25.4755 22.7693C26.6865 21.683 27.8982 22.7693 27.8982 22.7693C28.5664 23.3694 29.6512 23.3694 30.3201 22.7693C30.9891 22.1699 30.9891 21.1967 30.3201 20.5966Z" stroke="#413773" stroke-linecap="round" stroke-linejoin="round"/>
<path d="M24.7117 25.5241C27.8377 31.0355 33.679 34.7429 40.3689 34.7429C47.0589 34.7429 52.9001 31.0355 56.0262 25.5241" stroke="#413773" stroke-linecap="round"/>
<path fill-rule="evenodd" clip-rule="evenodd" d="M49.9159 52.4123H10.2V43.0478C10.2 41.4312 11.5432 40.1206 13.2001 40.1206H46.9158C48.5727 40.1206 49.9159 41.4312 49.9159 43.0478V52.4123Z" stroke="#413773" stroke-linecap="round" stroke-linejoin="round"/>
<path d="M49.9159 52.4124L62.1362 41.2797V32.29C62.1362 31.0869 60.724 30.4559 59.8436 31.2649L51.953 38.1732" stroke="#413773" stroke-linecap="round" stroke-linejoin="round"/>
</svg>
