<svg width="65" height="56" viewBox="0 0 65 56" fill="none" xmlns="http://www.w3.org/2000/svg">
<g clip-path="url(#clip0_169_3977)">
<path d="M44.3603 18.0859V2.83104C44.3603 1.65507 43.413 0.707764 42.2371 0.707764H2.83128C1.65531 0.707764 0.708008 1.65507 0.708008 2.83104V53.169C0.708008 54.3449 1.65531 55.2922 2.83128 55.2922H42.2262C43.4022 55.2922 44.3495 54.3449 44.3495 53.169V34.8653" stroke="#409587" stroke-width="1.3" stroke-linecap="round" stroke-linejoin="round"/>
<path d="M8.52539 10.6055H36.5417" stroke="#409587" stroke-width="1.3" stroke-linecap="round" stroke-linejoin="round"/>
<path d="M8.52539 20.6121H36.5417" stroke="#409587" stroke-width="1.3" stroke-linecap="round" stroke-linejoin="round"/>
<path d="M8.52539 30.6296H30.8688" stroke="#409587" stroke-width="1.3" stroke-linecap="round" stroke-linejoin="round"/>
<path d="M56.7403 8.52576L29.8455 35.4206C29.4317 35.8343 29.116 36.3461 28.92 36.9014L26.8511 42.999C26.6878 43.4781 27.1451 43.9463 27.6242 43.7939L33.8307 41.8666C34.4296 41.6815 34.974 41.3548 35.4096 40.9084L62.2717 14.0572L56.7403 8.52576Z" fill="#409587"/>
<path d="M59.7782 7.29534C59.9524 7.29534 60.1157 7.36067 60.2355 7.48045L63.3169 10.5619C63.4367 10.6817 63.502 10.845 63.502 11.0192C63.502 11.1935 63.4367 11.3568 63.3169 11.4766L62.2716 12.5219L58.2755 8.52575L59.3208 7.48045C59.4406 7.36067 59.6039 7.29534 59.7782 7.29534ZM59.7782 6.20648C59.3317 6.20648 58.8853 6.3807 58.5477 6.71825L56.7402 8.52575L62.2716 14.0572L64.0791 12.2496C64.7542 11.5746 64.7542 10.4748 64.0791 9.79972L60.9977 6.71825C60.6601 6.3807 60.2137 6.20648 59.7673 6.20648H59.7782Z" fill="#409587"/>
</g>
<defs>
<clipPath id="clip0_169_3977">
<rect width="64.5911" height="56" fill="white"/>
</clipPath>
</defs>
</svg>
