<svg width="70" height="70" viewBox="0 0 70 70" fill="none" xmlns="http://www.w3.org/2000/svg">
<g clip-path="url(#clip0_229_444)">
<path d="M35 69C53.7777 69 69 53.7777 69 35C69 16.2223 53.7777 1 35 1C16.2223 1 1 16.2223 1 35C1 53.7777 16.2223 69 35 69Z" stroke="#409587" stroke-width="2" stroke-miterlimit="10"/>
<path d="M47.48 33.4098C48.21 32.8198 49.2 32.4098 50.53 32.3198C50.53 32.3198 51.78 33.5398 51.98 35.4398" stroke="#409587" stroke-width="1.3" stroke-linecap="round" stroke-linejoin="round"/>
<path d="M44.39 55.1198C43.66 55.7098 42.67 56.1198 41.34 56.2098C41.34 56.2098 40.09 54.9898 39.89 53.0898" stroke="#409587" stroke-width="1.3" stroke-linecap="round" stroke-linejoin="round"/>
<path d="M56.79 45.8101C57.38 46.5401 57.79 47.5301 57.88 48.8601C57.88 48.8601 56.66 50.1101 54.76 50.3101" stroke="#409587" stroke-width="1.3" stroke-linecap="round" stroke-linejoin="round"/>
<path d="M35.08 42.73C34.49 42 34.08 41.01 33.99 39.68C33.99 39.68 35.21 38.43 37.11 38.23" stroke="#409587" stroke-width="1.3" stroke-linecap="round" stroke-linejoin="round"/>
<path d="M54.7 37.6899C55.63 37.7899 56.62 38.1999 57.62 39.0699C57.62 39.0699 57.64 40.8199 56.44 42.2999" stroke="#409587" stroke-width="1.3" stroke-linecap="round" stroke-linejoin="round"/>
<path d="M37.17 50.8502C36.24 50.7502 35.25 50.3402 34.24 49.4702C34.24 49.4702 34.22 47.7202 35.42 46.2402" stroke="#409587" stroke-width="1.3" stroke-linecap="round" stroke-linejoin="round"/>
<path d="M52.52 53.04C52.42 53.97 52.01 54.96 51.14 55.96C51.14 55.96 49.39 55.98 47.91 54.78" stroke="#409587" stroke-width="1.3" stroke-linecap="round" stroke-linejoin="round"/>
<path d="M39.35 35.5001C39.45 34.5701 39.86 33.5801 40.73 32.5801C40.73 32.5801 42.48 32.5601 43.96 33.7601" stroke="#409587" stroke-width="1.3" stroke-linecap="round" stroke-linejoin="round"/>
<path d="M43.07 37.48C42.86 35.7 43.26 33.51 45.94 32.27C45.94 32.27 49.16 33.66 48.73 37.37" stroke="#409587" stroke-width="1.3" stroke-linecap="round" stroke-linejoin="round"/>
<path d="M48.79 51.0103C49.02 52.8003 48.64 55.0203 45.93 56.2803C45.93 56.2803 42.67 54.8703 43.15 51.1003" stroke="#409587" stroke-width="1.3" stroke-linecap="round" stroke-linejoin="round"/>
<path d="M52.72 41.3998C54.5 41.1898 56.69 41.5898 57.93 44.2698C57.93 44.2698 56.54 47.4898 52.83 47.0598" stroke="#409587" stroke-width="1.3" stroke-linecap="round" stroke-linejoin="round"/>
<path d="M39.14 47.14C37.36 47.35 35.17 46.95 33.93 44.27C33.93 44.27 35.32 41.05 39.03 41.48" stroke="#409587" stroke-width="1.3" stroke-linecap="round" stroke-linejoin="round"/>
<path d="M47.32 40.0299C47.32 40.0299 49.21 33.8699 54.42 35.7799C54.42 35.7799 56.38 40.7099 50.02 42.7599" stroke="#409587" stroke-width="1.3" stroke-linecap="round" stroke-linejoin="round"/>
<path d="M44.55 48.5C44.55 48.5 42.66 54.66 37.45 52.75C37.45 52.75 35.49 47.82 41.85 45.77" stroke="#409587" stroke-width="1.3" stroke-linecap="round" stroke-linejoin="round"/>
<path d="M50.17 45.6602C50.17 45.6602 56.33 47.5502 54.42 52.7602C54.42 52.7602 49.49 54.7202 47.44 48.3602" stroke="#409587" stroke-width="1.3" stroke-linecap="round" stroke-linejoin="round"/>
<path d="M41.7 42.8801C41.7 42.8801 35.54 40.9901 37.45 35.7801C37.45 35.7801 42.38 33.8201 44.43 40.1801" stroke="#409587" stroke-width="1.3" stroke-linecap="round" stroke-linejoin="round"/>
<path d="M45.93 48.5902C48.3159 48.5902 50.25 46.6561 50.25 44.2702C50.25 41.8843 48.3159 39.9502 45.93 39.9502C43.5441 39.9502 41.61 41.8843 41.61 44.2702C41.61 46.6561 43.5441 48.5902 45.93 48.5902Z" stroke="#409587" stroke-width="1.3" stroke-linecap="round" stroke-linejoin="round"/>
<path d="M46.2 30.1002V19.4602H38.5V17.4202C38.5 16.5902 37.83 15.9302 37.01 15.9302C36.19 15.9302 35.52 16.6002 35.52 17.4202V19.4602H30.63V17.4202C30.63 16.5902 29.96 15.9302 29.14 15.9302C28.32 15.9302 27.65 16.6002 27.65 17.4202V19.4602H22.76V17.4202C22.76 16.5902 22.09 15.9302 21.27 15.9302C20.45 15.9302 19.78 16.6002 19.78 17.4202V19.4602H12.08V44.2702H32.04" stroke="#409587" stroke-width="1.3" stroke-linecap="round" stroke-linejoin="round"/>
<path d="M21.41 15.9302H21.1C20.3599 15.9302 19.76 16.5301 19.76 17.2702V21.6502C19.76 22.3902 20.3599 22.9902 21.1 22.9902H21.41C22.1501 22.9902 22.75 22.3902 22.75 21.6502V17.2702C22.75 16.5301 22.1501 15.9302 21.41 15.9302Z" fill="#409587" stroke="#409587" stroke-width="1.06" stroke-linecap="round" stroke-linejoin="round"/>
<path d="M29.29 15.9302H28.98C28.2399 15.9302 27.64 16.5301 27.64 17.2702V21.6502C27.64 22.3902 28.2399 22.9902 28.98 22.9902H29.29C30.0301 22.9902 30.63 22.3902 30.63 21.6502V17.2702C30.63 16.5301 30.0301 15.9302 29.29 15.9302Z" fill="#409587" stroke="#409587" stroke-width="1.06" stroke-linecap="round" stroke-linejoin="round"/>
<path d="M37.16 15.9302H36.85C36.1099 15.9302 35.51 16.5301 35.51 17.2702V21.6502C35.51 22.3902 36.1099 22.9902 36.85 22.9902H37.16C37.9001 22.9902 38.5 22.3902 38.5 21.6502V17.2702C38.5 16.5301 37.9001 15.9302 37.16 15.9302Z" fill="#409587" stroke="#409587" stroke-width="1.06" stroke-linecap="round" stroke-linejoin="round"/>
<path d="M17.94 25.4102V40.2202" stroke="#409587" stroke-width="1.3" stroke-linecap="round" stroke-linejoin="round"/>
<path d="M23.54 25.4102V40.2202" stroke="#409587" stroke-width="1.3" stroke-linecap="round" stroke-linejoin="round"/>
<path d="M29.13 25.4102V40.2202" stroke="#409587" stroke-width="1.3" stroke-linecap="round" stroke-linejoin="round"/>
<path d="M34.72 25.4102V35.7702" stroke="#409587" stroke-width="1.3" stroke-linecap="round" stroke-linejoin="round"/>
<path d="M40.32 25.4102V30.6202" stroke="#409587" stroke-width="1.3" stroke-linecap="round" stroke-linejoin="round"/>
<path d="M15.02 27.8701H43.24" stroke="#409587" stroke-width="1.3" stroke-linecap="round" stroke-linejoin="round"/>
<path d="M15.02 32.8203H37.94" stroke="#409587" stroke-width="1.3" stroke-linecap="round" stroke-linejoin="round"/>
<path d="M15.02 37.77H32.78" stroke="#409587" stroke-width="1.3" stroke-linecap="round" stroke-linejoin="round"/>
<path d="M45.89 48.5502C48.2759 48.5502 50.21 46.616 50.21 44.2302C50.21 41.8443 48.2759 39.9102 45.89 39.9102C43.5041 39.9102 41.57 41.8443 41.57 44.2302C41.57 46.616 43.5041 48.5502 45.89 48.5502Z" fill="#409587"/>
</g>
<defs>
<clipPath id="clip0_229_444">
<rect width="70" height="70" fill="white"/>
</clipPath>
</defs>
</svg>
