<svg width="70" height="70" viewBox="0 0 70 70" fill="none" xmlns="http://www.w3.org/2000/svg">
<g clip-path="url(#clip0_229_431)">
<path d="M35 69C53.7777 69 69 53.7777 69 35C69 16.2223 53.7777 1 35 1C16.2223 1 1 16.2223 1 35C1 53.7777 16.2223 69 35 69Z" stroke="#409587" stroke-width="2" stroke-miterlimit="10"/>
<path d="M43.31 12.8198H26.69C25.9389 12.8198 25.33 13.4287 25.33 14.1798V35.0998C25.33 35.8509 25.9389 36.4598 26.69 36.4598H43.31C44.0611 36.4598 44.67 35.8509 44.67 35.0998V14.1798C44.67 13.4287 44.0611 12.8198 43.31 12.8198Z" fill="#409587"/>
<path d="M27.3 34.9798C27.3 30.7298 30.75 27.2798 35 27.2798C39.25 27.2798 42.7 30.7298 42.7 34.9798" fill="white"/>
<path d="M35 25.3599C37.3306 25.3599 39.22 23.4706 39.22 21.1399C39.22 18.8093 37.3306 16.9199 35 16.9199C32.6694 16.9199 30.78 18.8093 30.78 21.1399C30.78 23.4706 32.6694 25.3599 35 25.3599Z" fill="white"/>
<path d="M22.03 22.0598L34.83 10.0298L47.97 22.0598" stroke="white" stroke-width="1.3" stroke-linejoin="round"/>
<path d="M22.75 35.8398H47.25" stroke="#409587" stroke-width="1.3" stroke-linecap="round" stroke-linejoin="round"/>
<path d="M18.74 57.1802H51.26" stroke="#409587" stroke-width="1.3" stroke-linecap="round" stroke-linejoin="round"/>
<path d="M22.75 17.4399H17.97C15.71 17.4399 13.88 19.2699 13.88 21.5299V44.8899C13.88 47.1499 15.71 48.9799 17.97 48.9799H52.03C54.29 48.9799 56.12 47.1499 56.12 44.8899V21.5299C56.12 19.2699 54.29 17.4399 52.03 17.4399H47.25" stroke="#409587" stroke-width="1.3" stroke-linecap="round" stroke-linejoin="round"/>
<path d="M47.45 21.6001H51.46V44.1001H18.54V21.6001H22.96" stroke="#409587" stroke-width="1.3" stroke-linecap="round" stroke-linejoin="round"/>
<path d="M38.49 48.98H31.51V57.18H38.49V48.98Z" stroke="#409587" stroke-width="1.3" stroke-linecap="round" stroke-linejoin="round"/>
</g>
<defs>
<clipPath id="clip0_229_431">
<rect width="70" height="70" fill="white"/>
</clipPath>
</defs>
</svg>
