<svg width="102" height="88" viewBox="0 0 102 88" fill="none" xmlns="http://www.w3.org/2000/svg">
<g id="02&#236;&#149;&#132;&#236;&#157;&#180;&#236;&#189;&#152;" clip-path="url(#clip0_1541_17512)">
<path id="Vector" d="M69.7088 28.4208V4.44876C69.7088 2.60081 68.2202 1.11218 66.3723 1.11218H4.44888C2.60093 1.11218 1.1123 2.60081 1.1123 4.44876V83.5512C1.1123 85.3992 2.60093 86.8878 4.44888 86.8878H66.3552C68.2031 86.8878 69.6917 85.3992 69.6917 83.5512V54.7882" stroke="#409587" stroke-width="1.3" stroke-linecap="round" stroke-linejoin="round"/>
<g id="Group">
<path id="Vector_2" d="M13.3977 16.6658H57.4234" stroke="#409587" stroke-width="1.3" stroke-linecap="round" stroke-linejoin="round"/>
<path id="Vector_3" d="M13.3977 32.3904H57.4234" stroke="#409587" stroke-width="1.3" stroke-linecap="round" stroke-linejoin="round"/>
<path id="Vector_4" d="M13.3977 48.1322H48.5087" stroke="#409587" stroke-width="1.3" stroke-linecap="round" stroke-linejoin="round"/>
</g>
<path id="Vector_5" d="M89.1636 13.3976L46.9003 55.6609C46.2501 56.3111 45.7539 57.1153 45.4459 57.988L42.1949 67.5699C41.9382 68.3228 42.6569 69.0585 43.4097 68.819L53.1628 65.7904C54.1039 65.4995 54.9594 64.9862 55.6438 64.2847L97.8558 22.0898L89.1636 13.3976Z" fill="#409587"/>
<path id="Vector_6" d="M93.9374 11.4641C94.2112 11.4641 94.4679 11.5668 94.6561 11.755L99.4984 16.5973C99.6866 16.7855 99.7893 17.0422 99.7893 17.316C99.7893 17.5897 99.6866 17.8464 99.4984 18.0346L97.8558 19.6772L91.5762 13.3976L93.2188 11.755C93.407 11.5668 93.6637 11.4641 93.9374 11.4641ZM93.9374 9.75305C93.2359 9.75305 92.5344 10.0268 92.0039 10.5573L89.1636 13.3976L97.8558 22.0898L100.696 19.2495C101.757 18.1886 101.757 16.4604 100.696 15.3996L95.8538 10.5573C95.3234 10.0268 94.6219 9.75305 93.9203 9.75305H93.9374Z" fill="#409587"/>
</g>
<defs>
<clipPath id="clip0_1541_17512">
<rect width="101.5" height="88" fill="white"/>
</clipPath>
</defs>
</svg>
