<svg width="16" height="16" viewBox="0 0 16 16" fill="none" xmlns="http://www.w3.org/2000/svg">
<path fill-rule="evenodd" clip-rule="evenodd" d="M7.80021 6.74798C6.0198 4.8292 6.0198 2.8122 7.80167 0.908336C7.99712 0.699506 8.3276 0.69689 8.52633 0.902602C10.3391 2.77901 10.3391 4.80006 8.53341 6.74782C8.3356 6.96119 7.9981 6.96126 7.80021 6.74798ZM8.22058 2.07448L8.17189 2.014L8.12354 2.07708C7.24537 3.25664 7.24548 4.38949 8.12458 5.57816L8.16689 5.633L8.21556 5.57069C9.1094 4.36594 9.10993 3.23577 8.22058 2.07448Z" fill="#413773"/>
<path fill-rule="evenodd" clip-rule="evenodd" d="M9.1196 7.11053C9.89111 4.60926 11.6379 3.60076 14.1776 4.19197C14.4562 4.25682 14.6237 4.54172 14.5449 4.81668C13.9726 6.81416 12.7381 7.8819 10.9148 7.9096C10.6075 7.91427 10.1454 7.86073 9.51171 7.7505C9.21489 7.69887 9.0308 7.39842 9.1196 7.11053ZM6.83016 8.43403C4.29043 7.84282 2.54365 8.85132 1.77214 11.3526C1.68638 11.6306 1.8552 11.9229 2.13888 11.9875C4.72852 12.5773 6.4788 11.5668 7.19745 9.05874C7.27624 8.78378 7.10874 8.49888 6.83016 8.43403ZM3.03437 10.8603C3.63181 9.64065 4.58787 9.13454 5.97893 9.29715L6.05693 9.30799L6.03759 9.36078L5.95826 9.54277C5.38437 10.782 4.41887 11.2933 2.97833 11.1212L2.91993 11.113L2.94743 11.0486L3.03437 10.8603ZM10.3818 6.61823C10.9793 5.39859 11.9353 4.89249 13.3264 5.05509L13.4049 5.06599L13.3734 5.14707L13.2831 5.34909C12.7837 6.39249 12.0024 6.89296 10.8996 6.90972L10.8052 6.90862L10.694 6.90272L10.4216 6.87641L10.2729 6.85699L10.2949 6.80653L10.3818 6.61823Z" fill="#413773"/>
<path fill-rule="evenodd" clip-rule="evenodd" d="M7.19461 7.10755C6.42309 4.60629 4.67632 3.59779 2.13659 4.189C1.85801 4.25385 1.69051 4.53874 1.76929 4.8137C2.48795 7.32178 4.23822 8.3323 6.82786 7.74244C7.11155 7.67782 7.28036 7.38558 7.19461 7.10755ZM9.48405 8.43106C12.0238 7.83985 13.7706 8.84835 14.5421 11.3496C14.6278 11.6276 14.459 11.9199 14.1753 11.9845C11.5857 12.5744 9.83541 11.5638 9.11676 9.05576C9.03797 8.7808 9.20547 8.49591 9.48405 8.43106ZM13.2798 10.8573C12.6824 9.63768 11.7263 9.13157 10.3353 9.29417L10.2573 9.305L10.2766 9.35781L10.3559 9.5398C10.9298 10.7791 11.8953 11.2903 13.3359 11.1182L13.3943 11.11L13.3668 11.0456L13.2798 10.8573ZM5.93238 6.61526C5.33493 5.39562 4.37887 4.88951 2.98781 5.05211L2.90928 5.06299L2.92915 5.11575L3.00848 5.29774C3.58237 6.537 4.54788 7.04826 5.98842 6.87614L6.04728 6.868L5.93238 6.61526Z" fill="#413773"/>
<path fill-rule="evenodd" clip-rule="evenodd" d="M7.80021 15.2321C6.0198 13.3133 6.0198 11.2963 7.80167 9.39245C7.99712 9.18362 8.3276 9.18101 8.52633 9.38672C10.3391 11.2631 10.3391 13.2842 8.53341 15.2319C8.3356 15.4453 7.9981 15.4454 7.80021 15.2321ZM8.22058 10.5586L8.17189 10.498L8.12354 10.5612C7.24537 11.7408 7.24548 12.8736 8.12458 14.0623L8.16689 14.117L8.21556 14.0548C9.1094 12.8501 9.10993 11.7199 8.22058 10.5586Z" fill="#413773"/>
</svg>
