<svg width="68" height="68" viewBox="0 0 68 68" fill="none" xmlns="http://www.w3.org/2000/svg">
<circle cx="34" cy="34" r="34" fill="white"/>
<path fill-rule="evenodd" clip-rule="evenodd" d="M37.4 19.2856C37.4 23.2447 34.1652 26.4546 30.1746 26.4546C26.1847 26.4546 22.95 23.2447 22.95 19.2856C22.95 15.3257 26.1847 12.1158 30.1746 12.1158C34.1652 12.1158 37.4 15.3257 37.4 19.2856Z" fill="white"/>
<path fill-rule="evenodd" clip-rule="evenodd" d="M37.4 19.2856C37.4 23.2447 34.1652 26.4546 30.1746 26.4546C26.1847 26.4546 22.95 23.2447 22.95 19.2856C22.95 15.3257 26.1847 12.1158 30.1746 12.1158C34.1652 12.1158 37.4 15.3257 37.4 19.2856Z" stroke="#413773" stroke-linecap="round"/>
<path d="M33.15 15.4896C33.15 15.4896 31.238 19.1479 23.3418 19.1479H22.5182C21.3481 19.1479 20.4 20.0283 20.4 21.1147C20.4 22.2004 21.3481 23.0808 22.5182 23.0808H28.714" stroke="#413773" stroke-linecap="round"/>
<path fill-rule="evenodd" clip-rule="evenodd" d="M29.75 23.5025C29.75 24.2016 29.1786 24.7677 28.475 24.7677C27.7704 24.7677 27.2 24.2016 27.2 23.5025C27.2 22.8034 27.7704 22.2373 28.475 22.2373C29.1786 22.2373 29.75 22.8034 29.75 23.5025Z" fill="#413773"/>
<path d="M34 16.3331C34 16.3331 34.7873 19.1689 38.25 19.7069" stroke="#413773" stroke-linecap="round"/>
<path d="M33.2792 50.0715H19.9749C16.4543 50.0715 13.6 47.3105 13.6 43.9034C13.6 34.7329 21.2832 27.2981 30.7611 27.2981C37.3135 27.2981 43.0081 30.8513 45.9 36.0744" stroke="#413773" stroke-linecap="round"/>
<path d="M30.6 55.9758L39.3836 35.7327H56.95" stroke="#413773" stroke-linecap="round"/>
<path fill-rule="evenodd" clip-rule="evenodd" d="M49.8665 57.6627H32.3L41.0836 37.4196H58.65L49.8665 57.6627Z" fill="#D9D7E5"/>
<path fill-rule="evenodd" clip-rule="evenodd" d="M49.8665 57.6627H32.3L41.0836 37.4196H58.65L49.8665 57.6627Z" stroke="#413773" stroke-linecap="round"/>
<path d="M20.825 55.9758V41.6369" stroke="#413773" stroke-linecap="round"/>
<path fill-rule="evenodd" clip-rule="evenodd" d="M33.1195 27.0458C33.1195 28.2157 32.3226 29.1637 31.3401 29.1637C30.3584 29.1637 29.5615 28.2157 29.5615 27.0458" fill="#D9D7E5"/>
<path d="M33.1195 27.0458C33.1195 28.2157 32.3226 29.1637 31.3401 29.1637C30.3584 29.1637 29.5615 28.2157 29.5615 27.0458" stroke="#413773" stroke-linecap="round"/>
<path fill-rule="evenodd" clip-rule="evenodd" d="M31.0246 28.985L28.9 39.497L31.0246 41.6369L33.15 39.497L31.0246 28.985Z" fill="#D9D7E5"/>
<path d="M31.0246 28.985L28.9 39.497L31.0246 41.6369L33.15 39.497L31.0246 28.985" stroke="#413773" stroke-linecap="round"/>
</svg>
