<svg width="24" height="24" viewBox="0 0 24 24" fill="none" xmlns="http://www.w3.org/2000/svg">
<path fill-rule="evenodd" clip-rule="evenodd" d="M4.5 3H16.5C18.433 3 20 4.567 20 6.5V21.001C20 21.2771 19.7761 21.501 19.5 21.501H7.5C5.567 21.501 4 19.934 4 18.001V3.5C4 3.22386 4.22386 3 4.5 3ZM16.5 4H5V18.001C5 19.3817 6.11929 20.501 7.5 20.501L19 20.5V6.5C19 5.17452 17.9685 4.08996 16.6644 4.00532L16.5 4Z" fill="#413773"/>
<path d="M11.6464 3.64645C11.8417 3.45118 12.1583 3.45118 12.3536 3.64645C12.5271 3.82001 12.5464 4.08944 12.4114 4.28431L12.3536 4.35355L4.85355 11.8536C4.65829 12.0488 4.34171 12.0488 4.14645 11.8536C3.97288 11.68 3.9536 11.4106 4.08859 11.2157L4.14645 11.1464L11.6464 3.64645Z" fill="#413773"/>
<path d="M12.3536 3.64645C12.1583 3.45118 11.8417 3.45118 11.6464 3.64645C11.4729 3.82001 11.4536 4.08944 11.5886 4.28431L11.6464 4.35355L19.1464 11.8536C19.3417 12.0488 19.6583 12.0488 19.8536 11.8536C20.0271 11.68 20.0464 11.4106 19.9114 11.2157L19.8536 11.1464L12.3536 3.64645Z" fill="#413773"/>
<path fill-rule="evenodd" clip-rule="evenodd" d="M9 11.5C9 9.84315 10.3431 8.5 12 8.5C13.6569 8.5 15 9.84315 15 11.5C15 13.1569 13.6569 14.5 12 14.5C10.3431 14.5 9 13.1569 9 11.5ZM14 11.5C14 10.3954 13.1046 9.5 12 9.5C10.8954 9.5 10 10.3954 10 11.5C10 12.6046 10.8954 13.5 12 13.5C13.1046 13.5 14 12.6046 14 11.5Z" fill="#413773"/>
<path d="M12.0001 15.5C14.1795 15.5 16.1399 16.3685 17.0211 17.728C17.1713 17.9598 17.1052 18.2694 16.8735 18.4196C16.6418 18.5698 16.3322 18.5037 16.182 18.272C15.5039 17.2258 13.8656 16.5 12.0001 16.5C10.1371 16.5 8.50054 17.2238 7.82069 18.268C7.67003 18.4995 7.36029 18.5649 7.12887 18.4143C6.89745 18.2636 6.83198 17.9539 6.98265 17.7224C7.86574 16.366 9.82381 15.5 12.0001 15.5Z" fill="#413773"/>
</svg>
