<svg width="32" height="32" viewBox="0 0 32 32" fill="none" xmlns="http://www.w3.org/2000/svg">
<g id="vuesax/bold/gallery">
<g id="vuesax/bold/gallery_2">
<g id="gallery">
<path id="Vector" d="M3.44007 25.347L3.4134 25.3737C3.0534 24.587 2.82673 23.6937 2.7334 22.707C2.82673 23.6804 3.08007 24.5604 3.44007 25.347Z" fill="#58595B"/>
<path id="Vector_2" d="M12 13.8398C13.7526 13.8398 15.1733 12.4191 15.1733 10.6665C15.1733 8.91391 13.7526 7.49316 12 7.49316C10.2474 7.49316 8.82666 8.91391 8.82666 10.6665C8.82666 12.4191 10.2474 13.8398 12 13.8398Z" fill="#58595B"/>
<path id="Vector_3" d="M21.5867 2.66699H10.4134C5.56008 2.66699 2.66675 5.56033 2.66675 10.4137V21.587C2.66675 23.0403 2.92008 24.307 3.41341 25.3737C4.56008 27.907 7.01341 29.3337 10.4134 29.3337H21.5867C26.4401 29.3337 29.3334 26.4403 29.3334 21.587V18.5337V10.4137C29.3334 5.56033 26.4401 2.66699 21.5867 2.66699ZM27.1601 16.667C26.1201 15.7737 24.4401 15.7737 23.4001 16.667L17.8534 21.427C16.8134 22.3203 15.1334 22.3203 14.0934 21.427L13.6401 21.0537C12.6934 20.227 11.1867 20.147 10.1201 20.867L5.13341 24.2137C4.84008 23.467 4.66675 22.6003 4.66675 21.587V10.4137C4.66675 6.65366 6.65341 4.66699 10.4134 4.66699H21.5867C25.3467 4.66699 27.3334 6.65366 27.3334 10.4137V16.8137L27.1601 16.667Z" fill="#58595B"/>
</g>
</g>
</g>
</svg>
