<svg width="36" height="36" viewBox="0 0 36 36" fill="none" xmlns="http://www.w3.org/2000/svg">
<circle cx="17.8595" cy="17.8595" r="16.8595" stroke="#409587"/>
<path d="M25.9521 18.0512C25.9521 17.4534 25.8984 16.8787 25.7988 16.3269H17.8595V19.5877H22.3962C22.2008 20.6414 21.6069 21.5342 20.7141 22.1319V24.247H23.4385C25.0325 22.7795 25.9521 20.6184 25.9521 18.0512Z" fill="#409587"/>
<path d="M17.8595 26.2893C20.1356 26.2893 22.0438 25.5344 23.4385 24.247L20.7142 22.1319C19.9593 22.6377 18.9937 22.9365 17.8595 22.9365C15.664 22.9365 13.8056 21.4537 13.1427 19.4612H10.3264V21.6453C11.7135 24.4002 14.5643 26.2893 17.8595 26.2893Z" fill="#409587"/>
<path d="M13.1426 19.4611C12.974 18.9553 12.8782 18.4151 12.8782 17.8595C12.8782 17.3039 12.974 16.7636 13.1426 16.2578V14.0737H10.3263C9.75538 15.2117 9.42969 16.4992 9.42969 17.8595C9.42969 19.2197 9.75538 20.5072 10.3263 21.6452L13.1426 19.4611Z" fill="#409587"/>
<path d="M17.8595 12.7824C19.0972 12.7824 20.2084 13.2077 21.082 14.0431L23.4998 11.6253C22.0399 10.265 20.1318 9.42969 17.8595 9.42969C14.5643 9.42969 11.7135 11.3187 10.3264 14.0737L13.1427 16.2578C13.8056 14.2653 15.664 12.7824 17.8595 12.7824Z" fill="#409587"/>
</svg>
