<svg width="60" height="50" viewBox="0 0 60 50" fill="none" xmlns="http://www.w3.org/2000/svg">
<g clip-path="url(#clip0_240_648)">
<path d="M37.98 29.5502C34.72 25.5202 29.75 22.9502 24.2 22.9502C14.37 22.9502 6.40002 30.9902 6.40002 40.9102V48.7802H26.46" stroke="#409587" stroke-width="1.3" stroke-linecap="round" stroke-linejoin="round"/>
<path d="M24.1899 18.6401C28.4701 18.6401 31.9399 15.1703 31.9399 10.8901C31.9399 6.60993 28.4701 3.14014 24.1899 3.14014C19.9097 3.14014 16.4399 6.60993 16.4399 10.8901C16.4399 15.1703 19.9097 18.6401 24.1899 18.6401Z" stroke="#409587" stroke-width="1.3" stroke-miterlimit="10"/>
<path d="M49.1 44.8899H33.62C32.4 44.8899 31.58 43.6299 32.09 42.5099L40.52 23.9299C40.79 23.3299 41.39 22.9399 42.05 22.9399H57.53C58.75 22.9399 59.57 24.1999 59.06 25.3199L50.63 43.8999C50.36 44.4999 49.76 44.8899 49.1 44.8899Z" fill="#409587"/>
<path d="M0.650024 48.73H47.74" stroke="#409587" stroke-width="1.3" stroke-miterlimit="10" stroke-linecap="round"/>
<path d="M26.62 27.3198L28.86 48.7298" stroke="#409587" stroke-width="1.3" stroke-miterlimit="10" stroke-linecap="round"/>
<path d="M21.77 27.3198L19.53 48.7298" stroke="#409587" stroke-width="1.3" stroke-miterlimit="10" stroke-linecap="round"/>
<path d="M20.88 14.3499H14V10.8399C14 5.2099 18.57 0.649902 24.19 0.649902C29.82 0.649902 34.38 5.2099 34.38 10.8399" stroke="#409587" stroke-width="1.3" stroke-linecap="round" stroke-linejoin="round"/>
</g>
<defs>
<clipPath id="clip0_240_648">
<rect width="59.21" height="49.43" fill="white"/>
</clipPath>
</defs>
</svg>
