<svg width="67" height="55" viewBox="0 0 67 55" fill="none" xmlns="http://www.w3.org/2000/svg">
<g clip-path="url(#clip0_240_657)">
<path d="M33.74 3.8501H14.82C14.0689 3.8501 13.46 4.45899 13.46 5.2101V28.9401C13.46 29.6912 14.0689 30.3001 14.82 30.3001H33.74C34.4911 30.3001 35.1 29.6912 35.1 28.9401V5.2101C35.1 4.45899 34.4911 3.8501 33.74 3.8501Z" fill="#409587"/>
<path d="M15.66 28.65C15.66 23.89 19.52 20.04 24.27 20.04C29.02 20.04 32.88 23.9 32.88 28.65" fill="white"/>
<path d="M24.2801 17.8702C26.8868 17.8702 29.0001 15.757 29.0001 13.1502C29.0001 10.5434 26.8868 8.43018 24.2801 8.43018C21.6733 8.43018 19.5601 10.5434 19.5601 13.1502C19.5601 15.757 21.6733 17.8702 24.2801 17.8702Z" fill="white"/>
<path d="M9.77002 14.18L24.09 0.72998L38.78 14.18" stroke="white" stroke-width="1.45" stroke-linejoin="round"/>
<path d="M10.5699 29.6099H37.9799" stroke="#409587" stroke-width="1.3" stroke-linecap="round" stroke-linejoin="round"/>
<path d="M8 53.48H44.38" stroke="#409587" stroke-width="1.3" stroke-linecap="round" stroke-linejoin="round"/>
<path d="M47.9 24.77V13.59C47.9 11.06 45.85 9.02002 43.33 9.02002H37.98" stroke="#409587" stroke-width="1.3" stroke-linecap="round" stroke-linejoin="round"/>
<path d="M10.57 9.02002H5.22002C2.69002 9.02002 0.650024 11.07 0.650024 13.59V39.73C0.650024 42.26 2.70002 44.3 5.22002 44.3H39.74" stroke="#409587" stroke-width="1.3" stroke-linecap="round" stroke-linejoin="round"/>
<path d="M39.74 38.8499H5.85999V13.6699H10.8" stroke="#409587" stroke-width="1.3" stroke-linecap="round" stroke-linejoin="round"/>
<path d="M38.21 13.6699H42.69V30.2999" stroke="#409587" stroke-width="1.3" stroke-linecap="round" stroke-linejoin="round"/>
<path d="M28.18 44.2998H20.37V53.4798H28.18V44.2998Z" stroke="#409587" stroke-width="1.3" stroke-linecap="round" stroke-linejoin="round"/>
<path d="M54.99 28.0197C55.72 27.4297 56.71 27.0197 58.04 26.9297C58.04 26.9297 59.29 28.1497 59.49 30.0497" stroke="#409587" stroke-width="1.3" stroke-linecap="round" stroke-linejoin="round"/>
<path d="M51.8999 49.7297C51.1699 50.3197 50.1799 50.7297 48.8499 50.8197C48.8499 50.8197 47.5999 49.5997 47.3999 47.6997" stroke="#409587" stroke-width="1.3" stroke-linecap="round" stroke-linejoin="round"/>
<path d="M64.2999 40.4199C64.8899 41.1499 65.2999 42.1399 65.3899 43.4699C65.3899 43.4699 64.1699 44.7199 62.2699 44.9199" stroke="#409587" stroke-width="1.3" stroke-linecap="round" stroke-linejoin="round"/>
<path d="M42.59 37.3398C42 36.6098 41.59 35.6198 41.5 34.2898C41.5 34.2898 42.72 33.0398 44.62 32.8398" stroke="#409587" stroke-width="1.3" stroke-linecap="round" stroke-linejoin="round"/>
<path d="M62.22 32.2998C63.15 32.3998 64.14 32.8098 65.14 33.6798C65.14 33.6798 65.16 35.4298 63.96 36.9098" stroke="#409587" stroke-width="1.3" stroke-linecap="round" stroke-linejoin="round"/>
<path d="M44.6799 45.4601C43.7499 45.3601 42.7599 44.9501 41.7499 44.0801C41.7499 44.0801 41.7299 42.3301 42.9299 40.8501" stroke="#409587" stroke-width="1.3" stroke-linecap="round" stroke-linejoin="round"/>
<path d="M60.0299 47.6499C59.9299 48.5799 59.5199 49.5699 58.6499 50.5699C58.6499 50.5699 56.8999 50.5899 55.4199 49.3899" stroke="#409587" stroke-width="1.3" stroke-linecap="round" stroke-linejoin="round"/>
<path d="M46.86 30.11C46.96 29.18 47.37 28.19 48.24 27.19C48.24 27.19 49.99 27.17 51.47 28.37" stroke="#409587" stroke-width="1.3" stroke-linecap="round" stroke-linejoin="round"/>
<path d="M50.5799 32.0899C50.3699 30.3099 50.7699 28.1199 53.4499 26.8799C53.4499 26.8799 56.6699 28.2699 56.2399 31.9799" stroke="#409587" stroke-width="1.3" stroke-linecap="round" stroke-linejoin="round"/>
<path d="M56.2999 45.6201C56.5299 47.4101 56.1499 49.6301 53.4399 50.8901C53.4399 50.8901 50.1799 49.4801 50.6599 45.7101" stroke="#409587" stroke-width="1.3" stroke-linecap="round" stroke-linejoin="round"/>
<path d="M60.24 36.0097C62.02 35.7997 64.21 36.1997 65.45 38.8797C65.45 38.8797 64.06 42.0997 60.35 41.6697" stroke="#409587" stroke-width="1.3" stroke-linecap="round" stroke-linejoin="round"/>
<path d="M46.6499 41.7498C44.8699 41.9598 42.6799 41.5598 41.4399 38.8798C41.4399 38.8798 42.8299 35.6598 46.5399 36.0898" stroke="#409587" stroke-width="1.3" stroke-linecap="round" stroke-linejoin="round"/>
<path d="M54.83 34.6398C54.83 34.6398 56.72 28.4798 61.93 30.3898C61.93 30.3898 63.89 35.3198 57.53 37.3698" stroke="#409587" stroke-width="1.3" stroke-linecap="round" stroke-linejoin="round"/>
<path d="M52.0599 43.1099C52.0599 43.1099 50.1699 49.2699 44.9599 47.3599C44.9599 47.3599 42.9999 42.4299 49.3599 40.3799" stroke="#409587" stroke-width="1.3" stroke-linecap="round" stroke-linejoin="round"/>
<path d="M57.68 40.27C57.68 40.27 63.84 42.16 61.93 47.37C61.93 47.37 57 49.33 54.95 42.97" stroke="#409587" stroke-width="1.3" stroke-linecap="round" stroke-linejoin="round"/>
<path d="M49.21 37.49C49.21 37.49 43.05 35.6 44.96 30.39C44.96 30.39 49.89 28.43 51.94 34.79" stroke="#409587" stroke-width="1.3" stroke-linecap="round" stroke-linejoin="round"/>
<path d="M53.4499 43.2001C55.8358 43.2001 57.7699 41.2659 57.7699 38.8801C57.7699 36.4942 55.8358 34.5601 53.4499 34.5601C51.064 34.5601 49.1299 36.4942 49.1299 38.8801C49.1299 41.2659 51.064 43.2001 53.4499 43.2001Z" stroke="#409587" stroke-width="1.3" stroke-linecap="round" stroke-linejoin="round"/>
</g>
<defs>
<clipPath id="clip0_240_657">
<rect width="66.1" height="54.13" fill="white"/>
</clipPath>
</defs>
</svg>
