<svg width="60" height="52" viewBox="0 0 60 52" fill="none" xmlns="http://www.w3.org/2000/svg">
<g clip-path="url(#clip0_240_640)">
<path d="M40.74 16.6099V2.5999C40.74 1.5199 39.87 0.649902 38.79 0.649902H2.60002C1.52002 0.649902 0.650024 1.5199 0.650024 2.5999V48.8299C0.650024 49.9099 1.52002 50.7799 2.60002 50.7799H38.78C39.86 50.7799 40.73 49.9099 40.73 48.8299V32.0199" stroke="#409587" stroke-width="1.3" stroke-linecap="round" stroke-linejoin="round"/>
<path d="M7.82996 9.74023H33.56" stroke="#409587" stroke-width="1.3" stroke-linecap="round" stroke-linejoin="round"/>
<path d="M7.82996 18.9302H33.56" stroke="#409587" stroke-width="1.3" stroke-linecap="round" stroke-linejoin="round"/>
<path d="M7.82996 28.1304H28.35" stroke="#409587" stroke-width="1.3" stroke-linecap="round" stroke-linejoin="round"/>
<path d="M52.11 7.83008L27.41 32.5301C27.03 32.9101 26.74 33.3801 26.56 33.8901L24.66 39.4901C24.51 39.9301 24.93 40.3601 25.37 40.2201L31.07 38.4501C31.62 38.2801 32.12 37.9801 32.52 37.5701L57.19 12.9101L52.11 7.83008Z" fill="#409587"/>
<path d="M54.9 6.7002C55.06 6.7002 55.21 6.7602 55.32 6.8702L58.15 9.7002C58.26 9.8102 58.32 9.9602 58.32 10.1202C58.32 10.2802 58.26 10.4302 58.15 10.5402L57.19 11.5002L53.52 7.8302L54.48 6.8702C54.59 6.7602 54.74 6.7002 54.9 6.7002ZM54.9 5.7002C54.49 5.7002 54.08 5.8602 53.77 6.1702L52.11 7.8302L57.19 12.9102L58.85 11.2502C59.47 10.6302 59.47 9.6202 58.85 9.0002L56.02 6.1702C55.71 5.8602 55.3 5.7002 54.89 5.7002H54.9Z" fill="#409587"/>
</g>
<defs>
<clipPath id="clip0_240_640">
<rect width="59.32" height="51.43" fill="white"/>
</clipPath>
</defs>
</svg>
