<svg width="18" height="16" viewBox="0 0 18 16" fill="none" xmlns="http://www.w3.org/2000/svg">
<path fill-rule="evenodd" clip-rule="evenodd" d="M9.50138 2.57733C10.239 2.03127 11.0903 1.75 12.0104 1.75C13.2261 1.75 14.3528 2.21943 15.1704 3.06816C15.9678 3.89611 16.4025 5.01568 16.4025 6.21574C16.4025 7.44805 15.9254 8.56987 14.9411 9.70657C14.3378 10.4034 13.7322 10.9574 12.3532 12.0947L11.2302 13.0138L10.1754 13.885C9.89439 14.1203 9.53362 14.25 9.16011 14.25C8.78637 14.25 8.42562 14.1203 8.14494 13.885L8.00424 13.7675L5.7572 11.9212C4.73011 11.0693 4.1604 10.5578 3.66821 10.0289L3.37916 9.70665C2.39485 8.56979 1.91772 7.44798 1.91772 6.21574C1.91772 5.01573 2.35245 3.89614 3.14997 3.06813C3.9675 2.21941 5.09415 1.75 6.30993 1.75C7.22999 1.75 8.08127 2.03127 8.81902 2.57739C8.89175 2.63124 8.96301 2.6874 9.03277 2.7458L9.16011 2.858L9.28765 2.74568L9.50138 2.57733ZM14.0182 4.0849C13.4983 3.54519 12.7898 3.25 12.0104 3.25C11.4392 3.25 10.9247 3.41999 10.4601 3.76389C10.2174 3.94354 9.99446 4.16637 9.79497 4.43031C9.48213 4.84421 8.83794 4.84417 8.52517 4.43022C8.32589 4.16648 8.1029 3.9436 7.86018 3.76388C7.39562 3.41999 6.88116 3.25 6.30993 3.25C5.53049 3.25 4.82205 3.54517 4.30218 4.08487C3.77802 4.62907 3.48489 5.38401 3.48489 6.21574C3.48489 7.07475 3.82197 7.86729 4.5858 8.7495C5.11934 9.36567 5.69161 9.88771 7.01452 10.9785L8.11336 11.8777L9.1601 12.742L9.42781 12.5189L11.3075 10.9771C12.4899 10.0021 13.0723 9.4817 13.5639 8.94162L13.7345 8.74941C14.4983 7.86734 14.8353 7.07482 14.8353 6.21574C14.8353 5.38393 14.5422 4.62901 14.0182 4.0849Z" fill="#413773"/>
</svg>
