<svg width="24" height="24" viewBox="0 0 24 24" fill="none" xmlns="http://www.w3.org/2000/svg">
<path fill-rule="evenodd" clip-rule="evenodd" d="M19.1136 9.94664C19.1136 5.98467 16.0119 2.75 12.1818 2.75C8.35171 2.75 5.25 5.98467 5.25 9.94664C5.25 10.9489 5.51796 12.0366 6.01488 13.1998C6.58188 14.5271 7.4327 15.9218 8.49204 17.3462C9.1844 18.2771 9.92466 19.1655 10.665 19.9828C10.7947 20.1259 10.9198 20.2618 11.0396 20.39L11.3824 20.7509L11.6618 21.0347C11.9575 21.3256 12.4332 21.3212 12.7235 21.0248L13.0011 20.7328C13.1091 20.6172 13.2231 20.4934 13.3424 20.3618L13.7156 19.944C14.4532 19.1063 15.1908 18.201 15.8807 17.2594C16.7894 16.0191 17.5463 14.8088 18.1014 13.6572C18.756 12.2991 19.1136 11.0575 19.1136 9.94664ZM6.75 9.94664C6.75 6.79934 9.19455 4.25 12.1818 4.25C15.1691 4.25 17.6136 6.79934 17.6136 9.94664C17.6136 10.7977 17.3153 11.8334 16.7502 13.0059C16.2395 14.0654 15.5293 15.201 14.6707 16.3729C14.0095 17.2753 13.2996 18.1466 12.5898 18.9527L12.4071 19.1587L12.178 19.411L11.7767 18.9757C11.0668 18.1921 10.3569 17.34 9.69565 16.451C8.7011 15.1138 7.90882 13.815 7.39428 12.6105C6.97089 11.6194 6.75 10.7228 6.75 9.94664ZM12.1818 6.38846C13.0919 6.38846 13.9494 6.75893 14.5881 7.425C15.8952 8.78732 15.8952 10.9903 14.588 12.3533C13.9449 13.0233 13.0805 13.3884 12.1818 13.3884C11.2829 13.3884 10.418 13.0232 9.77538 12.3531C8.46847 10.9903 8.46847 8.78732 9.77491 7.42561C10.4132 6.75883 11.2708 6.38846 12.1818 6.38846ZM10.8579 8.46347C11.2153 8.0901 11.6822 7.88846 12.1818 7.88846C12.6806 7.88846 13.1479 8.09035 13.5056 8.46335C14.256 9.24547 14.256 10.5324 13.5056 11.3149C13.1469 11.6886 12.6739 11.8884 12.1818 11.8884C11.6896 11.8884 11.2163 11.6885 10.858 11.3149C10.1076 10.5324 10.1076 9.24547 10.8579 8.46347Z" fill="#413773"/>
</svg>
