<svg width="159" height="71" viewBox="0 0 159 71" fill="none" xmlns="http://www.w3.org/2000/svg">
<g clip-path="url(#clip0_3331_14917)">
<path d="M20.9473 41.2288C21.0313 41.0192 21.1896 40.8486 21.3913 40.7501C21.8839 40.5841 22.406 40.5262 22.9225 40.5803H23.7188H24.8519C25.25 40.5803 25.6634 40.5803 26.0615 40.5803H27.118C27.1412 40.6923 27.1412 40.808 27.118 40.92V41.1825C27.118 41.5531 26.9955 41.7693 26.7506 41.831C26.3899 41.885 26.0322 41.9571 25.6787 42.0472C25.4715 42.0932 25.2743 42.177 25.0969 42.2943C24.9744 42.3849 24.879 42.5078 24.8212 42.6494C24.7966 42.808 24.7966 42.9695 24.8212 43.1281C24.8212 43.1281 24.8212 43.6068 24.8212 44.4252C24.8212 45.2436 24.8212 46.2628 24.9744 47.5135C25.1275 48.7643 25.1122 50.0305 25.1734 51.4357C25.2347 52.8408 25.3112 54.1842 25.3725 55.4504C25.4337 56.7166 25.5103 57.813 25.5409 58.7395C25.5715 59.666 25.6328 60.2836 25.6481 60.4535C25.642 60.6431 25.6732 60.832 25.74 61.0094C25.7983 61.172 25.9053 61.3123 26.0462 61.4109C26.2325 61.5392 26.4399 61.6333 26.6587 61.6888C27.0054 61.7896 27.3583 61.867 27.7152 61.9204C27.9602 61.9204 28.0827 62.1366 28.0827 62.569C28.1021 62.7589 28.1021 62.9504 28.0827 63.1403L25.8625 62.8469C25.2193 62.8469 24.4997 62.8469 23.6881 62.8469C22.8766 62.8469 22.1569 62.8469 21.2995 62.8469C20.442 62.8469 19.7683 62.8469 19.1864 62.955C19.1669 62.7651 19.1669 62.5736 19.1864 62.3837C19.1625 62.2064 19.2004 62.0263 19.2936 61.8741C19.3189 61.8349 19.3528 61.802 19.3926 61.778C19.4324 61.7539 19.4771 61.7392 19.5233 61.7351C20.1524 61.6678 20.7617 61.4735 21.3148 61.1638C21.4532 61.0386 21.5611 60.8829 21.6301 60.7088C21.6991 60.5348 21.7275 60.347 21.7129 60.1601C21.7129 60.1601 21.7129 59.7277 21.7129 59.0638C21.7129 58.3998 21.7129 57.5196 21.6057 56.6086C21.4985 55.6975 21.6057 54.5703 21.4832 53.5203C21.3607 52.4702 21.3607 51.3121 21.2995 50.3084C21.2382 49.3047 21.2076 48.44 21.177 47.7142C21.1464 46.9885 21.177 46.5407 21.0851 46.3863L14.1488 62.6616C14.0619 62.8223 13.9647 62.977 13.8578 63.1249C13.819 63.1731 13.77 63.2121 13.7144 63.2388C13.6588 63.2655 13.5979 63.2793 13.5363 63.2793H13.1688H12.9697L5.11466 44.3017C5.11466 44.5951 5.11466 45.1973 5.11466 46.0929C5.11466 46.9885 5.02279 48.0231 4.97686 49.1812C4.93092 50.3393 4.85436 51.5592 4.80842 52.8408C4.76249 54.1225 4.70124 55.3269 4.65531 56.4078C4.60937 57.4887 4.56343 58.4152 4.53281 59.1564C4.50218 59.8976 4.53281 60.2991 4.53281 60.3763C4.50768 60.5504 4.50768 60.7272 4.53281 60.9013C4.58114 61.0565 4.67779 61.1919 4.80842 61.2873C4.98828 61.4301 5.19757 61.5303 5.42091 61.5807C5.68121 61.5807 6.0487 61.7506 6.52338 61.8432C6.99805 61.9359 6.90618 62.1057 6.90618 62.4918C6.90618 62.4918 6.90618 62.6462 6.90618 62.7388C6.91344 62.8468 6.91344 62.9551 6.90618 63.0631L5.22184 62.955C4.70124 62.955 4.18063 62.955 3.69064 62.955C3.20066 62.955 2.68005 62.955 2.00632 62.955L0.168885 63.0631C0.144226 62.9617 0.144226 62.8557 0.168885 62.7543V62.4918C0.168885 62.2293 0.168885 62.0748 0.276069 61.9976C0.305387 61.954 0.343955 61.9176 0.388977 61.8909C0.433998 61.8642 0.484342 61.8479 0.53637 61.8432C1.07342 61.7434 1.59065 61.5556 2.06757 61.2873C2.21985 61.1867 2.3473 61.0523 2.44019 60.8944C2.53307 60.7365 2.58892 60.5593 2.60349 60.3763C2.60349 60.191 2.60349 59.6351 2.60349 58.724C2.60349 57.813 2.71068 56.7012 2.78724 55.435C2.8638 54.1688 2.90973 52.8408 2.98629 51.4202C3.06285 49.9996 3.10879 48.6716 3.17004 47.4517C3.23129 46.2319 3.27722 45.2127 3.30784 44.3634C3.33847 43.5142 3.30784 43.1127 3.30784 43.0664C3.32166 42.9074 3.2952 42.7474 3.23092 42.6016C3.16663 42.4557 3.06665 42.3287 2.94036 42.2325C2.43086 41.9822 1.88128 41.8254 1.31729 41.7693C1.05698 41.7693 0.934486 41.5377 0.934486 41.1207V40.8582C0.91137 40.7462 0.91137 40.6306 0.934486 40.5185H2.14414C2.66475 40.5185 3.20067 40.5185 3.67534 40.5185H5.20654H6.21713C6.53327 40.4987 6.85033 40.4987 7.16648 40.5185C7.34868 40.542 7.52818 40.5834 7.70239 40.6421C7.81957 40.6728 7.92245 40.7438 7.99333 40.8428C8.05016 40.9321 8.1013 41.0249 8.14645 41.1207L14.5162 56.6703L20.9473 41.2288Z" fill="white"/>
<path d="M42.9044 59.666C43.0589 59.529 43.2512 59.4428 43.4556 59.4189C43.5948 59.4341 43.7272 59.4875 43.8384 59.5733C44.0351 59.7361 44.1922 59.9421 44.2978 60.1755C43.4734 61.1776 42.4234 61.9665 41.2354 62.4763C39.9522 62.9991 38.5765 63.2513 37.193 63.2175C36.316 63.2409 35.4412 63.1156 34.6053 62.8469C33.7623 62.5674 32.9856 62.1153 32.3238 61.519C31.6211 60.8874 31.0577 60.1141 30.6701 59.2491C30.2359 58.2147 30.027 57.0983 30.0576 55.9755C30.0347 54.8023 30.281 53.6396 30.7773 52.5783C31.2312 51.6105 31.8595 50.7361 32.63 49.9996C33.34 49.3376 34.1655 48.814 35.0647 48.4555C35.8613 48.1012 36.7205 47.9121 37.5911 47.8996C38.5053 47.8327 39.423 47.968 40.2799 48.2961C41.1368 48.6242 41.9124 49.137 42.5522 49.7989C43.7286 51.2718 44.328 53.129 44.2365 55.0181C44.2418 55.0517 44.2391 55.0862 44.2286 55.1185C44.2181 55.1509 44.2002 55.1804 44.1764 55.2044C44.1525 55.2285 44.1233 55.2466 44.0912 55.2571C44.0591 55.2677 44.0249 55.2704 43.9916 55.2651L34.3144 55.6666C34.2215 57.1276 34.6387 58.5753 35.4934 59.7586C35.9404 60.2458 36.4905 60.6252 37.1028 60.8685C37.7152 61.1117 38.3741 61.2127 39.0305 61.1638C39.7334 61.1667 40.4319 61.0519 41.0976 60.8241C41.7761 60.5748 42.3926 60.1796 42.9044 59.666ZM37.1318 49.2584C36.7146 49.253 36.3029 49.3551 35.9358 49.555C35.5687 49.755 35.2583 50.0462 35.034 50.4011C34.4258 51.4962 34.149 52.747 34.2378 53.9989L39.4898 53.7673C39.8267 53.7673 39.9951 53.5975 39.9951 53.3195C39.9892 52.8566 39.9327 52.3957 39.8267 51.9452C39.7208 51.4834 39.5452 51.0408 39.3061 50.6327C39.0771 50.2478 38.7753 49.9121 38.418 49.6444C38.0417 49.3793 37.5906 49.2438 37.1318 49.2584Z" fill="white"/>
<path d="M61.615 51.0959C62.3201 50.1602 63.1616 49.3377 64.1109 48.6561C64.8802 48.0874 65.8061 47.7744 66.7598 47.7605C69.5773 47.7605 70.986 49.3046 70.986 52.3929V60.7159C70.9784 60.8642 71.0134 61.0115 71.0867 61.1402C71.16 61.2689 71.2686 61.3736 71.3994 61.4417C71.8852 61.666 72.4011 61.8169 72.9306 61.8895C73.0375 61.8974 73.1372 61.9469 73.2087 62.0276C73.2801 62.1083 73.3176 62.2138 73.3134 62.3218V62.6615C73.3137 62.7693 73.2874 62.8754 73.2368 62.9704L71.4606 62.8468C70.8788 62.8468 70.1438 62.8468 69.271 62.8468C68.3982 62.8468 67.847 62.8468 67.2192 62.8468L65.3818 62.9549C65.3592 62.7393 65.3592 62.522 65.3818 62.3064C65.3768 62.2465 65.3853 62.1863 65.4065 62.1302C65.4277 62.0741 65.4611 62.0235 65.5042 61.9821C65.5798 61.9334 65.6625 61.8969 65.7492 61.874C66.1761 61.8181 66.5874 61.6763 66.9589 61.4571C67.0612 61.3615 67.1405 61.2437 67.1909 61.1126C67.2413 60.9815 67.2615 60.8406 67.2498 60.7005V54.0297C67.3133 53.0853 67.1776 52.138 66.8517 51.2503C66.7083 50.9979 66.4971 50.7916 66.2424 50.655C65.9878 50.5184 65.7 50.4571 65.4124 50.4782C64.9357 50.4702 64.4622 50.559 64.0203 50.7394C63.5783 50.9198 63.1769 51.1881 62.84 51.5282C62.4695 51.946 62.1863 52.4348 62.0074 52.9654C61.8285 53.496 61.7576 54.0576 61.7987 54.6165V60.7931C61.7866 60.9347 61.8081 61.0771 61.8613 61.2087C61.9146 61.3403 61.9981 61.4572 62.105 61.5498C62.4674 61.7648 62.8678 61.9064 63.284 61.9667C63.3363 61.9706 63.3874 61.9849 63.4342 62.0087C63.4811 62.0326 63.5228 62.0656 63.5569 62.1058C63.5911 62.146 63.617 62.1926 63.6333 62.2429C63.6495 62.2932 63.6557 62.3463 63.6515 62.399V62.7387C63.6762 62.8402 63.6762 62.9461 63.6515 63.0476L61.8906 62.8468C61.3547 62.8468 60.7116 62.8468 59.9919 62.8468C59.2723 62.8468 58.5679 62.8468 57.9401 62.8468L56.1027 62.9549C56.0801 62.7393 56.0801 62.522 56.1027 62.3064C56.0946 62.2477 56.1002 62.1879 56.1187 62.1316C56.1373 62.0754 56.1685 62.0242 56.2099 61.9821C56.2894 61.9305 56.3776 61.8939 56.4702 61.874C56.8927 61.8203 57.2995 61.6783 57.6645 61.4571C57.7696 61.3638 57.851 61.2463 57.9016 61.1146C57.9522 60.9829 57.9707 60.8409 57.9554 60.7005V54.0297C58.0219 53.0865 57.8915 52.1396 57.5726 51.2503C57.4205 50.9853 57.1938 50.7719 56.9211 50.6371C56.6485 50.5024 56.3423 50.4525 56.0414 50.4936C55.5642 50.482 55.0898 50.5692 54.6473 50.7498C54.2049 50.9304 53.8038 51.2006 53.469 51.5437C53.0936 51.9587 52.8062 52.4467 52.6245 52.9778C52.4428 53.5088 52.3707 54.0718 52.4125 54.632V60.8086C52.4004 60.9501 52.4218 61.0926 52.475 61.2242C52.5283 61.3557 52.6118 61.4726 52.7187 61.5652C53.0856 61.7825 53.4915 61.9242 53.9131 61.9821C53.9654 61.986 54.0165 62.0003 54.0633 62.0242C54.1101 62.0481 54.1518 62.081 54.186 62.1212C54.2201 62.1614 54.2461 62.208 54.2623 62.2583C54.2785 62.3086 54.2847 62.3617 54.2806 62.4145V62.7542C54.2809 62.8619 54.2546 62.9681 54.204 63.063L52.4125 62.8468C51.7847 62.8468 51.111 62.8468 50.3913 62.8468C49.6716 62.8468 48.7682 62.8468 48.1711 62.8468L46.4255 62.9549C46.4029 62.7393 46.4029 62.522 46.4255 62.3064C46.4175 62.2477 46.4229 62.1879 46.4415 62.1316C46.4601 62.0754 46.4913 62.0242 46.5327 61.9821C46.6122 61.9305 46.7004 61.8939 46.793 61.874C47.3224 61.8015 47.8384 61.6506 48.3242 61.4262C48.4574 61.353 48.5671 61.2428 48.6404 61.1087C48.7136 60.9747 48.7474 60.8223 48.7376 60.6696V51.6826C48.7666 51.1408 48.6332 50.6028 48.3548 50.1385C48.1579 49.9295 47.9202 49.7639 47.6566 49.6523C47.3931 49.5407 47.1094 49.4854 46.8236 49.4899C46.7591 49.4841 46.6965 49.4655 46.6392 49.4351C46.5819 49.4048 46.5312 49.3633 46.4899 49.313C46.4486 49.2628 46.4176 49.2048 46.3987 49.1424C46.3797 49.08 46.3732 49.0144 46.3796 48.9495V48.687C46.3579 48.5904 46.3579 48.4902 46.3796 48.3936H46.8542H47.6811H48.5692H49.3807C49.9319 48.3936 50.4832 48.2392 51.0038 48.1311C51.3442 48.039 51.6931 47.9821 52.045 47.9612C52.4125 47.9612 52.5962 48.1311 52.5962 48.4708C52.5821 48.8022 52.5462 49.1324 52.489 49.4591C52.4118 50.0218 52.376 50.5895 52.3819 51.1576C53.0437 50.256 53.8512 49.473 54.7705 48.8414C55.5509 48.285 56.4793 47.9784 57.4348 47.9612C58.4004 47.8239 59.3808 48.076 60.1633 48.6628C60.9458 49.2496 61.4674 50.1238 61.615 51.0959Z" fill="white"/>
<path d="M75.1508 55.4968C75.1401 54.4372 75.3433 53.3864 75.748 52.4085C76.1266 51.479 76.6902 50.6377 77.4039 49.9366C78.1176 49.2354 78.9663 48.6893 79.8975 48.3319C80.9084 47.9399 81.9842 47.746 83.0671 47.7606C84.1752 47.7422 85.2768 47.9361 86.3133 48.3319C87.2512 48.6941 88.1058 49.2458 88.8244 49.9533C89.528 50.6466 90.0762 51.4837 90.4322 52.4085C90.8123 53.3927 91.0045 54.4405 90.9987 55.4968C91.0094 56.5564 90.8062 57.6071 90.4016 58.5851C90.021 59.5035 89.4582 60.3337 88.7479 61.0248C88.0131 61.7001 87.155 62.2246 86.2214 62.569C85.2061 62.966 84.1254 63.1651 83.0365 63.1558C81.9274 63.1692 80.8258 62.9701 79.7903 62.569C78.8659 62.2339 78.0211 61.708 77.3098 61.0248C76.6353 60.329 76.1136 59.4977 75.7786 58.5851C75.3702 57.6072 75.1568 56.5578 75.1508 55.4968ZM79.4229 54.8174C79.3415 56.5505 79.6943 58.2764 80.4488 59.8358C80.7144 60.4027 81.1351 60.8812 81.6614 61.215C82.1877 61.5488 82.7976 61.7239 83.4193 61.7197C83.9374 61.7557 84.4546 61.6373 84.9065 61.3792C85.3584 61.1211 85.7251 60.7348 85.9611 60.2682C86.5326 58.9842 86.795 57.582 86.7267 56.1762C86.802 54.4451 86.4384 52.7231 85.6702 51.1732C85.4174 50.6006 85.0048 50.1146 84.4827 49.7746C83.9607 49.4346 83.3517 49.2552 82.7302 49.2584C82.1999 49.2295 81.6732 49.361 81.2176 49.6362C80.7619 49.9113 80.3982 50.3175 80.1731 50.8026C79.6212 52.0652 79.3645 53.4388 79.4229 54.8174Z" fill="white"/>
<path d="M103.984 47.7915C104.26 47.761 104.54 47.7908 104.804 47.8787C105.068 47.9666 105.311 48.1106 105.515 48.3011C105.68 48.472 105.809 48.6752 105.893 48.8984C105.978 49.1215 106.016 49.3596 106.005 49.5981C106.013 49.7363 105.987 49.8745 105.928 49.9996C105.836 50.1545 105.71 50.2864 105.561 50.3857C105.306 50.5586 105.04 50.7134 104.765 50.8489L103.432 51.4666C103.151 51.1612 102.813 50.9146 102.437 50.7408C101.896 50.5257 101.294 50.5257 100.753 50.7408C100.472 50.8429 100.228 51.0254 100.049 51.2658C99.8226 51.5768 99.6564 51.9277 99.5585 52.3004C99.4219 52.8504 99.3601 53.4167 99.3748 53.9835V60.33C99.364 60.5326 99.41 60.7342 99.5074 60.9117C99.6049 61.0892 99.75 61.2354 99.926 61.3337C100.6 61.6457 101.318 61.8489 102.054 61.9359C102.107 61.9398 102.158 61.9541 102.205 61.978C102.251 62.0018 102.293 62.0348 102.327 62.075C102.361 62.1152 102.387 62.1618 102.404 62.2121C102.42 62.2624 102.426 62.3155 102.422 62.3683C102.457 62.583 102.457 62.8021 102.422 63.0168H101.335H99.9873H98.5786H97.3383C96.4808 63.0168 95.8071 63.0168 95.1487 63.0168L93.4184 63.1249C93.3556 62.9149 93.3297 62.6954 93.3418 62.4764C93.3376 62.3683 93.3751 62.2628 93.4466 62.1821C93.518 62.1014 93.6177 62.0519 93.7246 62.044C94.2541 61.9714 94.77 61.8205 95.2559 61.5962C95.3863 61.5208 95.4929 61.4098 95.5633 61.2759C95.6338 61.142 95.6652 60.9907 95.654 60.8395V51.5129C95.6733 51.0738 95.5783 50.6372 95.3783 50.2467C95.1742 49.9173 94.6383 49.7011 93.7706 49.5981C93.7056 49.5983 93.6412 49.585 93.5816 49.559C93.5219 49.533 93.4681 49.495 93.4236 49.4472C93.3791 49.3994 93.3448 49.3429 93.3229 49.2813C93.3009 49.2196 93.2917 49.154 93.2959 49.0886V48.8106C93.2712 48.7197 93.2712 48.6237 93.2959 48.5327H93.8778H94.6893H95.5621L96.343 48.4246C96.8483 48.4246 97.3536 48.2702 97.8742 48.1775C98.2213 48.0951 98.5748 48.0435 98.9307 48.0231C99.2523 48.0231 99.4054 48.193 99.4054 48.5327V50.3702C100.058 49.622 100.823 48.9812 101.672 48.4709C102.377 48.0604 103.17 47.8273 103.984 47.7915Z" fill="white"/>
<path d="M115.56 57.8284C116.096 56.485 116.555 55.3578 116.938 54.4776C117.321 53.5975 117.597 52.9335 117.826 52.3004C118.014 51.8567 118.177 51.4031 118.316 50.9415C118.411 50.6736 118.463 50.3921 118.469 50.1077C118.469 49.6599 118.117 49.3356 117.382 49.1503C117.261 49.1205 117.147 49.0681 117.045 48.9959C117.045 48.9959 116.953 48.826 116.953 48.6407C116.941 48.5537 116.941 48.4653 116.953 48.3782C116.953 48.2856 116.953 48.1775 116.953 48.054C117.857 48.054 118.837 48.162 119.909 48.162C120.981 48.162 121.716 48.162 122.512 48.054C122.553 48.1788 122.579 48.3085 122.588 48.44C122.593 48.5274 122.593 48.6151 122.588 48.7025C122.588 48.965 122.45 49.1194 122.16 49.1812L121.394 49.3819C121.211 49.4252 121.042 49.5157 120.904 49.6444C120.758 49.784 120.634 49.9455 120.536 50.1231C120.382 50.382 120.244 50.6501 120.123 50.9261L113.018 67.6801C112.605 68.7644 111.831 69.6703 110.829 70.2434C109.886 70.748 108.833 71.008 107.766 71C107.684 71.008 107.602 70.9969 107.525 70.9674C107.448 70.938 107.378 70.891 107.322 70.8302C107.234 70.7211 107.185 70.5849 107.184 70.4441C107.169 69.7586 107.305 69.0783 107.583 68.4522C107.858 67.8963 108.18 67.6183 108.532 67.6183C108.715 67.5929 108.9 67.5929 109.083 67.6183C109.303 67.6752 109.53 67.7012 109.757 67.6955C110.23 67.7273 110.699 67.5967 111.089 67.3249C111.445 67.0177 111.719 66.6247 111.885 66.1823L113.416 62.5072L108.226 50.8643C108.072 50.5246 107.935 50.2621 107.828 50.0614C107.725 49.8917 107.602 49.736 107.46 49.5981C107.321 49.4828 107.159 49.3986 106.985 49.351L106.266 49.1657C106.134 49.1395 106.018 49.0648 105.938 48.9562C105.859 48.8476 105.823 48.7131 105.837 48.579C105.846 48.3806 105.877 48.1839 105.929 47.9922C106.48 47.9922 107.047 47.9922 107.659 48.0848H111.992L113.753 47.9922C113.805 48.1839 113.836 48.3806 113.845 48.579C113.851 48.6411 113.845 48.7038 113.827 48.7634C113.809 48.823 113.778 48.8783 113.738 48.9259C113.698 48.9735 113.649 49.0124 113.594 49.0404C113.539 49.0683 113.478 49.0847 113.416 49.0885C113.052 49.1064 112.696 49.2067 112.375 49.3819C112.308 49.4386 112.254 49.5094 112.217 49.5895C112.18 49.6695 112.161 49.7568 112.161 49.8452C112.192 50.0873 112.248 50.3254 112.329 50.5555C112.538 51.1893 112.789 51.8083 113.08 52.4085L115.56 57.8284Z" fill="white"/>
<path d="M123.001 55.4968C122.985 54.4382 123.183 53.3875 123.583 52.4085C123.967 51.4912 124.523 50.6575 125.221 49.9533C125.942 49.2492 126.796 48.6979 127.732 48.3319C128.749 47.9402 129.829 47.7463 130.917 47.7606C132.025 47.7422 133.127 47.9361 134.163 48.3319C135.097 48.6944 135.946 49.2462 136.659 49.9533C137.335 50.654 137.857 51.4906 138.19 52.4085C138.578 53.3906 138.77 54.4399 138.757 55.4968C138.768 56.5564 138.564 57.6071 138.16 58.5851C137.779 59.5035 137.216 60.3337 136.506 61.0248C135.773 61.7023 134.914 62.2271 133.98 62.569C132.97 62.9663 131.894 63.1654 130.81 63.1558C129.696 63.1693 128.589 62.9702 127.549 62.569C126.626 62.2303 125.782 61.7048 125.068 61.0248C124.394 60.329 123.872 59.4977 123.537 58.5851C123.167 57.5988 122.985 56.551 123.001 55.4968ZM127.258 54.8174C127.184 56.5499 127.536 58.2739 128.284 59.8358C128.549 60.4027 128.97 60.8812 129.496 61.215C130.022 61.5488 130.632 61.7239 131.254 61.7197C131.774 61.7548 132.293 61.6361 132.747 61.3783C133.201 61.1205 133.571 60.7347 133.811 60.2682C134.376 58.9825 134.633 57.5807 134.561 56.1762C134.641 54.4465 134.283 52.7248 133.52 51.1732C133.264 50.603 132.851 50.1191 132.33 49.7796C131.808 49.44 131.201 49.2591 130.58 49.2584C130.05 49.2274 129.522 49.358 129.066 49.6334C128.61 49.9088 128.247 50.3162 128.023 50.8026C127.466 52.0637 127.204 53.4376 127.258 54.8174Z" fill="#409587"/>
<path d="M156.734 60.716C156.729 60.8659 156.765 61.0143 156.838 61.145C156.911 61.2757 157.018 61.3837 157.148 61.4572C157.628 61.6924 158.147 61.8389 158.679 61.8896C158.767 61.9095 158.85 61.9462 158.924 61.9977C158.967 62.039 159 62.0896 159.022 62.1458C159.043 62.2019 159.051 62.2621 159.046 62.3219C159.055 62.4453 159.055 62.5691 159.046 62.6925V62.9705L157.178 62.8469C156.581 62.8469 155.861 62.8469 154.973 62.8469C154.085 62.8469 153.58 62.8469 152.937 62.8469L151.115 62.955C151.08 62.7403 151.08 62.5212 151.115 62.3065C151.111 62.2537 151.117 62.2007 151.133 62.1503C151.149 62.1 151.175 62.0534 151.209 62.0132C151.243 61.973 151.285 61.9401 151.332 61.9162C151.379 61.8923 151.43 61.878 151.482 61.8741C151.898 61.8138 152.299 61.6722 152.661 61.4572C152.771 61.3672 152.857 61.2507 152.911 61.1185C152.964 60.9862 152.984 60.8425 152.968 60.7006V54.0298C153.051 53.0759 152.882 52.1167 152.478 51.2504C152.311 50.9988 152.082 50.7953 151.813 50.66C151.545 50.5246 151.246 50.462 150.946 50.4783C150.465 50.4713 149.987 50.5606 149.541 50.7408C149.094 50.921 148.687 51.1887 148.343 51.5283C147.962 51.94 147.67 52.4271 147.485 52.9588C147.301 53.4905 147.228 54.055 147.271 54.6166V60.7932C147.256 60.9336 147.275 61.0757 147.325 61.2074C147.376 61.3391 147.457 61.4565 147.562 61.5499C147.931 61.7643 148.336 61.9058 148.757 61.9668C148.809 61.9707 148.86 61.985 148.907 62.0088C148.954 62.0327 148.995 62.0657 149.03 62.1059C149.064 62.1461 149.09 62.1927 149.106 62.243C149.122 62.2933 149.128 62.3464 149.124 62.3991C149.159 62.6139 149.159 62.8329 149.124 63.0477L147.287 62.9396C146.659 62.9396 145.985 62.9396 145.266 62.9396C144.546 62.9396 143.643 62.9396 143.045 62.9396L141.3 63.0477V62.7697C141.291 62.6463 141.291 62.5225 141.3 62.3991C141.292 62.3404 141.297 62.2806 141.316 62.2244C141.334 62.1682 141.366 62.117 141.407 62.0749C141.488 62.0258 141.576 61.9893 141.667 61.9668C142.197 61.8967 142.714 61.7457 143.198 61.519C143.332 61.4457 143.441 61.3356 143.515 61.2015C143.588 61.0674 143.622 60.9151 143.612 60.7623V51.6827C143.641 51.1409 143.508 50.6029 143.229 50.1386C143.032 49.9296 142.794 49.764 142.531 49.6524C142.267 49.5408 141.984 49.4855 141.698 49.49C141.569 49.4745 141.451 49.4098 141.369 49.3092C141.286 49.2086 141.245 49.0799 141.254 48.9496V48.6871C141.233 48.5904 141.233 48.4904 141.254 48.3937H141.836H142.663H143.551H144.362C144.929 48.3937 145.465 48.2393 145.985 48.1312C146.326 48.0402 146.675 47.9833 147.026 47.9613C147.394 47.9613 147.578 48.1312 147.578 48.4709C147.571 48.8029 147.535 49.1336 147.471 49.4592C147.4 50.0224 147.369 50.5901 147.379 51.1577C148.04 50.2561 148.848 49.4731 149.767 48.8415C150.575 48.2816 151.528 47.9753 152.508 47.9613C153.615 47.8994 154.705 48.2512 155.571 48.9496C155.992 49.4171 156.313 49.9665 156.516 50.5639C156.719 51.1614 156.798 51.7944 156.75 52.4239L156.734 60.716Z" fill="#409587"/>
<path d="M85.2568 10.176C85.7434 9.02277 86.2955 7.89882 86.9105 6.80975C87.5584 5.48513 88.6403 4.4269 89.9729 3.8141C90.2944 -0.416867 86.7114 -1.14262 84.9199 3.33541C85.3114 4.31594 85.499 5.36708 85.4712 6.42371C85.4627 7.67733 85.3911 8.9297 85.2568 10.176Z" fill="white"/>
<path d="M77.6788 6.80972C78.2877 7.90203 78.8397 9.02564 79.3325 10.176C79.193 8.92993 79.1164 7.67755 79.1028 6.42368C79.0107 4.94839 79.4273 3.48638 80.2818 2.28536C78.475 -1.54413 74.9839 -0.370578 75.6882 4.41629C76.5102 5.06512 77.1883 5.88045 77.6788 6.80972Z" fill="white"/>
<path d="M71.1097 11.0715C72.0896 11.6583 73.1462 12.3686 74.1721 13.1561C73.4065 12.0907 72.6409 11.0252 72.1203 10.0678C71.3052 8.83571 70.9374 7.35741 71.079 5.88318C67.6185 3.47431 65.1839 6.23834 68.1391 10.0369C69.1864 10.1845 70.1953 10.5359 71.1097 11.0715Z" fill="white"/>
<path d="M64.4638 18.6534C65.4361 18.2586 66.4785 18.0694 67.5262 18.0975C68.7696 18.1111 70.0115 18.1885 71.2471 18.3291C70.1064 17.8321 68.9922 17.2755 67.909 16.6614C66.5985 16.0039 65.5503 14.9141 64.9385 13.5731C60.743 13.218 60.0234 16.8467 64.4638 18.6534Z" fill="white"/>
<path d="M67.9088 25.9726C68.9873 25.3314 70.1018 24.7539 71.2468 24.2431C70.0112 24.3838 68.7693 24.4611 67.526 24.4748C66.063 24.5676 64.6133 24.1475 63.4223 23.2858C59.625 25.1079 60.7887 28.6131 65.5354 27.9182C66.1847 27.1113 66.9928 26.4488 67.9088 25.9726Z" fill="white"/>
<path d="M71.1088 31.547C70.0587 32.2108 68.8558 32.5885 67.6177 32.6434H67.5258C67.3322 32.6593 67.1376 32.6593 66.9439 32.6434C64.5706 36.1331 67.3268 38.5729 71.0935 35.6081C71.2346 34.5558 71.5947 33.5455 72.15 32.6434C72.7166 31.6551 73.4362 30.5896 74.2018 29.5551C73.2072 30.2747 72.1747 30.9397 71.1088 31.547Z" fill="white"/>
<path d="M79.332 32.458C78.796 33.6779 78.2448 34.8206 77.6783 35.8243C77.0264 37.1423 75.9453 38.1945 74.6159 38.8045C74.279 43.0354 77.8773 43.7766 79.6688 39.2986C79.2774 38.3181 79.0898 37.2669 79.1176 36.2103C79.125 34.9566 79.1966 33.7042 79.332 32.458Z" fill="white"/>
<path d="M86.9116 35.8243C86.2997 34.7336 85.7476 33.6098 85.2579 32.458C85.3984 33.704 85.4751 34.9564 85.4876 36.2103C85.5771 37.6853 85.1608 39.1465 84.3086 40.3486C86.1154 44.1781 89.5912 43.0046 88.9022 38.2177C88.0839 37.565 87.4065 36.7505 86.9116 35.8243Z" fill="white"/>
<path d="M93.4804 31.547C92.4252 30.9049 91.4031 30.2091 90.418 29.4624C91.1585 30.4558 91.8484 31.4866 92.4851 32.5507C93.2983 33.7832 93.661 35.2627 93.511 36.7353C96.9868 39.1288 99.4214 36.3648 96.4662 32.5661C95.4116 32.439 94.3948 32.0919 93.4804 31.547Z" fill="white"/>
<path d="M100.125 23.9806C99.1519 24.3724 98.1101 24.5615 97.0626 24.5365C95.8192 24.5239 94.5773 24.4465 93.3418 24.3049C94.4839 24.7987 95.5983 25.3554 96.6798 25.9725C97.9929 26.6215 99.0387 27.7143 99.635 29.0608C103.831 29.4006 104.565 25.7872 100.125 23.9806Z" fill="white"/>
<path d="M96.6798 16.6614C95.6845 17.2327 94.5514 17.7886 93.3418 18.329C94.5773 18.1873 95.8192 18.11 97.0626 18.0974C98.5252 18.0071 99.9742 18.427 101.166 19.2864C104.964 17.4643 103.8 13.9437 99.0532 14.654C98.4059 15.4792 97.5983 16.1623 96.6798 16.6614Z" fill="white"/>
<path d="M93.4794 11.0715C94.7047 10.2585 96.1692 9.89335 97.629 10.037C100.002 6.54718 97.2615 4.09198 93.4948 7.05675C93.345 8.11171 92.9856 9.12534 92.4382 10.037C91.8052 11.1034 91.1152 12.1344 90.3711 13.1253C91.4429 12.3686 92.4995 11.6583 93.4794 11.0715Z" fill="white"/>
<path d="M82.2097 16.3217H82.4547C82.5925 15.6114 82.7304 14.7775 82.8682 14.0363C83.1438 12.4922 83.3888 10.7319 83.5419 9.12594C83.5419 8.18401 83.6797 7.25752 83.6797 6.42368C83.7178 5.47769 83.5176 4.53741 83.0978 3.69053C83.0217 3.52945 82.9081 3.38924 82.7669 3.28173C82.6256 3.17422 82.4608 3.10259 82.2863 3.07288C81.8882 3.07288 81.337 3.62877 81.0767 4.81776C80.9632 5.32447 80.9067 5.84245 80.9082 6.36191C81.0273 9.69113 81.4372 13.0033 82.1332 16.2599L82.2097 16.3217Z" fill="white"/>
<path d="M73.7122 9.11043C75.467 11.938 77.4653 14.6042 79.6839 17.0782H79.7605L79.9595 16.9547C79.7146 16.2598 79.4696 15.5187 79.1786 14.762C78.6274 13.2179 77.9996 11.6737 77.3259 10.1296C76.958 9.30637 76.5491 8.50238 76.1009 7.72069C75.1669 6.06845 74.141 5.43535 73.5438 5.43535C73.4486 5.40908 73.3481 5.40908 73.2529 5.43535C72.9007 5.63609 72.7017 6.40817 73.0538 7.56628C73.2176 8.10338 73.4383 8.62109 73.7122 9.11043Z" fill="white"/>
<path d="M67.5105 14.129C67.909 14.4899 68.3454 14.8057 68.812 15.0709C71.7298 16.6351 74.7784 17.9372 77.9226 18.9622L78.0451 18.7615C77.4939 18.2673 76.8967 17.7578 76.2842 17.2173C75.044 16.1673 73.7118 15.1018 72.4103 14.129C71.6294 13.5886 70.8791 13.079 70.1441 12.5849C69.3717 12.0869 68.4866 11.7947 67.5717 11.7356C67.3977 11.7144 67.2213 11.7372 67.0583 11.8019C66.8952 11.8666 66.7507 11.9711 66.6377 12.1062C66.4233 12.5385 66.6377 13.3106 67.5105 14.129Z" fill="white"/>
<path d="M75.0746 20.7225C73.5434 20.46 71.7979 20.213 70.2054 20.0585C69.2714 19.9659 68.3527 19.9196 67.5258 19.9196C65.2597 19.9196 64.2031 20.7534 64.2031 21.3093C64.2031 21.8652 64.7544 22.2667 65.9334 22.5446C66.4358 22.659 66.9495 22.716 67.4646 22.7145C70.7653 22.5867 74.049 22.1734 77.2796 21.4792V21.1549L75.0746 20.7225Z" fill="white"/>
<path d="M68.812 27.5476C66.852 28.6903 66.3467 29.9565 66.6224 30.4352C66.7363 30.5699 66.8805 30.6752 67.043 30.7423C67.2054 30.8095 67.3815 30.8365 67.5564 30.8212C67.9573 30.8163 68.3551 30.7485 68.7354 30.6205C69.2708 30.47 69.7852 30.2521 70.2666 29.9719C73.0704 28.2023 75.7143 26.1871 78.1676 23.9498L78.0451 23.749L75.8708 24.5211C74.3396 25.0924 72.8084 25.7255 71.2772 26.3895C70.3432 26.7138 69.5316 27.1307 68.812 27.5476Z" fill="white"/>
<path d="M79.6844 25.5557C79.1944 26.1116 78.6891 26.6983 78.1532 27.3314C77.1273 28.5822 76.0708 29.9256 75.0908 31.2381C74.5549 32.0257 74.0496 32.7823 73.5596 33.508C72.4265 35.5 72.6103 36.828 73.1002 37.1213C73.5902 37.4147 74.2027 37.1213 75.0142 36.2103C75.3758 35.8171 75.6894 35.3816 75.9483 34.9132C77.5053 31.9469 78.7967 28.8463 79.8069 25.6483H79.7303L79.6844 25.5557Z" fill="white"/>
<path d="M82.3628 26.2969C82.2865 26.3046 82.2095 26.3046 82.1331 26.2969C81.9953 27.0226 81.8422 27.841 81.7197 28.5977C81.4441 30.1418 81.1991 31.9021 81.046 33.4926C80.9541 34.45 80.9082 35.361 80.9082 36.2103C80.9082 38.4957 81.735 39.5611 82.2863 39.5611C82.8375 39.5611 83.2356 38.9898 83.5112 37.8008C83.6259 37.2943 83.6824 36.7762 83.6797 36.2566C83.553 32.9229 83.1431 29.6063 82.4547 26.3432L82.3628 26.2969Z" fill="white"/>
<path d="M90.8778 33.508C89.1227 30.6855 87.1245 28.0244 84.9061 25.5557L84.707 25.6638C84.9367 26.3586 85.197 27.0998 85.4726 27.8564C86.0392 29.4006 86.667 30.9447 87.3254 32.4889C87.7235 33.3536 88.1369 34.1875 88.5503 34.9132C89.6834 36.8897 90.939 37.3993 91.4137 37.1213C91.8884 36.8434 91.9649 36.1485 91.5974 34.9904C91.4204 34.4677 91.1786 33.9697 90.8778 33.508Z" fill="white"/>
<path d="M97.0627 28.4895C96.6728 28.1249 96.241 27.8086 95.7765 27.5476C92.8315 25.989 89.7575 24.6921 86.5893 23.6718C86.5811 23.6968 86.5811 23.7239 86.5893 23.749L86.4668 23.9497L88.2277 25.4938C89.468 26.5284 90.8001 27.5939 92.1016 28.5821C92.8825 29.138 93.6328 29.6476 94.3525 30.1263C96.3278 31.269 97.6446 31.0837 97.9355 30.5895C98.2264 30.0954 97.9508 29.3233 97.0627 28.4895Z" fill="white"/>
<path d="M89.5149 21.896C91.0461 22.174 92.7916 22.4211 94.3688 22.5755C95.3181 22.5755 96.2215 22.7144 97.0637 22.7144C99.3299 22.7144 100.386 21.8806 100.386 21.3093C100.386 20.7379 99.8199 20.3519 98.6408 20.0894C98.1386 19.9738 97.6248 19.9168 97.1096 19.9195C93.8033 20.0396 90.5138 20.453 87.2793 21.1549V21.3093C87.2869 21.3656 87.2869 21.4228 87.2793 21.4791L89.5149 21.896Z" fill="white"/>
<path d="M93.3719 16.3062C94.2447 15.9047 95.0562 15.4878 95.7759 15.0709C97.7358 13.9282 98.2411 12.6774 97.9655 12.1833C97.6899 11.6892 97.0008 11.6429 95.8524 11.998C95.3189 12.1607 94.8053 12.3834 94.3212 12.662C91.5223 14.4319 88.8836 16.4471 86.4355 18.6842C86.4355 18.6842 86.5121 18.8077 86.5427 18.8849L88.7323 18.0974C90.3401 17.6187 91.9326 16.9856 93.3719 16.3062Z" fill="white"/>
<path d="M84.9057 17.0783L86.4369 15.3025C87.4628 14.0517 88.5193 12.7083 89.4993 11.3958C90.0505 10.6083 90.5558 9.85165 91.0305 9.11046C92.1636 7.13395 91.9798 5.79053 91.4899 5.51259C90.9999 5.23464 90.3874 5.51259 89.5605 6.4082C89.2027 6.81008 88.8895 7.2502 88.6265 7.72072C87.0829 10.6915 85.797 13.7913 84.7832 16.9856H84.8598L84.9057 17.0783Z" fill="white"/>
<path d="M82.287 24.0116C83.7669 24.0116 84.9666 22.8017 84.9666 21.3093C84.9666 19.8169 83.7669 18.6071 82.287 18.6071C80.8071 18.6071 79.6074 19.8169 79.6074 21.3093C79.6074 22.8017 80.8071 24.0116 82.287 24.0116Z" fill="white"/>
</g>
<defs>
<clipPath id="clip0_3331_14917">
<rect width="159" height="71" fill="white"/>
</clipPath>
</defs>
</svg>
