<svg width="17" height="16" viewBox="0 0 17 16" fill="none" xmlns="http://www.w3.org/2000/svg">
<path fill-rule="evenodd" clip-rule="evenodd" d="M9.03923 2.57733C9.7769 2.03127 10.6282 1.75 11.5482 1.75C12.764 1.75 13.8907 2.21943 14.7082 3.06816C15.5057 3.89611 15.9404 5.01568 15.9404 6.21574C15.9404 7.44805 15.4633 8.56987 14.479 9.70657C13.8757 10.4034 13.27 10.9574 11.8911 12.0947L10.7681 13.0138L9.71323 13.885C9.43224 14.1203 9.07148 14.25 8.69796 14.25C8.32422 14.25 7.96347 14.1203 7.6828 13.885L7.54209 13.7675L5.29505 11.9212C4.26796 11.0693 3.69825 10.5578 3.20605 10.0289L2.917 9.70665C1.93269 8.56979 1.45557 7.44798 1.45557 6.21574C1.45557 5.01573 1.89029 3.89614 2.68781 3.06813C3.50535 2.21941 4.63199 1.75 5.84778 1.75C6.76784 1.75 7.61912 2.03127 8.35687 2.57739C8.4296 2.63124 8.50087 2.6874 8.57062 2.7458L8.69796 2.858L8.8255 2.74568L9.03923 2.57733ZM13.556 4.0849C13.0362 3.54519 12.3276 3.25 11.5482 3.25C10.977 3.25 10.4625 3.41999 9.99797 3.76389C9.75526 3.94354 9.53232 4.16637 9.33283 4.43031C9.01999 4.84421 8.3758 4.84417 8.06302 4.43022C7.86375 4.16648 7.64076 3.9436 7.39804 3.76388C6.93348 3.41999 6.41901 3.25 5.84778 3.25C5.06834 3.25 4.3599 3.54517 3.84002 4.08487C3.31587 4.62907 3.02273 5.38401 3.02273 6.21574C3.02273 7.07475 3.35982 7.86729 4.12365 8.7495C4.65719 9.36567 5.22946 9.88771 6.55237 10.9785L7.65122 11.8777L8.69796 12.742L8.96567 12.5189L10.8454 10.9771C12.0278 10.0021 12.6102 9.4817 13.1018 8.94162L13.2724 8.74941C14.0361 7.86734 14.3732 7.07482 14.3732 6.21574C14.3732 5.38393 14.0801 4.62901 13.556 4.0849Z" fill="#413773"/>
</svg>
