<svg width="16" height="16" viewBox="0 0 16 16" fill="none" xmlns="http://www.w3.org/2000/svg">
<path d="M12 7.16683C11.7267 7.16683 11.5 6.94016 11.5 6.66683V5.3335C11.5 3.2335 10.9067 1.8335 8 1.8335C5.09333 1.8335 4.5 3.2335 4.5 5.3335V6.66683C4.5 6.94016 4.27333 7.16683 4 7.16683C3.72667 7.16683 3.5 6.94016 3.5 6.66683V5.3335C3.5 3.40016 3.96667 0.833496 8 0.833496C12.0333 0.833496 12.5 3.40016 12.5 5.3335V6.66683C12.5 6.94016 12.2733 7.16683 12 7.16683Z" fill="#409587"/>
<path d="M7.99967 12.8333C6.80634 12.8333 5.83301 11.86 5.83301 10.6667C5.83301 9.47333 6.80634 8.5 7.99967 8.5C9.19301 8.5 10.1663 9.47333 10.1663 10.6667C10.1663 11.86 9.19301 12.8333 7.99967 12.8333ZM7.99967 9.5C7.35967 9.5 6.83301 10.0267 6.83301 10.6667C6.83301 11.3067 7.35967 11.8333 7.99967 11.8333C8.63967 11.8333 9.16634 11.3067 9.16634 10.6667C9.16634 10.0267 8.63967 9.5 7.99967 9.5Z" fill="#409587"/>
<path d="M11.333 15.1665H4.66634C1.72634 15.1665 0.833008 14.2732 0.833008 11.3332V9.99984C0.833008 7.05984 1.72634 6.1665 4.66634 6.1665H11.333C14.273 6.1665 15.1663 7.05984 15.1663 9.99984V11.3332C15.1663 14.2732 14.273 15.1665 11.333 15.1665ZM4.66634 7.1665C2.27967 7.1665 1.83301 7.61984 1.83301 9.99984V11.3332C1.83301 13.7132 2.27967 14.1665 4.66634 14.1665H11.333C13.7197 14.1665 14.1663 13.7132 14.1663 11.3332V9.99984C14.1663 7.61984 13.7197 7.1665 11.333 7.1665H4.66634Z" fill="#409587"/>
</svg>
