<svg width="17" height="16" viewBox="0 0 17 16" fill="none" xmlns="http://www.w3.org/2000/svg">
<path d="M11.5483 2C10.6864 2 9.89121 2.26273 9.19906 2.77509L8.99708 2.93421C8.93113 2.98942 8.86657 3.0468 8.80344 3.1063L8.698 3.211L8.59274 3.10644C8.46648 2.98743 8.33449 2.87687 8.19709 2.77513C7.50488 2.26273 6.70974 2 5.84782 2C4.70476 2 3.64781 2.44037 2.87988 3.23759C2.12793 4.01829 1.7168 5.07711 1.7168 6.21574C1.7168 7.38578 2.17058 8.4527 3.11815 9.54713L3.3062 9.75931C3.81314 10.3176 4.38302 10.834 5.47085 11.7361L7.71371 13.579C7.76012 13.6177 7.80695 13.6568 7.85476 13.6968C8.08795 13.8922 8.38754 14 8.698 14C9.00827 14 9.30791 13.8923 9.54127 13.6969L10.5982 12.824L11.7168 11.9085C13.0862 10.779 13.6863 10.2304 14.2779 9.54704C15.2254 8.45278 15.6792 7.38585 15.6792 6.21574C15.6792 5.07705 15.2681 4.01826 14.5162 3.23761C13.7483 2.44039 12.6913 2 11.5483 2Z" fill="#413773"/>
</svg>
