<svg width="54" height="36" viewBox="0 0 54 36" fill="none" xmlns="http://www.w3.org/2000/svg">
<g clip-path="url(#clip0_21_1941)">
<path d="M23.855 21.2834C23.855 21.5603 23.855 21.8768 23.8945 22.1537V20.4131C23.855 20.69 23.855 21.0065 23.855 21.2834Z" fill="#413773"/>
<path d="M53.2484 21.2836C53.2484 29.3935 46.6813 36.0001 38.5714 36.0001C35.8813 36.0001 33.3099 35.2485 31.1341 33.9825C30.6989 33.7056 30.2637 33.4287 29.8681 33.1518C26.4264 30.6199 24.1319 26.6638 23.8945 22.154V15.5474C23.8945 13.8858 22.5495 12.5803 20.9275 12.5803C19.2659 12.5803 17.9604 13.9254 17.9604 15.5474V30.1847C17.8418 33.3891 15.1912 36.0001 11.9473 36.0001V15.6265C11.9473 15.5869 11.9473 15.5078 11.9473 15.4682C11.9077 14.5979 11.5121 13.8067 10.9187 13.2924C10.444 12.8572 9.85055 12.5803 9.17802 12.5408C7.43736 12.4221 6.01319 13.8067 6.01319 15.5078V29.9869C5.97363 33.31 3.28352 36.0001 0 36.0001V15.5474C0 10.6419 3.91648 6.68582 8.78242 6.6067C10.6418 6.56714 12.422 7.12098 13.8462 8.11C14.2022 8.34736 14.5582 8.62428 14.8747 8.9012C16.4571 7.47703 18.5934 6.56714 20.8879 6.56714C24.0132 6.56714 26.7824 8.18912 28.4044 10.6419C29.3143 12.0265 29.8681 13.7276 29.8681 15.5078V20.6111C29.8681 20.8089 29.8286 21.0463 29.8286 21.2441C29.8286 21.4419 29.8286 21.6792 29.8681 21.877C29.9868 23.3408 30.422 24.6858 31.1341 25.8331C32.6769 28.3254 35.4066 29.9869 38.5714 29.9869C43.3978 29.9869 47.3143 26.0704 47.3143 21.2441C47.3143 16.4177 43.3978 12.5012 38.5714 12.5012C35.4462 12.5012 32.6769 14.1627 31.1341 16.655V15.5078C31.1341 13.5298 30.5802 11.5913 29.4725 9.92978C29.433 9.89022 29.3934 9.81109 29.3538 9.77153C31.8857 7.75395 35.0506 6.56714 38.5319 6.56714C46.6813 6.56714 53.2484 13.1737 53.2484 21.2836Z" fill="#413773"/>
<path d="M23.855 21.2834C23.855 21.0065 23.855 20.69 23.8945 20.4131V22.1537C23.855 21.8768 23.855 21.5603 23.855 21.2834Z" fill="#413773"/>
<path d="M29.8286 20.6506V21.9166C29.8286 21.7188 29.7891 21.4814 29.7891 21.2836C29.8286 21.0858 29.8286 20.8484 29.8286 20.6506Z" fill="#413773"/>
<path d="M29.8286 20.6506V21.9166C29.8286 21.7188 29.7891 21.4814 29.7891 21.2836C29.8286 21.0858 29.8286 20.8484 29.8286 20.6506Z" fill="#413773"/>
<path d="M46.6814 3.28352C46.6814 2.13626 47.2748 1.14725 48.1452 0.553846C48.6595 0.197802 49.2924 0 49.965 0C51.7847 0 53.2485 1.46374 53.2485 3.28352C53.2485 5.1033 51.7847 6.56703 49.965 6.56703H44.5056C44.5056 6.56703 44.8617 6.48791 45.2573 6.21099C45.8902 5.81538 46.6814 4.94506 46.6814 3.28352Z" fill="#413773"/>
</g>
<defs>
<clipPath id="clip0_21_1941">
<rect width="53.2484" height="36" fill="white"/>
</clipPath>
</defs>
</svg>
