<svg width="125" height="125" viewBox="0 0 125 125" fill="none" xmlns="http://www.w3.org/2000/svg">
<path d="M62.5003 90.3647C67.189 90.3647 70.9899 86.5638 70.9899 81.8751C70.9899 77.1864 67.189 73.3855 62.5003 73.3855C57.8117 73.3855 54.0107 77.1864 54.0107 81.8751C54.0107 86.5638 57.8117 90.3647 62.5003 90.3647Z" fill="#409587"/>
<path d="M95.2087 49.6355V43.1251C95.2087 29.0626 91.8232 10.4167 62.5003 10.4167C33.1774 10.4167 29.792 29.0626 29.792 43.1251V49.6355C15.2087 51.4584 10.417 58.8542 10.417 77.0313V86.7188C10.417 108.073 16.9274 114.583 38.2816 114.583H86.7191C108.073 114.583 114.584 108.073 114.584 86.7188V77.0313C114.584 58.8542 109.792 51.4584 95.2087 49.6355ZM62.5003 97.6042C53.8024 97.6042 46.7712 90.5209 46.7712 81.8751C46.7712 73.1772 53.8545 66.1459 62.5003 66.1459C71.1462 66.1459 78.2295 73.2292 78.2295 81.8751C78.2295 90.573 71.1982 97.6042 62.5003 97.6042ZM38.2816 49.1667C37.8649 49.1667 37.5003 49.1667 37.0837 49.1667V43.1251C37.0837 27.8647 41.4066 17.7084 62.5003 17.7084C83.5941 17.7084 87.917 27.8647 87.917 43.1251V49.2188C87.5003 49.2188 87.1357 49.2188 86.7191 49.2188H38.2816V49.1667Z" fill="#409587"/>
</svg>
