<svg width="30" height="30" viewBox="0 0 30 30" fill="none" xmlns="http://www.w3.org/2000/svg">
<g clip-path="url(#clip0_632_3759)">
<path d="M17.61 9.19995H12.22V29.01H17.61V9.19995Z" stroke="#B4B4B5" stroke-width="1.3" stroke-linecap="round" stroke-linejoin="round"/>
<path d="M14.92 1.65002L13.32 4.42002C12.61 5.65002 13.5 7.19002 14.92 7.19002C16.34 7.19002 17.23 5.65002 16.52 4.42002L14.92 1.65002V1.65002Z" stroke="#B4B4B5" stroke-width="1.3" stroke-linecap="round" stroke-linejoin="round"/>
<path d="M9.04002 19.11H3.65002V29.01H9.04002V19.11Z" stroke="#B4B4B5" stroke-width="1.3" stroke-linecap="round" stroke-linejoin="round"/>
<path d="M6.35001 11.55L4.75001 14.32C4.04001 15.55 4.93001 17.09 6.35001 17.09C7.77001 17.09 8.66001 15.55 7.95001 14.32L6.35001 11.55Z" stroke="#B4B4B5" stroke-width="1.3" stroke-linecap="round" stroke-linejoin="round"/>
<path d="M26.18 14.03H20.79V29.01H26.18V14.03Z" stroke="#B4B4B5" stroke-width="1.3" stroke-linecap="round" stroke-linejoin="round"/>
<path d="M23.49 6.47998L21.89 9.24998C21.18 10.48 22.07 12.02 23.49 12.02C24.91 12.02 25.8 10.48 25.09 9.24998L23.49 6.47998Z" stroke="#B4B4B5" stroke-width="1.3" stroke-linecap="round" stroke-linejoin="round"/>
</g>
<defs>
<clipPath id="clip0_632_3759">
<rect width="23.83" height="28.66" fill="white" transform="translate(3 1)"/>
</clipPath>
</defs>
</svg>
