<svg width="25" height="24" viewBox="0 0 25 24" fill="none" xmlns="http://www.w3.org/2000/svg">
<path d="M8.28516 13.0039C7.72266 13.0039 7.2832 12.5645 7.2832 12.002C7.2832 11.4395 7.72266 11 8.28516 11C8.84766 11 9.28711 11.4395 9.28711 12.002C9.28711 12.5645 8.84766 13.0039 8.28516 13.0039Z" fill="#409587"/>
<path d="M12.8555 13.0039C12.293 13.0039 11.8535 12.5645 11.8535 12.002C11.8535 11.4395 12.293 11 12.8555 11C13.418 11 13.8574 11.4395 13.8574 12.002C13.8574 12.5645 13.418 13.0039 12.8555 13.0039Z" fill="#409587"/>
<path d="M17.4258 13.0039C16.8633 13.0039 16.4238 12.5645 16.4238 12.002C16.4238 11.4395 16.8633 11 17.4258 11C17.9883 11 18.4277 11.4395 18.4277 12.002C18.4277 12.5645 17.9883 13.0039 17.4258 13.0039Z" fill="#409587"/>
</svg>
