<svg width="20" height="20" viewBox="0 0 20 20" fill="none" xmlns="http://www.w3.org/2000/svg">
<g clip-path="url(#clip0_2301_4228)">
<path d="M5.36963 14.5081C5.36963 14.5081 11.2052 7.84353 13.3449 3.67096C13.7882 4.43747 14.0384 5.29904 14.0743 6.18226C14.0743 6.18226 12.3236 9.8719 6.60481 16.633L6.68263 14.7785L5.36963 14.5081Z" stroke="#5A5958" stroke-width="0.75" stroke-linecap="round" stroke-linejoin="round"/>
<path d="M10.5049 11.7167C11.5261 13.1075 12.8099 14.7495 14.3952 16.633L14.3174 14.7785L15.6304 14.5081C15.6304 14.5081 13.802 12.4314 11.8179 9.87189" stroke="#5A5958" stroke-width="0.75" stroke-linecap="round" stroke-linejoin="round"/>
<path d="M10.5049 8.10431C9.43973 6.69941 8.48693 5.21389 7.65522 3.66132C7.21191 4.42782 6.96166 5.28934 6.92578 6.17256C7.59019 7.45328 8.34415 8.68619 9.18217 9.8622" stroke="#5A5958" stroke-width="0.75" stroke-linecap="round" stroke-linejoin="round"/>
<path d="M7.65515 3.67095C8.01024 3.26874 8.44772 2.94651 8.93833 2.72571C9.42893 2.50492 9.96134 2.39069 10.5 2.39069C11.0386 2.39069 11.571 2.50492 12.0616 2.72571C12.5522 2.94651 12.9897 3.26874 13.3448 3.67095" stroke="#5A5958" stroke-width="0.75" stroke-linecap="round" stroke-linejoin="round"/>
<path d="M8.41382 5.03287C8.9838 4.51568 9.72794 4.22888 10.5 4.22888C11.2721 4.22888 12.0162 4.51568 12.5862 5.03287" stroke="#5A5958" stroke-width="0.75" stroke-linecap="round" stroke-linejoin="round"/>
</g>
<defs>
<clipPath id="clip0_2301_4228">
<rect width="11" height="15" fill="white" transform="translate(5 2)"/>
</clipPath>
</defs>
</svg>
