<svg width="32" height="32" viewBox="0 0 32 32" fill="none" xmlns="http://www.w3.org/2000/svg">
<path d="M16.0003 2.66667C8.64033 2.66667 2.66699 8.20001 2.66699 15.0133C2.66699 18.88 4.58698 22.32 7.57365 24.5867V27.0533C7.57365 28.08 8.66697 28.72 9.5603 28.2133L12.0404 26.8133C13.2937 27.1733 14.6136 27.36 15.987 27.36C23.347 27.36 29.3203 21.8267 29.3203 15.0133C29.3336 8.20001 23.3603 2.66667 16.0003 2.66667ZM20.6803 13.92L17.347 17.9067C17.1337 18.16 16.787 18.2133 16.507 18.0533L15.1603 17.2667C15.0137 17.1867 14.8403 17.16 14.667 17.2L11.987 17.8534C11.3603 18 10.907 17.2666 11.3203 16.7733L14.707 12.7467C14.907 12.5067 15.2537 12.44 15.5337 12.5867L17.107 13.4133C17.2537 13.4933 17.427 13.5067 17.587 13.4667L20.0137 12.84C20.627 12.68 21.0937 13.4267 20.6803 13.92Z" fill="#00B2FF"/>
</svg>
