<svg width="22" height="20" viewBox="0 0 22 20" fill="none" xmlns="http://www.w3.org/2000/svg">
    <g clip-path="url(#clip0_2538_6576)">
        <path
            d="M10.076 18.8324C9.81478 18.728 9.58623 18.5649 9.40991 18.3496C9.30543 18.2257 9.22054 18.2192 9.08341 18.2909C8.84179 18.4149 8.54794 18.4931 8.28673 18.5192C8.02553 18.5453 7.35292 18.4605 6.61502 17.8082C6.55625 17.7626 6.51707 17.7038 6.47136 17.6451C6.26239 17.3777 6.26239 17.3777 6.00772 17.6256C5.2894 18.3301 4.58415 19.0411 3.87236 19.7456C3.53933 20.0783 3.08875 20.0848 2.78836 19.7717C2.65123 19.6282 2.58593 19.4586 2.58593 19.2629C2.58593 18.878 2.5794 18.4997 2.58593 18.1148C2.59246 17.9648 2.54022 17.9191 2.39003 17.9191C2.01781 17.9256 1.63906 17.9191 1.26684 17.9191C0.940338 17.9191 0.698723 17.7756 0.574651 17.4755C0.444048 17.1689 0.509349 16.8885 0.744434 16.6471C1.4954 15.8969 2.23983 15.1468 2.9908 14.4031C3.1214 14.2727 3.13446 14.227 2.96468 14.1096C2.19412 13.5551 1.9068 12.7984 2.06352 11.8721C2.07005 11.8265 2.08311 11.7808 2.08964 11.7091C1.65212 11.7091 1.23419 11.7091 0.809735 11.7091C0.287325 11.7091 -0.00653076 11.4155 -0.00653076 10.8937C-0.00653076 9.97391 -0.00653076 9.05414 -0.00653076 8.13437C-0.00653076 7.61252 0.287325 7.31898 0.809735 7.31898C1.18195 7.31898 1.5607 7.31246 1.93292 7.31898C2.05699 7.31898 2.09617 7.30593 2.07005 7.1559C1.86762 6.03392 2.39656 5.08154 3.46097 4.65753C3.57851 4.61187 3.61769 4.55968 3.61769 4.42922C3.63075 3.07893 4.5515 2.15264 5.90323 2.15916C6.0469 2.15916 6.09914 2.1135 6.14485 1.98956C6.62808 0.76973 7.90798 0.241354 9.11606 0.776253C9.24666 0.834962 9.30543 0.808869 9.40338 0.711022C10.3111 -0.234836 11.702 -0.234836 12.6097 0.717545C12.7076 0.815392 12.7664 0.828438 12.897 0.776253C14.0855 0.247877 15.3785 0.776253 15.8486 1.97651C15.9074 2.12655 15.9792 2.15916 16.1294 2.15916C17.4159 2.14612 18.3888 3.11807 18.3758 4.40313C18.3758 4.55968 18.415 4.62492 18.5586 4.68362C19.5773 5.08154 20.1259 6.06653 19.9234 7.14938C19.8973 7.29941 19.9234 7.33203 20.0671 7.3255C20.4524 7.31898 20.8311 7.31898 21.2164 7.3255C21.6931 7.33203 22 7.63209 22 8.10176C22.0065 9.04762 22.0065 9.98695 22 10.9328C22 11.4155 21.6931 11.7156 21.1968 11.7156C20.7658 11.7156 20.3348 11.7156 19.8973 11.7156C20.0867 12.5766 19.9038 13.3072 19.29 13.9139C19.2573 13.9465 19.2182 13.9791 19.179 14.0117C18.8655 14.2727 18.8655 14.2727 19.1529 14.5532C19.8059 15.2055 20.4524 15.8578 21.1054 16.5036C21.36 16.758 21.4841 17.0385 21.3339 17.3842C21.1903 17.7299 20.9029 17.8474 20.5438 17.8343C20.2107 17.8213 19.8777 17.8408 19.5447 17.8278C19.3553 17.8213 19.3096 17.8865 19.3161 18.0626C19.3292 18.4214 19.3161 18.7802 19.3226 19.1389C19.3226 19.4781 19.179 19.7195 18.8655 19.85C18.5521 19.9804 18.2778 19.8956 18.0427 19.6608C17.331 18.9498 16.6126 18.2387 15.9009 17.5147C15.7703 17.3842 15.7376 17.4038 15.6005 17.5342C15.4372 17.6908 15.1172 18.1213 14.7711 18.317C14.4185 18.5127 13.7394 18.4997 13.4586 18.441C13.1778 18.3757 12.9231 18.2061 12.7468 18.2453C12.5705 18.2779 12.3419 18.5975 12.1264 18.7345C11.911 18.8715 11.5257 18.9954 11.1012 19.015C10.631 19.0346 10.1543 18.865 10.076 18.8324ZM16.9196 7.3255C17.2852 7.3255 17.6509 7.31898 18.0166 7.33203C18.1733 7.33855 18.2778 7.27332 18.3627 7.1559C18.5456 6.90802 18.5521 6.57534 18.3692 6.31441C18.1864 6.04696 17.886 5.93607 17.553 6.03392C17.4028 6.07306 17.2591 6.13177 17.1024 6.09263C16.5147 5.96869 16.3057 5.26419 16.7171 4.83366C17.0175 4.52055 16.9783 4.11611 16.691 3.82909C16.4037 3.5486 16.0315 3.54207 15.6984 3.803C15.3589 4.07045 15.065 4.10306 14.7581 3.90737C14.4577 3.71167 14.3663 3.41161 14.4904 3.00717C14.6144 2.58969 14.4577 2.24396 14.0724 2.09393C13.6937 1.9439 13.3541 2.07436 13.1517 2.44618C12.9427 2.83105 12.675 2.97456 12.3028 2.88976C11.9632 2.818 11.7738 2.57664 11.7346 2.16569C11.7085 1.85257 11.5649 1.62426 11.2579 1.51989C10.7682 1.35029 10.3176 1.65036 10.2719 2.17873C10.2327 2.60926 9.98456 2.87671 9.59276 2.9028C9.25319 2.9289 9.02464 2.76582 8.86791 2.47227C8.68507 2.12655 8.45651 1.99608 8.13001 2.04175C7.62066 2.10698 7.37904 2.51794 7.52924 3.04631C7.65331 3.46379 7.48353 3.83561 7.09825 3.98565C6.80439 4.09654 6.54972 4.01826 6.3081 3.81604C5.94242 3.50946 5.49184 3.56164 5.2241 3.93998C5.00861 4.24005 5.04126 4.53359 5.32205 4.89237C5.67468 5.33594 5.47225 5.94912 4.93025 6.09263C4.76046 6.13829 4.61027 6.0861 4.45355 6.04044C4.17275 5.96216 3.91808 6.0013 3.71564 6.22309C3.52627 6.42531 3.44791 6.66666 3.52627 6.94064C3.60463 7.21461 3.76788 7.33855 4.05521 7.33855C4.74087 7.33855 5.42654 7.33203 6.10567 7.34507C6.3081 7.3516 6.39952 7.27332 6.49748 7.10372C7.42475 5.4664 8.83526 4.52055 10.7094 4.42922C12.8644 4.32485 14.4838 5.27723 15.5482 7.16242C15.6201 7.29289 15.6984 7.34507 15.8486 7.33855C16.2012 7.31898 16.5604 7.3255 16.9196 7.3255ZM5.07391 11.7221C4.70822 11.7221 4.34253 11.7286 3.97685 11.7221C3.82665 11.7156 3.7287 11.7743 3.64381 11.8852C3.45444 12.1265 3.44138 12.4527 3.61769 12.7267C3.80053 13.0137 4.10092 13.1311 4.44702 13.0202C4.81923 12.8963 5.10656 12.9941 5.37429 13.2681C5.98813 13.8943 6.60849 14.514 7.24191 15.1337C7.52924 15.4142 7.63372 15.7078 7.50312 16.0992C7.37904 16.4644 7.5423 16.7906 7.88186 16.9537C8.26061 17.1363 8.64589 17.0124 8.85485 16.621C8.96587 16.4123 9.103 16.2361 9.34461 16.1774C9.82131 16.0535 10.2392 16.3601 10.2784 16.8689C10.3176 17.319 10.5984 17.593 11.0098 17.5864C11.4212 17.5864 11.702 17.3125 11.7412 16.8624C11.7477 16.8037 11.7477 16.7515 11.7608 16.6928C11.8391 16.3992 12.0742 16.197 12.3877 16.1579C12.7207 16.1187 12.9623 16.2557 13.1517 16.608C13.3606 16.9928 13.7133 17.1298 14.092 16.9733C14.4642 16.8167 14.634 16.4775 14.5034 16.0731C14.3859 15.7078 14.4773 15.4273 14.745 15.1663C15.3654 14.5532 15.9858 13.9465 16.5931 13.3203C16.8804 13.0267 17.1808 12.9028 17.5987 13.0333C18.1407 13.1963 18.6239 12.7136 18.4999 12.1722C18.4345 11.8721 18.2648 11.7352 17.9579 11.7352C17.2852 11.7352 16.6061 11.7417 15.9335 11.7286C15.7245 11.7221 15.6201 11.7873 15.5221 11.9765C14.523 13.8682 12.3289 14.9641 10.2327 14.6053C8.54794 14.3183 7.28109 13.4181 6.47136 11.9048C6.40605 11.7808 6.33422 11.7286 6.19056 11.7286C5.80528 11.7286 5.4396 11.7221 5.07391 11.7221ZM11.0033 8.79321C10.6441 8.79321 10.285 8.79321 9.92579 8.79321C7.18967 8.79321 4.45355 8.79321 1.71742 8.78669C1.51499 8.78669 1.44969 8.83235 1.46275 9.04109C1.48234 9.34116 1.48234 9.64122 1.46275 9.94129C1.44316 10.1826 1.50846 10.2609 1.76966 10.2609C7.92104 10.2544 14.0659 10.2544 20.2173 10.2544C20.2565 10.2544 20.3022 10.2479 20.3413 10.2544C20.485 10.274 20.5438 10.2218 20.5373 10.0652C20.5242 9.75864 20.5307 9.44553 20.5307 9.13894C20.5307 8.78669 20.5307 8.78669 20.1912 8.78669C17.1285 8.79321 14.0659 8.79321 11.0033 8.79321ZM13.9353 7.31898C13.0537 6.26223 11.9763 5.76647 10.6572 5.88389C9.60582 5.97521 8.7569 6.46445 8.07777 7.31898C10.0433 7.31898 11.9567 7.31898 13.9353 7.31898ZM8.10389 11.7352C9.54052 13.7117 12.577 13.6138 13.8831 11.7352C11.9632 11.7352 10.0433 11.7352 8.10389 11.7352ZM3.00386 16.4579C3.76788 16.4123 4.08786 16.7645 4.06174 17.4951C4.63639 16.9211 5.1588 16.3927 5.69427 15.8643C5.78569 15.7795 5.7661 15.7273 5.68774 15.6491C5.42001 15.3881 5.15227 15.1272 4.8976 14.8532C4.79311 14.7423 4.73434 14.7423 4.62986 14.8532C4.27723 15.225 3.90502 15.5838 3.54586 15.9426C3.37608 16.0992 3.21935 16.2557 3.00386 16.4579ZM18.8786 16.3536C18.3366 15.8187 17.8338 15.3229 17.3375 14.8206C17.2461 14.7293 17.1938 14.7684 17.122 14.8402C16.8608 15.1076 16.5996 15.3751 16.3253 15.6295C16.2078 15.7339 16.2274 15.7991 16.3318 15.8969C16.789 16.347 17.2395 16.8037 17.6966 17.2537C17.7358 17.2864 17.7554 17.3581 17.8272 17.332C17.8534 16.6667 18.0754 16.3731 18.8786 16.3536Z"
            fill="#CDCDD5" />
    </g>
    <defs>
        <clipPath id="clip0_2538_6576">
            <rect width="22" height="20" fill="white" />
        </clipPath>
    </defs>
</svg>
