<svg width="22" height="20" viewBox="0 0 22 20" fill="none" xmlns="http://www.w3.org/2000/svg">
    <g clip-path="url(#clip0_2530_6566)">
        <path
            d="M5.45266 6.59491C4.40131 6.59491 3.34996 6.59491 2.29861 6.59491C2.01781 6.59491 2.00475 6.58186 2.06353 6.30789C2.22678 5.53816 2.6643 4.98369 3.40873 4.69667C3.56546 4.63144 3.62423 4.56621 3.62423 4.39008C3.60464 3.12459 4.59069 2.14612 5.86406 2.16569C6.03384 2.16569 6.09914 2.1135 6.15792 1.96347C6.61503 0.7893 7.92758 0.247878 9.07688 0.763207C9.24014 0.834962 9.30544 0.802346 9.42298 0.691453C10.298 -0.215266 11.7085 -0.215266 12.5836 0.691453C12.6946 0.808869 12.7729 0.834962 12.9297 0.763207C14.079 0.247878 15.385 0.7893 15.8486 1.96347C15.9074 2.12002 15.9792 2.16569 16.1425 2.15916C17.4159 2.13959 18.3954 3.12459 18.3758 4.39008C18.3758 4.57273 18.4411 4.63144 18.5978 4.69667C19.3488 4.99021 19.7798 5.5512 19.943 6.33398C19.9822 6.51663 19.9626 6.60143 19.7275 6.60143C17.6183 6.59491 15.5091 6.59491 13.3998 6.60143C13.2627 6.60143 13.1517 6.56229 13.0407 6.49054C11.7934 5.6621 10.2131 5.6621 8.9724 6.49054C8.84833 6.57534 8.73079 6.60143 8.58712 6.60143C7.53577 6.58839 6.49095 6.59491 5.45266 6.59491Z"
            fill="#413773" />
        <path
            d="M11.0229 8.05609C14.3859 8.05609 17.7489 8.05609 21.1119 8.05609C21.7192 8.05609 21.9935 8.33006 21.9935 8.93019C21.9935 9.34768 21.9935 9.75864 21.9935 10.1761C21.9935 10.6849 21.6931 10.985 21.1968 10.985C14.3989 10.985 7.60107 10.985 0.796676 10.985C0.293856 10.985 0 10.6784 0 10.1696C0 9.73907 0 9.30854 0 8.87801C0 8.34311 0.293856 8.05609 0.835856 8.05609C4.23152 8.05609 7.62719 8.05609 11.0229 8.05609Z"
            fill="#413773" />
        <path
            d="M5.45919 12.4527C6.51054 12.4527 7.56189 12.4527 8.61324 12.4527C8.73731 12.4527 8.84832 12.4788 8.9528 12.5506C10.2196 13.392 11.7738 13.3986 13.0407 12.5571C13.1582 12.4788 13.2692 12.4462 13.3998 12.4462C15.5025 12.4462 17.6052 12.4527 19.7014 12.4397C19.9299 12.4397 19.9887 12.5049 19.9365 12.7136C19.9234 12.7528 19.9169 12.7919 19.9038 12.8311C19.8124 13.2094 19.8124 13.2029 19.4532 13.0789C18.6174 12.7984 17.8468 12.9354 17.2069 13.5421C16.4625 14.2466 15.7311 14.9707 15.0324 15.7143C14.3924 16.3927 14.2618 17.2016 14.6144 18.0626C14.6993 18.2648 14.6471 18.3236 14.4642 18.3692C13.9288 18.5192 13.3998 18.4997 12.8905 18.2583C12.7664 18.1996 12.7011 18.2127 12.6031 18.3105C11.6824 19.2694 10.3111 19.2694 9.37726 18.304C9.28584 18.2061 9.22054 18.2061 9.10953 18.2583C8.57406 18.5062 8.03206 18.5323 7.47046 18.3496C7.34639 18.3105 7.28109 18.2844 7.35292 18.1213C7.75126 17.1885 7.56842 16.3144 6.8501 15.5969C6.20362 14.9446 5.55061 14.2922 4.89759 13.6465C4.16622 12.9224 3.3173 12.7528 2.37044 13.1507C2.2333 13.2094 2.19412 13.1768 2.14841 13.0528C1.93945 12.4919 1.96557 12.4462 2.54675 12.4462C3.51974 12.4527 4.4862 12.4527 5.45919 12.4527Z"
            fill="#413773" />
        <path
            d="M1.80884 17.9256C1.61294 17.9256 1.41703 17.9322 1.22113 17.9256C0.914213 17.9191 0.698719 17.7625 0.574647 17.4886C0.457104 17.2211 0.476695 16.9472 0.685659 16.7384C1.39091 16.0143 2.1027 15.3033 2.82754 14.5988C3.09528 14.3444 3.5132 14.3575 3.78094 14.6184C4.49925 15.3164 5.20451 16.0209 5.90323 16.7384C6.1775 17.0254 6.16444 17.4429 5.88364 17.7299C5.20451 18.4214 4.51884 19.0998 3.82665 19.7847C3.5981 20.013 3.3173 20.0652 3.01691 19.9348C2.72959 19.8108 2.5794 19.576 2.5794 19.2629C2.5794 18.8911 2.56634 18.5127 2.5794 18.1409C2.58593 17.9648 2.52715 17.9126 2.35737 17.9256C2.18106 17.9322 1.99168 17.9256 1.80884 17.9256Z"
            fill="#413773" />
        <path
            d="M20.0867 17.8343C19.8908 17.8343 19.6949 17.8408 19.499 17.8343C19.3618 17.8278 19.3161 17.88 19.3161 18.017C19.3226 18.3823 19.3161 18.7476 19.3227 19.1129C19.3292 19.4586 19.192 19.713 18.8721 19.85C18.5456 19.987 18.2713 19.8891 18.0297 19.6478C17.4093 19.0215 16.7824 18.4084 16.1621 17.7821C15.816 17.4299 15.816 17.0124 16.1621 16.6602C16.8216 15.9948 17.4812 15.336 18.1472 14.6771C18.4999 14.3314 18.9178 14.3314 19.2704 14.6771C19.8973 15.2968 20.5111 15.923 21.138 16.5427C21.3796 16.7841 21.4711 17.0646 21.3405 17.3842C21.2033 17.7039 20.9487 17.8474 20.6026 17.8343C20.4262 17.8278 20.2565 17.8343 20.0867 17.8343Z"
            fill="#413773" />
    </g>
    <defs>
        <clipPath id="clip0_2530_6566">
            <rect width="22" height="20" fill="white" />
        </clipPath>
    </defs>
</svg>
