<svg width="24" height="24" viewBox="0 0 24 24" fill="none" xmlns="http://www.w3.org/2000/svg">
<path d="M5.15024 19.4199C7.36024 20.1599 9.69024 20.5299 12.0202 20.5299C14.3502 20.5299 16.6802 20.1599 18.8802 19.4199C19.6702 19.1599 20.3002 18.5599 20.5902 17.7699C20.8802 16.9799 20.8002 16.1099 20.3702 15.3899L19.2302 13.4899C18.9902 13.0799 18.7702 12.2699 18.7702 11.8099V9.71415C17.7863 9.257 17.3603 9.95419 17.2702 10.3599V11.7999C17.2702 12.5299 17.5602 13.5999 17.9402 14.2499L19.0902 16.1599C19.2902 16.4899 19.3202 16.8799 19.1902 17.2399C19.0602 17.5999 18.7802 17.8699 18.4202 17.9899C14.2402 19.3899 9.81024 19.3899 5.63024 17.9899L5.15024 19.4199Z" fill="white"/>
<path d="M4.81024 13.4799C4.81024 13.4799 4.17742 14.78 3.66024 15.3899C3.14307 15.9999 4.00016 17.1427 4.95024 16.1599C5.90033 15.1771 6.10024 14.2499 6.10024 14.2499C6.47024 13.6199 6.77024 12.5399 6.77024 11.8099V8.91992C6.77024 6.01992 9.13024 3.66992 12.0202 3.66992C13.8395 3.66992 15.4423 4.59474 16.3843 6C16.5683 6.27452 16.7271 6.56737 16.8574 6.87524L17.9402 5.50439C16.734 3.65826 14.3838 2.16992 12.0202 2.16992C8.30024 2.16992 5.27024 5.19992 5.27024 8.91992V11.8099C5.27024 12.2799 5.05024 13.0799 4.81024 13.4799Z" fill="white"/>
<path d="M4.17621 20.776C3.98621 20.776 3.79621 20.706 3.64621 20.556C3.35621 20.266 3.35621 19.786 3.64621 19.496L19.4962 3.64597C19.7862 3.35597 20.2662 3.35597 20.5562 3.64597C20.8462 3.93597 20.8462 4.41597 20.5562 4.70597L4.70621 20.556C4.55621 20.706 4.36621 20.776 4.17621 20.776Z" fill="white"/>
<path d="M13.8801 3.93993C13.8101 3.93993 13.7401 3.92993 13.6701 3.90993C13.3801 3.82993 13.1001 3.76993 12.8301 3.72993C11.9801 3.61993 11.1601 3.67993 10.3901 3.90993C10.1101 3.99993 9.81011 3.90993 9.62011 3.69993C9.43011 3.48993 9.37011 3.18993 9.48011 2.91993C9.89011 1.86993 10.8901 1.17993 12.0301 1.17993C13.1701 1.17993 14.1701 1.85993 14.5801 2.91993C14.6801 3.18993 14.6301 3.48993 14.4401 3.69993C14.2901 3.85993 14.0801 3.93993 13.8801 3.93993Z" fill="white"/>
<path d="M12.02 22.8101C11.03 22.8101 10.07 22.4101 9.37002 21.7101C8.67002 21.0101 8.27002 20.0501 8.27002 19.0601H9.77002C9.77002 19.6501 10.01 20.2301 10.43 20.6501C10.85 21.0701 11.43 21.3101 12.02 21.3101C13.26 21.3101 14.27 20.3001 14.27 19.0601H15.77C15.77 21.1301 14.09 22.8101 12.02 22.8101Z" fill="white"/>
</svg>
