<svg width="24" height="24" viewBox="0 0 24 24" fill="none" xmlns="http://www.w3.org/2000/svg">
<path d="M20 5C20.3797 5 20.6935 5.28215 20.7432 5.64823L20.75 5.75V14.6875C20.75 15.1017 20.4142 15.4375 20 15.4375C19.6203 15.4375 19.3065 15.1553 19.2568 14.7893L19.25 14.6875V6.5H4.75V14.25C4.75 16.5282 6.54251 18.3877 8.79408 18.4951L9 18.5H20C20.4142 18.5 20.75 18.8358 20.75 19.25C20.75 19.6297 20.4678 19.9435 20.1018 19.9932L20 20H9C5.89821 20 3.37006 17.544 3.25415 14.4706L3.25 14.25V5.75C3.25 5.3703 3.53215 5.05651 3.89823 5.00685L4 5H20Z" fill="white"/>
<path fill-rule="evenodd" clip-rule="evenodd" d="M7.25 13.6875C7.25 12.3413 8.34131 11.25 9.6875 11.25C11.0337 11.25 12.125 12.3413 12.125 13.6875C12.125 15.0337 11.0337 16.125 9.6875 16.125C8.34131 16.125 7.25 15.0337 7.25 13.6875ZM10.625 13.6875C10.625 13.1697 10.2053 12.75 9.6875 12.75C9.16973 12.75 8.75 13.1697 8.75 13.6875C8.75 14.2053 9.16973 14.625 9.6875 14.625C10.2053 14.625 10.625 14.2053 10.625 13.6875Z" fill="white"/>
<path d="M15.9375 3.3125C16.3172 3.3125 16.631 3.59465 16.6807 3.96073L16.6875 4.0625V7.4375C16.6875 7.85171 16.3517 8.1875 15.9375 8.1875C15.5578 8.1875 15.244 7.90535 15.1943 7.53927L15.1875 7.4375V4.0625C15.1875 3.64829 15.5233 3.3125 15.9375 3.3125Z" fill="white"/>
<path d="M8.01465 3.3125C8.39434 3.3125 8.70814 3.59465 8.7578 3.96073L8.76465 4.0625V7.4375C8.76465 7.85171 8.42886 8.1875 8.01465 8.1875C7.63495 8.1875 7.32116 7.90535 7.2715 7.53927L7.26465 7.4375V4.0625C7.26465 3.64829 7.60043 3.3125 8.01465 3.3125Z" fill="white"/>
</svg>
