<svg width="29" height="22" viewBox="0 0 29 22" fill="none" xmlns="http://www.w3.org/2000/svg">
<path fill-rule="evenodd" clip-rule="evenodd" d="M21.4046 20.6575C20.3546 19.7467 19.0209 18.369 17.6209 16.7406C15.8709 18.8658 13.2936 19.9951 10.6262 20.1055C9.85991 20.1331 9.79628 19.7467 10.6262 19.5006C13.6463 18.5346 15.6826 17.2374 16.73 15.6665C16.2554 15.1122 15.8099 14.5073 15.3645 13.9277C14.2508 12.5201 13.9008 12.1337 13.5508 11.9129C12.9463 11.5541 13.0709 11.2781 13.6781 11.308C14.219 11.3609 14.7917 11.6944 15.1073 12.0785C15.9027 13.0445 16.6345 13.8173 17.3027 14.5326C18.1592 12.7133 18.5436 10.3972 18.2254 8.9344C16.4436 9.2104 15.9027 9.1276 15.0463 8.7964C14.0573 10.1764 13.2936 10.8917 12.4372 11.4713C11.8963 11.8301 11.6735 11.5817 12.1508 11.0021C15.3936 7.1427 16.9845 1.6526 16.6027 0.6866C16.38 0.107 16.73 -0.1414 17.4618 0.0794002C17.9073 0.2174 19.0845 0.7694 19.3683 0.9902C19.88 1.4042 19.9118 1.7078 19.3391 2.3127C18.9891 2.6738 18.0345 3.9963 17.7482 4.4379C16.7936 6.1215 16.0326 7.444 15.33 8.41C16.6345 8.272 18.6709 7.6924 21.0228 6.7563C22.741 6.0663 23.7273 6.0111 24.4565 6.2848C25.3183 6.5884 25.1565 7.168 24.6183 7.3888C23.9819 7.6096 21.691 8.272 19.6891 8.686C20.8001 9.4588 20.8001 9.6796 20.4183 10.204C20.291 10.3972 19.88 11.8025 19.6228 12.6857C19.2728 13.8725 18.8936 14.8109 18.4482 15.609C21.0864 18.093 23.2819 18.921 27.9247 20.2159C29.0039 20.5195 29.0383 20.9059 28.1474 20.9887C22.8046 21.4579 22.2001 21.3475 21.4046 20.6575ZM7.09704 14.1209C6.71257 14.1761 6.2353 14.3141 5.63341 14.4521C5.31522 14.5326 4.93075 14.5901 4.39249 14.6177C4.51977 15.5814 4.64704 16.713 4.83795 18.1482C6.68076 17.8446 7.69894 17.6238 8.42811 17.4582C8.81258 17.3754 9.22356 16.023 9.22356 14.5326C9.22356 13.9553 9.06712 13.9001 7.09704 14.1209ZM10.4989 16.2714C10.3372 16.6026 10.3717 17.1546 10.5944 17.3202C11.3898 18.0102 11.3236 18.231 10.3054 18.369C8.87356 18.5622 7.34894 18.7554 4.96523 18.9762C5.18796 21.3475 3.97887 21.5959 3.68985 19.6087C3.27887 16.6578 2.6425 14.7258 2.35614 14.4521C1.43606 13.5689 1.68796 13.2101 4.0425 13.9277C4.93076 13.8173 5.76068 13.7069 6.42886 13.5965L6.71258 9.5968C2.45424 10.3121 1.84705 10.2592 1.30614 10.066C0.00424445 9.5416 0.00424445 9.2104 1.34061 9.1828C2.03796 9.1276 5.06068 8.5756 6.83985 8.134C7.06258 4.3551 6.83985 2.8095 6.30159 2.1494C5.41068 0.9902 5.6944 0.4106 7.75993 1.1834C9.41712 1.763 9.57621 2.2046 9.25803 2.6991C9.09629 2.8923 9.00083 3.5547 8.42811 7.7752C9.85993 7.4164 10.9736 7.2807 11.6736 7.3612C13.2008 7.5544 13.3281 8.134 11.8963 8.548C11.3236 8.686 9.57621 9.0448 8.20538 9.3208L7.69894 13.3205C8.23985 13.2101 8.65083 13.0721 8.87356 12.9617C9.76447 12.4649 10.019 12.4925 11.1327 12.9617C12.3736 13.4309 12.4054 13.8725 11.9599 14.2589C11.419 14.6453 11.0054 15.2801 10.4989 16.2714Z" fill="black"/>
</svg>
