<svg width="25" height="24" viewBox="0 0 25 24" fill="none" xmlns="http://www.w3.org/2000/svg">
<path d="M18.4995 8.5H17.4995V6.5C17.4995 3.74 15.2595 1.5 12.4995 1.5C9.73951 1.5 7.49951 3.74 7.49951 6.5V8.5H6.49951C5.39951 8.5 4.49951 9.4 4.49951 10.5V20.5C4.49951 21.6 5.39951 22.5 6.49951 22.5H18.4995C19.5995 22.5 20.4995 21.6 20.4995 20.5V10.5C20.4995 9.4 19.5995 8.5 18.4995 8.5ZM9.49951 6.5C9.49951 4.84 10.8395 3.5 12.4995 3.5C14.1595 3.5 15.4995 4.84 15.4995 6.5V8.5H9.49951V6.5ZM18.4995 20.5H6.49951V10.5H18.4995V20.5ZM12.4995 17.5C13.5995 17.5 14.4995 16.6 14.4995 15.5C14.4995 14.4 13.5995 13.5 12.4995 13.5C11.3995 13.5 10.4995 14.4 10.4995 15.5C10.4995 16.6 11.3995 17.5 12.4995 17.5Z" fill="#B4B4B4"/>
</svg>
