<svg width="20" height="20" viewBox="0 0 20 20" fill="none" xmlns="http://www.w3.org/2000/svg">
    <path
        d="M11.32 16.5V15.93C10.96 13.59 8.79 11.79 6.16 11.79C3.53 11.79 1.36 13.58 1 15.92V16.49"
        stroke="#E7E5DF" stroke-linejoin="round" />
    <path
        d="M18 16.5C18 16.5 17.98 13.99 17.93 13.68C17.62 11.66 15.74 10.11 13.47 10.11C11.62 10.11 10.02 11.15 9.33 12.63"
        stroke="#E7E5DF" stroke-linejoin="round" />
    <path
        d="M8.49 7.86002C8.49 9.13002 7.45 10.16 6.16 10.16C4.87 10.16 3.83 9.13002 3.83 7.86002V7.07002C3.83 5.80002 4.87 4.77002 6.16 4.77002C7.45 4.77002 8.49 5.80002 8.49 7.07002V7.86002Z"
        stroke="#E7E5DF" stroke-linejoin="round" />
    <path
        d="M15.45 6.63C15.45 7.71 14.56 8.59 13.47 8.59C12.38 8.59 11.5 7.71 11.5 6.63V5.96C11.5 4.88 12.38 4 13.47 4C14.56 4 15.45 4.88 15.45 5.96V6.63Z"
        stroke="#E7E5DF" stroke-linejoin="round" />
</svg>
