<svg width="20" height="20" viewBox="0 0 20 20" fill="none" xmlns="http://www.w3.org/2000/svg">
<path d="M9.99994 14.4584C10.7501 14.4584 11.3583 13.8502 11.3583 13.1C11.3583 12.3498 10.7501 11.7417 9.99994 11.7417C9.24975 11.7417 8.6416 12.3498 8.6416 13.1C8.6416 13.8502 9.24975 14.4584 9.99994 14.4584Z" fill="#58595B"/>
<path d="M15.2332 7.94163V6.89996C15.2332 4.64996 14.6915 1.66663 9.99984 1.66663C5.30817 1.66663 4.7665 4.64996 4.7665 6.89996V7.94163C2.43317 8.23329 1.6665 9.41663 1.6665 12.325V13.875C1.6665 17.2916 2.70817 18.3333 6.12484 18.3333H13.8748C17.2915 18.3333 18.3332 17.2916 18.3332 13.875V12.325C18.3332 9.41663 17.5665 8.23329 15.2332 7.94163ZM9.99984 15.6166C8.60817 15.6166 7.48317 14.4833 7.48317 13.1C7.48317 11.7083 8.6165 10.5833 9.99984 10.5833C11.3832 10.5833 12.5165 11.7166 12.5165 13.1C12.5165 14.4916 11.3915 15.6166 9.99984 15.6166ZM6.12484 7.86663C6.05817 7.86663 5.99984 7.86663 5.93317 7.86663V6.89996C5.93317 4.45829 6.62484 2.83329 9.99984 2.83329C13.3748 2.83329 14.0665 4.45829 14.0665 6.89996V7.87496C13.9998 7.87496 13.9415 7.87496 13.8748 7.87496H6.12484V7.86663Z" fill="#58595B"/>
</svg>
