<svg width="16" height="16" viewBox="0 0 16 16" fill="none" xmlns="http://www.w3.org/2000/svg">
<path fill-rule="evenodd" clip-rule="evenodd" d="M4.75 4.5C4.75 2.70507 6.20507 1.25 8 1.25C9.79493 1.25 11.25 2.70507 11.25 4.5C11.25 6.29493 9.79493 7.75 8 7.75C6.20507 7.75 4.75 6.29493 4.75 4.5ZM9.75 4.5C9.75 3.5335 8.9665 2.75 8 2.75C7.0335 2.75 6.25 3.5335 6.25 4.5C6.25 5.4665 7.0335 6.25 8 6.25C8.9665 6.25 9.75 5.4665 9.75 4.5Z" fill="#413773"/>
<path d="M8 8.25C11.7008 8.25 14.75 10.791 14.75 14C14.75 14.4142 14.4142 14.75 14 14.75C13.5858 14.75 13.25 14.4142 13.25 14C13.25 11.6861 10.9267 9.75 8 9.75C5.07334 9.75 2.75 11.6861 2.75 14C2.75 14.4142 2.41421 14.75 2 14.75C1.58579 14.75 1.25 14.4142 1.25 14C1.25 10.791 4.29924 8.25 8 8.25Z" fill="#413773"/>
</svg>
