<svg width="29" height="29" viewBox="0 0 29 29" fill="none" xmlns="http://www.w3.org/2000/svg">
<g clip-path="url(#clip0_1877_696)">
<path d="M25.2702 14.4702C25.2702 13.6202 25.1602 12.8002 24.9802 12.0102L27.3002 9.67016C26.7602 8.21016 25.9802 6.85016 25.0102 5.67016L21.8102 6.51016C20.6102 5.39016 19.1602 4.53016 17.5402 4.04016L16.6702 0.870156C15.9202 0.740156 15.1502 0.660156 14.3602 0.660156C13.5702 0.660156 12.8002 0.740156 12.0502 0.870156L11.1802 4.04016C9.57017 4.53016 8.12017 5.39016 6.91017 6.51016L3.71017 5.67016C2.73017 6.85016 1.96017 8.21016 1.42017 9.67016L3.74017 12.0102C3.56017 12.8002 3.45017 13.6302 3.45017 14.4702C3.45017 15.3102 3.56017 16.1402 3.74017 16.9302L1.42017 19.2702C1.96017 20.7302 2.74017 22.0902 3.71017 23.2702L6.91017 22.4302C8.11017 23.5502 9.56017 24.4102 11.1802 24.9002L12.0502 28.0702C12.8002 28.2002 13.5702 28.2802 14.3602 28.2802C15.1502 28.2802 15.9202 28.2002 16.6702 28.0702L17.5402 24.9002C19.1502 24.4102 20.6002 23.5502 21.8102 22.4302L25.0102 23.2702C25.9902 22.0902 26.7602 20.7302 27.3002 19.2702L24.9802 16.9302C25.1602 16.1402 25.2702 15.3102 25.2702 14.4702V14.4702Z" stroke="#409587" stroke-width="1.3" stroke-miterlimit="10"/>
<path d="M14.3602 18.8601C16.7847 18.8601 18.7502 16.8946 18.7502 14.4701C18.7502 12.0455 16.7847 10.0801 14.3602 10.0801C11.9356 10.0801 9.97015 12.0455 9.97015 14.4701C9.97015 16.8946 11.9356 18.8601 14.3602 18.8601Z" stroke="#409587" stroke-width="1.3" stroke-miterlimit="10"/>
</g>
<defs>
<clipPath id="clip0_1877_696">
<rect width="27.39" height="28.94" fill="white" transform="translate(0.660156)"/>
</clipPath>
</defs>
</svg>
