<svg width="171" height="179" viewBox="0 0 171 179" fill="none" xmlns="http://www.w3.org/2000/svg">
<g clip-path="url(#clip0_2538_6579)">
<path d="M51.229 112.276C24.9799 75.0711 44.2732 23.0557 88.3941 12.0114C124.747 2.90104 161.607 27.1783 167.598 64.2303C173.132 98.534 151.504 130.802 117.689 138.131C99.3608 142.101 82.2507 138.538 66.7652 127.85C66.2067 127.494 65.3944 126.985 65.0897 126.781C64.7851 126.628 64.3281 126.374 63.922 126.119C59.9618 122.506 56.1031 118.689 52.5491 114.668C52.4983 114.363 52.2952 114.159 52.0921 113.752C51.889 113.294 51.5844 112.734 51.229 112.276ZM55.8492 74.8675C55.8492 101.486 77.3765 123.015 103.93 123.015C130.433 123.015 151.961 101.435 151.961 74.8166C151.961 48.2491 130.382 26.6184 103.88 26.6693C77.3765 26.6693 55.8492 48.2491 55.8492 74.8675Z" fill="#409587"/>
<path d="M47.4718 142.202C47.2687 142.559 34.3219 162.866 27.5692 172.791C23.9136 178.135 18.2779 179.967 11.9822 178.542C5.83881 177.168 1.82783 173.147 0.456983 166.989C-0.964632 160.576 0.964703 154.977 6.34653 151.262C16.2471 144.544 36.4035 131.667 36.7082 131.463C37.0636 131.26 37.1651 131.922 37.419 132.176C40.5161 135.281 43.6132 138.385 46.7103 141.49C46.9641 141.744 47.6749 141.846 47.4718 142.202Z" fill="#409587"/>
<path d="M46.7102 141.49C43.6131 138.385 40.516 135.281 37.4189 132.176C37.165 131.922 36.9619 131.718 36.6065 131.311C36.2511 130.904 36.0988 130.7 35.7942 130.242C32.5448 125.712 32.6971 119.859 36.2004 115.838C39.9067 111.614 45.644 110.647 50.6704 113.446C51.0766 113.65 51.9904 113.955 52.5489 114.566C53.1074 115.126 59.9109 122.404 63.9219 126.018C64.8865 127.086 65.1912 127.799 65.3942 128.206C68.1359 133.143 67.2728 138.894 63.1603 142.61C59.1493 146.274 53.2597 146.478 48.6395 143.169C48.1825 142.864 46.964 141.744 46.7102 141.49Z" fill="#CDCDD5"/>
<path d="M146.376 -1.25444e-05C149.473 0.0508831 152.011 2.64656 152.011 5.7512C152.011 8.90673 149.27 11.5533 146.172 11.4515C143.075 11.3497 140.588 8.70314 140.638 5.59851C140.638 2.49387 143.278 -0.0509082 146.376 -1.25444e-05Z" fill="#409587"/>
<path d="M100.732 159.965C103.829 160.016 106.367 162.612 106.367 165.665C106.367 168.77 103.778 171.366 100.732 171.366C97.5837 171.366 94.9436 168.719 94.9944 165.564C95.0451 162.459 97.6345 159.914 100.732 159.965Z" fill="#409587"/>
<path d="M5.788 41.8871C8.83432 41.938 11.4237 44.5846 11.4237 47.5874C11.4237 50.6921 8.73278 53.3386 5.58492 53.2877C2.69091 53.2368 0 50.4376 0 47.4856C0.050772 44.4319 2.74169 41.8871 5.788 41.8871Z" fill="#CDCDD5"/>
<path d="M34.2203 7.53254C34.271 9.67016 32.494 11.4006 30.4124 11.4006C28.3815 11.4006 26.706 9.72106 26.6552 7.63434C26.6045 5.49672 28.3815 3.76627 30.4631 3.76627C32.494 3.81716 34.1695 5.49672 34.2203 7.53254Z" fill="#409587"/>
<path d="M15.2316 91.4595C15.1808 93.5462 13.353 95.2767 11.2714 95.1749C9.2405 95.0731 7.61579 93.3426 7.66656 91.3068C7.71734 89.2201 9.54513 87.4896 11.6268 87.5914C13.6069 87.6932 15.2316 89.4237 15.2316 91.4595Z" fill="#409587"/>
<path d="M163.384 26.6693C163.384 24.7862 165.263 22.903 167.141 22.8521C169.071 22.8012 171.051 24.7862 171 26.7711C170.949 28.6542 169.02 30.4865 167.141 30.4865C165.263 30.4356 163.384 28.5525 163.384 26.6693Z" fill="#CDCDD5"/>
<path d="M170.62 143.872C170.569 145.755 168.64 147.588 166.761 147.588C164.781 147.588 162.902 145.552 163.004 143.618C163.105 141.735 165.086 139.902 166.913 140.004C168.792 140.055 170.671 142.04 170.62 143.872Z" fill="#CDCDD5"/>
<path d="M55.8491 74.8675C55.8491 48.2491 77.3257 26.6693 103.879 26.6693C130.382 26.6693 151.96 48.2491 151.96 74.8166C151.96 101.435 130.433 123.015 103.93 123.015C77.3764 123.015 55.8491 101.435 55.8491 74.8675ZM79.8135 95.2258C79.8135 98.1777 83.0121 100.01 85.4999 98.4831C86.16 98.0759 86.6677 97.5161 87.2262 97.0071C92.608 91.6122 97.9899 86.2681 103.321 80.8223C104.235 79.8553 104.793 79.9062 105.707 80.8223C110.987 86.2172 116.319 91.5104 121.65 96.8544C122.157 97.3634 122.614 97.8723 123.173 98.2795C124.747 99.3992 126.676 99.2465 128.047 97.9232C129.367 96.5999 129.57 94.615 128.504 93.0881C128.098 92.5283 127.59 92.0193 127.133 91.5613C121.802 86.2172 116.522 80.8732 111.14 75.58C110.124 74.5621 110.175 74.0532 111.14 73.0352C116.369 67.8948 121.548 62.6525 126.727 57.4612C127.133 57.054 127.539 56.6468 127.945 56.2397C129.57 54.4074 129.621 52.168 128.047 50.6412C126.524 49.1652 124.341 49.2161 122.614 50.7938C122.259 51.1501 121.903 51.5064 121.548 51.8627C116.319 57.1049 111.038 62.3472 105.86 67.6403C104.793 68.76 104.235 68.6582 103.219 67.5894C98.0406 62.2963 92.7603 57.054 87.5308 51.8118C87.1247 51.4046 86.7185 50.9974 86.3123 50.6412C84.5861 49.1652 82.5044 49.2161 81.032 50.6412C79.5596 52.1171 79.5089 54.2548 80.9305 55.9343C81.2859 56.3924 81.6921 56.7486 82.0982 57.1558C87.3277 62.3981 92.5573 67.6912 97.8375 72.8826C98.9545 74.0023 98.9545 74.5621 97.8375 75.6818C92.3542 81.0259 86.9723 86.5226 81.5905 91.9175C80.5751 92.8337 79.7627 93.8007 79.8135 95.2258Z" fill="#EBEBF0"/>
<path d="M79.8135 95.2258C79.7627 93.8516 80.5751 92.8846 81.489 91.9684C86.9216 86.5226 92.3034 81.0768 97.736 75.7327C98.853 74.613 98.9038 74.0532 97.736 72.9335C92.4557 67.7421 87.2262 62.449 81.9967 57.2067C81.5905 56.7995 81.1843 56.3924 80.8289 55.9852C79.4073 54.3057 79.4581 52.1171 80.9305 50.6921C82.4029 49.2161 84.5353 49.2161 86.2108 50.6921C86.6677 51.0483 87.0231 51.5064 87.4293 51.8627C92.6588 57.1049 97.9391 62.3472 103.118 67.6403C104.133 68.6582 104.692 68.76 105.758 67.6912C110.937 62.3981 116.217 57.1558 121.447 51.9136C121.802 51.5573 122.157 51.201 122.513 50.8448C124.29 49.267 126.422 49.2161 127.945 50.6921C129.519 52.2189 129.519 54.4583 127.844 56.2906C127.438 56.6978 127.031 57.1049 126.625 57.5121C121.447 62.7034 116.268 67.9457 111.038 73.0862C110.023 74.0532 109.972 74.613 111.038 75.6309C116.42 80.9241 121.7 86.2681 127.031 91.6122C127.539 92.1211 128.047 92.5792 128.402 93.139C129.468 94.7168 129.265 96.7017 127.945 97.9741C126.625 99.2974 124.645 99.4501 123.071 98.3304C122.513 97.9232 122.005 97.4143 121.548 96.9053C116.217 91.5613 110.886 86.2681 105.606 80.8732C104.692 79.9062 104.184 79.9062 103.219 80.8732C97.8883 86.319 92.5065 91.6631 87.1247 97.058C86.5662 97.6179 86.0584 98.1777 85.3984 98.534C83.0121 99.9591 79.8135 98.1268 79.8135 95.2258Z" fill="#409587"/>
</g>
<defs>
<clipPath id="clip0_2538_6579">
<rect width="171" height="179" fill="white"/>
</clipPath>
</defs>
</svg>
