<svg width="30" height="30" viewBox="0 0 30 30" fill="none" xmlns="http://www.w3.org/2000/svg">
<g clip-path="url(#clip0_632_3774)">
<path d="M25.61 14.47C25.61 13.62 25.5 12.8 25.32 12.01L27.64 9.67003C27.1 8.21003 26.32 6.85003 25.35 5.67003L22.15 6.51003C20.95 5.39003 19.5 4.53003 17.88 4.04003L17.01 0.870034C16.26 0.740034 15.49 0.660034 14.7 0.660034C13.91 0.660034 13.14 0.740034 12.39 0.870034L11.52 4.04003C9.91001 4.53003 8.46001 5.39003 7.25001 6.51003L4.05001 5.67003C3.07001 6.85003 2.30001 8.21003 1.76001 9.67003L4.08001 12.01C3.90001 12.8 3.79001 13.63 3.79001 14.47C3.79001 15.31 3.90001 16.14 4.08001 16.93L1.76001 19.27C2.30001 20.73 3.08001 22.09 4.05001 23.27L7.25001 22.43C8.45001 23.55 9.90001 24.41 11.52 24.9L12.39 28.07C13.14 28.2 13.91 28.28 14.7 28.28C15.49 28.28 16.26 28.2 17.01 28.07L17.88 24.9C19.49 24.41 20.94 23.55 22.15 22.43L25.35 23.27C26.33 22.09 27.1 20.73 27.64 19.27L25.32 16.93C25.5 16.14 25.61 15.31 25.61 14.47V14.47Z" stroke="#B4B4B5" stroke-width="1.3" stroke-miterlimit="10"/>
<path d="M14.7001 18.86C17.1246 18.86 19.0901 16.8945 19.0901 14.47C19.0901 12.0454 17.1246 10.08 14.7001 10.08C12.2755 10.08 10.3101 12.0454 10.3101 14.47C10.3101 16.8945 12.2755 18.86 14.7001 18.86Z" stroke="#B4B4B5" stroke-width="1.3" stroke-miterlimit="10"/>
</g>
<defs>
<clipPath id="clip0_632_3774">
<rect width="27.39" height="28.94" fill="white" transform="translate(1)"/>
</clipPath>
</defs>
</svg>
