<svg width="24" height="24" viewBox="0 0 24 24" fill="none" xmlns="http://www.w3.org/2000/svg">
<path d="M10.4903 2C10.0113 2 9.60183 2.33859 9.50983 2.80859L9.17585 4.52344C8.35509 4.8338 7.59617 5.2674 6.92975 5.81445L5.28522 5.24805C4.83222 5.09205 4.33382 5.27936 4.09382 5.69336L2.586 8.30664C2.347 8.72164 2.43399 9.2485 2.79499 9.5625L4.11335 10.709C4.04478 11.1303 4.00007 11.5593 4.00007 12C4.00007 12.4407 4.04478 12.8697 4.11335 13.291L2.79499 14.4375C2.43399 14.7515 2.347 15.2784 2.586 15.6934L4.09382 18.3066C4.33282 18.7216 4.83222 18.9089 5.28522 18.7539L6.92975 18.1875C7.59595 18.7342 8.35546 19.1663 9.17585 19.4766L9.50983 21.1914C9.60183 21.6614 10.0113 22 10.4903 22H13.5098C13.9888 22 14.3983 21.6614 14.4903 21.1914L14.8243 19.4766C15.645 19.1662 16.404 18.7326 17.0704 18.1855L18.7149 18.752C19.1679 18.908 19.6663 18.7216 19.9063 18.3066L21.4141 15.6914C21.6531 15.2764 21.5661 14.7515 21.2051 14.4375L19.8868 13.291C19.9553 12.8697 20.0001 12.4407 20.0001 12C20.0001 11.5593 19.9553 11.1303 19.8868 10.709L21.2051 9.5625C21.5661 9.2485 21.6531 8.72164 21.4141 8.30664L19.9063 5.69336C19.6673 5.27836 19.1679 5.09109 18.7149 5.24609L17.0704 5.8125C16.4042 5.26579 15.6447 4.83366 14.8243 4.52344L14.4903 2.80859C14.3983 2.33859 13.9888 2 13.5098 2H10.4903ZM12.0001 8C14.2091 8 16.0001 9.791 16.0001 12C16.0001 14.209 14.2091 16 12.0001 16C9.79107 16 8.00007 14.209 8.00007 12C8.00007 9.791 9.79107 8 12.0001 8Z" fill="#5D4890"/>
</svg>
