<svg width="32" height="32" viewBox="0 0 32 32" fill="none" xmlns="http://www.w3.org/2000/svg">
<g id="vuesax/outline/okb-(okb)">
<g id="vuesax/outline/okb-(okb)_2">
<g id="okb-(okb)">
<path id="Vector" d="M22.6667 23.6668C18.44 23.6668 15 20.2268 15 16.0002C15 11.7735 18.44 8.3335 22.6667 8.3335C26.8933 8.3335 30.3333 11.7735 30.3333 16.0002C30.3333 20.2268 26.8933 23.6668 22.6667 23.6668ZM22.6667 10.3335C19.5467 10.3335 17 12.8802 17 16.0002C17 19.1202 19.5467 21.6668 22.6667 21.6668C25.7867 21.6668 28.3333 19.1202 28.3333 16.0002C28.3333 12.8802 25.7867 10.3335 22.6667 10.3335Z" fill="#58595B"/>
<path id="Vector_2" d="M15.9999 30.3333C11.7733 30.3333 8.33325 26.8933 8.33325 22.6667C8.33325 18.44 11.7733 15 15.9999 15C20.2266 15 23.6666 18.44 23.6666 22.6667C23.6666 26.8933 20.2266 30.3333 15.9999 30.3333ZM15.9999 17C12.8799 17 10.3333 19.5467 10.3333 22.6667C10.3333 25.7867 12.8799 28.3333 15.9999 28.3333C19.1199 28.3333 21.6666 25.7867 21.6666 22.6667C21.6666 19.5467 19.1199 17 15.9999 17Z" fill="#58595B"/>
<path id="Vector_3" d="M15.9999 16.9998C11.7733 16.9998 8.33325 13.5598 8.33325 9.33317C8.33325 5.1065 11.7733 1.6665 15.9999 1.6665C20.2266 1.6665 23.6666 5.1065 23.6666 9.33317C23.6666 13.5598 20.2266 16.9998 15.9999 16.9998ZM15.9999 3.6665C12.8799 3.6665 10.3333 6.21317 10.3333 9.33317C10.3333 12.4532 12.8799 14.9998 15.9999 14.9998C19.1199 14.9998 21.6666 12.4532 21.6666 9.33317C21.6666 6.21317 19.1199 3.6665 15.9999 3.6665Z" fill="#58595B"/>
<path id="Vector_4" d="M9.33341 23.6668C5.10675 23.6668 1.66675 20.2268 1.66675 16.0002C1.66675 11.7735 5.10675 8.3335 9.33341 8.3335C13.5601 8.3335 17.0001 11.7735 17.0001 16.0002C17.0001 20.2268 13.5601 23.6668 9.33341 23.6668ZM9.33341 10.3335C6.21341 10.3335 3.66675 12.8802 3.66675 16.0002C3.66675 19.1202 6.21341 21.6668 9.33341 21.6668C12.4534 21.6668 15.0001 19.1202 15.0001 16.0002C15.0001 12.8802 12.4534 10.3335 9.33341 10.3335Z" fill="#58595B"/>
</g>
</g>
</g>
</svg>
