<svg width="26" height="24" viewBox="0 0 26 24" fill="none" xmlns="http://www.w3.org/2000/svg">
<path fill-rule="evenodd" clip-rule="evenodd" d="M4.02539 10.8643C4.02539 6.86019 7.41666 3.61426 11.6 3.61426C15.7833 3.61426 19.1746 6.86019 19.1746 10.8643C19.1746 12.8126 18.3669 14.6404 16.9561 15.9908C15.5452 17.3412 13.6356 18.1143 11.6 18.1143C7.41666 18.1143 4.02539 14.8683 4.02539 10.8643ZM17.6075 10.8643C17.6075 7.68862 14.9178 5.11426 11.6 5.11426C8.28218 5.11426 5.59255 7.68862 5.59255 10.8643C5.59255 14.0399 8.28218 16.6143 11.6 16.6143C13.2157 16.6143 14.7281 16.002 15.8479 14.9301C16.9678 13.8583 17.6075 12.4107 17.6075 10.8643Z" fill="#413773"/>
<path d="M15.8897 14.9697C16.1679 14.7034 16.6032 14.6792 16.9099 14.8971L16.9978 14.9697L21.1769 18.9697C21.4829 19.2626 21.4829 19.7374 21.1769 20.0303C20.8987 20.2966 20.4634 20.3208 20.1566 20.1029L20.0688 20.0303L15.8897 16.0303C15.5837 15.7374 15.5837 15.2626 15.8897 14.9697Z" fill="#413773"/>
</svg>
