<svg width="24" height="24" viewBox="0 0 24 24" fill="none" xmlns="http://www.w3.org/2000/svg">
<path fill-rule="evenodd" clip-rule="evenodd" d="M13.25 5.5C13.25 3.42893 14.9289 1.75 17 1.75C19.0711 1.75 20.75 3.42893 20.75 5.5C20.75 7.57107 19.0711 9.25 17 9.25C14.9289 9.25 13.25 7.57107 13.25 5.5ZM19.25 5.5C19.25 4.25736 18.2426 3.25 17 3.25C15.7574 3.25 14.75 4.25736 14.75 5.5C14.75 6.74264 15.7574 7.75 17 7.75C18.2426 7.75 19.25 6.74264 19.25 5.5Z" fill="#FAFAF9"/>
<path fill-rule="evenodd" clip-rule="evenodd" d="M2.25 12.5C2.25 10.4289 3.92893 8.75 6 8.75C8.07107 8.75 9.75 10.4289 9.75 12.5C9.75 14.5711 8.07107 16.25 6 16.25C3.92893 16.25 2.25 14.5711 2.25 12.5ZM8.25 12.5C8.25 11.2574 7.24264 10.25 6 10.25C4.75736 10.25 3.75 11.2574 3.75 12.5C3.75 13.7426 4.75736 14.75 6 14.75C7.24264 14.75 8.25 13.7426 8.25 12.5Z" fill="#FAFAF9"/>
<path fill-rule="evenodd" clip-rule="evenodd" d="M13.25 18.5C13.25 16.4289 14.9289 14.75 17 14.75C19.0711 14.75 20.75 16.4289 20.75 18.5C20.75 20.5711 19.0711 22.25 17 22.25C14.9289 22.25 13.25 20.5711 13.25 18.5ZM19.25 18.5C19.25 17.2574 18.2426 16.25 17 16.25C15.7574 16.25 14.75 17.2574 14.75 18.5C14.75 19.7426 15.7574 20.75 17 20.75C18.2426 20.75 19.25 19.7426 19.25 18.5Z" fill="#FAFAF9"/>
<path d="M14.4913 6.16211L15.2783 7.43906L8.94961 11.3396L8.1626 10.0627L14.4913 6.16211Z" fill="#FAFAF9"/>
<path d="M14.0572 18.5566L14.8442 17.2797L8.51553 13.3791L7.72852 14.6561L14.0572 18.5566Z" fill="#FAFAF9"/>
</svg>
