<svg width="20" height="20" viewBox="0 0 20 20" fill="none" xmlns="http://www.w3.org/2000/svg">
<path d="M12.5001 18.9584H7.50008C2.97508 18.9584 1.04175 17.025 1.04175 12.5V7.50002C1.04175 2.97502 2.97508 1.04169 7.50008 1.04169H12.5001C17.0251 1.04169 18.9584 2.97502 18.9584 7.50002V12.5C18.9584 17.025 17.0251 18.9584 12.5001 18.9584ZM7.50008 2.29169C3.65841 2.29169 2.29175 3.65835 2.29175 7.50002V12.5C2.29175 16.3417 3.65841 17.7084 7.50008 17.7084H12.5001C16.3417 17.7084 17.7084 16.3417 17.7084 12.5V7.50002C17.7084 3.65835 16.3417 2.29169 12.5001 2.29169H7.50008Z" fill="#58595B"/>
<path d="M8.8167 12.9834C8.65003 12.9834 8.4917 12.9167 8.37503 12.8L6.0167 10.4417C5.77503 10.2 5.77503 9.80002 6.0167 9.55835C6.25837 9.31669 6.65837 9.31669 6.90003 9.55835L8.8167 11.475L13.1 7.19169C13.3417 6.95002 13.7417 6.95002 13.9834 7.19169C14.225 7.43335 14.225 7.83335 13.9834 8.07502L9.25837 12.8C9.1417 12.9167 8.98337 12.9834 8.8167 12.9834Z" fill="#58595B"/>
</svg>
