<svg width="26" height="24" viewBox="0 0 26 24" fill="none" xmlns="http://www.w3.org/2000/svg">
<path fill-rule="evenodd" clip-rule="evenodd" d="M3.64941 12C3.64941 7.16751 7.74233 3.25 12.7912 3.25C17.8401 3.25 21.933 7.16751 21.933 12C21.933 16.8325 17.8401 20.75 12.7912 20.75C7.74233 20.75 3.64941 16.8325 3.64941 12ZM20.3658 12C20.3658 7.99594 16.9746 4.75 12.7912 4.75C8.60785 4.75 5.21658 7.99594 5.21658 12C5.21658 16.0041 8.60785 19.25 12.7912 19.25C16.9746 19.25 20.3658 16.0041 20.3658 12Z" fill="#413773"/>
<path d="M12.7914 6.94141C13.1881 6.94141 13.5159 7.22356 13.5678 7.58964L13.575 7.69141L13.5739 11.6078L16.7348 13.7139C17.0577 13.9291 17.1593 14.335 16.9893 14.6624L16.9301 14.758C16.7053 15.067 16.2813 15.1643 15.9392 15.0016L15.8393 14.9449L12.3437 12.6153C12.1633 12.4952 12.0454 12.3091 12.0154 12.1038L12.0078 11.9998V7.69141C12.0078 7.27719 12.3586 6.94141 12.7914 6.94141Z" fill="#413773"/>
</svg>
