<svg width="21" height="19" viewBox="0 0 21 19" fill="none" xmlns="http://www.w3.org/2000/svg">
<mask id="mask0_1_2152" style="mask-type:alpha" maskUnits="userSpaceOnUse" x="0" y="0" width="21" height="19">
<path fill-rule="evenodd" clip-rule="evenodd" d="M0.25 0.176758H20.2906V18.5878H0.25V0.176758Z" fill="white"/>
</mask>
<g mask="url(#mask0_1_2152)">
<path fill-rule="evenodd" clip-rule="evenodd" d="M10.2703 0.176758C4.73604 0.176758 0.25 3.72311 0.25 8.09837C0.25 10.946 2.1508 13.4416 5.00358 14.8379C4.79402 15.6205 4.24476 17.6728 4.13445 18.1118C3.99886 18.6568 4.33441 18.6494 4.55409 18.5027C4.72633 18.3879 7.29994 16.6386 8.41035 15.8834C9.01287 15.9726 9.63455 16.0201 10.2703 16.0201C15.8043 16.0201 20.2906 12.473 20.2906 8.09837C20.2906 3.72311 15.8043 0.176758 10.2703 0.176758Z" fill="#391B1B"/>
</g>
<path fill-rule="evenodd" clip-rule="evenodd" d="M6.23811 5.76562H3.30782C3.03244 5.76562 2.80933 5.98879 2.80933 6.26391C2.80933 6.53924 3.03244 6.76241 3.30782 6.76241H4.26037V10.2726C4.26037 10.4002 4.31239 10.5257 4.4038 10.6166C4.49319 10.7069 4.61835 10.7588 4.74646 10.7588H4.85293C4.98053 10.7588 5.10521 10.7069 5.19492 10.6168C5.28607 10.5259 5.33829 10.4011 5.33829 10.2726V6.76241H6.23811C6.51375 6.76241 6.73686 6.53924 6.73686 6.26391C6.73686 5.98879 6.51375 5.76562 6.23811 5.76562Z" fill="#FAE300"/>
<path fill-rule="evenodd" clip-rule="evenodd" d="M13.2801 9.82145H11.9176V6.23632C11.9176 5.93737 11.6757 5.69531 11.3771 5.69531C11.0784 5.69531 10.8364 5.93737 10.8364 6.23632V10.1007C10.8364 10.1306 10.8402 10.1588 10.8448 10.1872C10.8394 10.2151 10.8364 10.2444 10.8364 10.2734C10.8364 10.5236 11.0382 10.7264 11.2887 10.7264H13.2801C13.5306 10.7264 13.7323 10.5236 13.7323 10.2734C13.7323 10.0242 13.5306 9.82145 13.2801 9.82145Z" fill="#FAE300"/>
<path fill-rule="evenodd" clip-rule="evenodd" d="M17.6344 9.9858L16.1159 7.99151L17.4878 6.61895C17.6737 6.43353 17.6737 6.13188 17.488 5.94614C17.3024 5.76046 17.001 5.76046 16.8147 5.94614L15.1162 7.6446V6.23632C15.1162 5.93737 14.8743 5.69531 14.5757 5.69531C14.277 5.69531 14.0349 5.93737 14.0349 6.23632V10.2193C14.0349 10.5186 14.277 10.7601 14.5757 10.7601C14.8743 10.7601 15.1162 10.5186 15.1162 10.2193V8.99042L15.425 8.68202L16.8613 10.5668C17.0212 10.7804 17.325 10.8242 17.5382 10.6631C17.7517 10.5028 17.7947 10.1994 17.6344 9.9858Z" fill="#FAE300"/>
<path fill-rule="evenodd" clip-rule="evenodd" d="M7.58775 8.82159L8.25932 6.90527C8.26684 6.90527 8.27338 6.90735 8.28096 6.90735L8.95201 8.82159H7.58775ZM10.4316 10.1154L8.97121 6.12046C8.97121 6.12046 8.96779 6.11724 8.96639 6.11599C8.87274 5.87269 8.60353 5.69531 8.2821 5.69531C7.92564 5.69531 7.63079 5.91308 7.57218 6.19822C7.56221 6.2194 7.55224 6.24073 7.54425 6.26383L6.10831 10.1154C6.01965 10.3682 6.15254 10.6445 6.40425 10.733C6.65653 10.8218 6.93347 10.6887 7.02214 10.4365L7.27058 9.72719H9.26928L9.51762 10.4365C9.60634 10.6887 9.88291 10.8218 10.1352 10.733C10.3872 10.6445 10.5202 10.3682 10.4316 10.1154Z" fill="#FAE300"/>
</svg>
