<svg width="20" height="20" viewBox="0 0 20 20" fill="none" xmlns="http://www.w3.org/2000/svg">
<path d="M12.5 18.9583H7.50004C6.40004 18.9583 5.48337 18.85 4.70837 18.6167C4.42504 18.5334 4.24171 18.2583 4.25837 17.9667C4.46671 15.475 6.99171 13.5166 10 13.5166C13.0084 13.5166 15.525 15.4667 15.7417 17.9667C15.7667 18.2667 15.5834 18.5334 15.2917 18.6167C14.5167 18.85 13.6 18.9583 12.5 18.9583ZM5.60004 17.55C6.15004 17.6583 6.77504 17.7083 7.50004 17.7083H12.5C13.225 17.7083 13.85 17.6583 14.4 17.55C13.9584 15.95 12.1334 14.7666 10 14.7666C7.86671 14.7666 6.04171 15.95 5.60004 17.55Z" fill="#409587"/>
<path d="M12.5001 1.66667H7.50008C3.33341 1.66667 1.66675 3.33334 1.66675 7.50001V12.5C1.66675 15.65 2.61675 17.375 4.88342 18.0167C5.06675 15.85 7.29175 14.1416 10.0001 14.1416C12.7084 14.1416 14.9334 15.85 15.1167 18.0167C17.3834 17.375 18.3334 15.65 18.3334 12.5V7.50001C18.3334 3.33334 16.6667 1.66667 12.5001 1.66667ZM10.0001 11.8083C8.35008 11.8083 7.01675 10.4667 7.01675 8.81669C7.01675 7.16669 8.35008 5.83334 10.0001 5.83334C11.6501 5.83334 12.9834 7.16669 12.9834 8.81669C12.9834 10.4667 11.6501 11.8083 10.0001 11.8083Z" stroke="#409587" stroke-width="1.5" stroke-linecap="round" stroke-linejoin="round"/>
<path d="M9.99994 12.4333C8.00827 12.4333 6.3916 10.8083 6.3916 8.81668C6.3916 6.82501 8.00827 5.20833 9.99994 5.20833C11.9916 5.20833 13.6083 6.82501 13.6083 8.81668C13.6083 10.8083 11.9916 12.4333 9.99994 12.4333ZM9.99994 6.45833C8.69994 6.45833 7.6416 7.51668 7.6416 8.81668C7.6416 10.125 8.69994 11.1833 9.99994 11.1833C11.2999 11.1833 12.3583 10.125 12.3583 8.81668C12.3583 7.51668 11.2999 6.45833 9.99994 6.45833Z" fill="#409587"/>
</svg>
