<svg width="18" height="15" viewBox="0 0 18 15" fill="none" xmlns="http://www.w3.org/2000/svg">
    <g clip-path="url(#clip0_2530_6573)">
        <path
            d="M6.3 7.2C8.28844 7.2 9.9 5.58844 9.9 3.6C9.9 1.61156 8.28844 0 6.3 0C4.31156 0 2.7 1.61156 2.7 3.6C2.7 5.58844 4.31156 7.2 6.3 7.2ZM8.82 8.1H8.35031C7.72594 8.38688 7.03125 8.55 6.3 8.55C5.56875 8.55 4.87687 8.38688 4.24969 8.1H3.78C1.69312 8.1 0 9.79312 0 11.88V13.05C0 13.7953 0.604688 14.4 1.35 14.4H11.25C11.9953 14.4 12.6 13.7953 12.6 13.05V11.88C12.6 9.79312 10.9069 8.1 8.82 8.1ZM17.9044 4.48875L17.1225 3.69844C16.9931 3.56625 16.7822 3.56625 16.65 3.69562L13.7025 6.62062L12.4228 5.3325C12.2934 5.20031 12.0825 5.20031 11.9503 5.32969L11.16 6.11437C11.0278 6.24375 11.0278 6.45469 11.1572 6.58687L13.455 8.90156C13.5844 9.03375 13.7953 9.03375 13.9275 8.90438L17.9016 4.96125C18.0309 4.82906 18.0337 4.61812 17.9044 4.48875Z"
            fill="white" />
    </g>
    <defs>
        <clipPath id="clip0_2530_6573">
            <rect width="18" height="14.4" fill="white" />
        </clipPath>
    </defs>
</svg>
