<svg width="20" height="20" viewBox="0 0 20 20" fill="none" xmlns="http://www.w3.org/2000/svg">
    <path
        d="M6.18 13.4C3.54 10.17 4.78 5.4 4.78 5.4C4.78 5.4 6.49 5.99 8.04 7.44M10 15.81C2.49 17.38 1 8.96 1 8.96C1 8.96 2.61 8.71 4.48 9.17M11.96 7.44C13.51 5.99 15.22 5.4 15.22 5.4C15.22 5.4 17.38 13.65 10 15.8C4.45 10.18 10 4 10 4C10 4 13.82 8.26 11.95 12.92M13.92 15.66C18.05 14.25 18.99 8.96 18.99 8.96C18.99 8.96 17.34 8.7 15.45 9.18"
        stroke="#E7E5DF" stroke-linecap="round" stroke-linejoin="round" />
</svg>
