<svg width="26" height="26" viewBox="0 0 26 26" fill="none" xmlns="http://www.w3.org/2000/svg">
<g clip-path="url(#clip0_663_8524)">
<path d="M4.84309 0.131676C5.73325 -0.00869995 6.63855 -0.00954053 7.53797 0.0106333L7.46064 0.0820822C6.28383 0.85289 5.30792 1.91117 4.60268 3.1258C3.18883 5.55759 2.67356 8.4332 2.7904 11.2205C2.9064 13.4901 3.45109 15.7723 4.60604 17.7451C4.79938 18.0981 5.12132 18.41 5.12636 18.8387C5.1625 19.7583 4.70775 20.6249 4.09245 21.2822C4.1328 21.3243 4.17231 21.3663 4.21265 21.4083C4.78845 22.0371 5.40291 22.628 5.98795 23.2483C6.81928 24.1881 7.7666 25.0203 8.58112 25.9768C7.22611 25.997 5.85514 26.0601 4.5161 25.807C2.83075 25.4801 1.33452 24.3117 0.620036 22.7499C0.187139 21.8471 0.0576909 20.8376 0.0240679 19.8482C0.0232274 15.2805 0.0232274 10.7137 0.0240679 6.14683C0.0425606 4.62035 0.446877 3.02325 1.52113 1.891C2.37179 0.931904 3.57634 0.308197 4.84309 0.131676Z" fill="#0068FF"/>
<path d="M17.1844 8.51892C17.545 8.51892 17.9056 8.51892 18.2671 8.51892C18.2612 10.6313 18.2612 12.7445 18.2671 14.8569C17.914 14.8073 17.3265 15.0334 17.1936 14.5635C17.1718 12.5495 17.192 10.5338 17.1844 8.51892Z" fill="#0068FF"/>
<path d="M6.15277 8.59375C7.83055 8.59207 9.50666 8.58114 11.1836 8.59291C11.1718 8.92158 11.1533 9.27966 10.9331 9.54528C9.78657 10.9726 8.6644 12.4184 7.5187 13.8457C8.73669 13.8532 9.95469 13.8482 11.1727 13.8482C11.15 14.1331 11.25 14.4652 11.0651 14.7123C10.9491 14.872 10.7389 14.8577 10.5649 14.8594C9.04098 14.851 7.51702 14.867 5.9939 14.851C5.9981 14.5291 6.00146 14.1727 6.22674 13.9163C7.35983 12.4949 8.50638 11.0835 9.63443 9.65876C8.47527 9.66044 7.31528 9.6512 6.15613 9.66381C6.14856 9.3074 6.15108 8.95016 6.15277 8.59375Z" fill="#0068FF"/>
<path d="M20.9511 9.99242C22.1582 9.7226 23.4678 10.5153 23.7982 11.7038C24.2126 12.9403 23.4561 14.4105 22.2061 14.7871C21.1445 15.1611 19.8735 14.6727 19.3229 13.6943C18.8909 12.9714 18.8648 12.0249 19.2574 11.281C19.5902 10.6245 20.2333 10.1446 20.9511 9.99242ZM20.931 11.0633C20.1946 11.3231 19.7979 12.2191 20.0853 12.9428C20.3232 13.6271 21.1243 14.0457 21.8203 13.8355C22.6146 13.6456 23.0946 12.715 22.813 11.9526C22.5777 11.1978 21.6656 10.7624 20.931 11.0633Z" fill="#0068FF"/>
<path d="M12.009 10.8725C12.5899 10.153 13.607 9.79828 14.503 10.0547C14.7989 10.1295 15.067 10.2774 15.3259 10.4346C15.3234 10.3556 15.3175 10.1984 15.315 10.1194C15.6538 10.1177 15.9917 10.1185 16.3304 10.1169C16.3287 11.6971 16.3271 13.2774 16.3313 14.8585C16.0824 14.8518 15.8294 14.8812 15.5848 14.8308C15.4134 14.761 15.3604 14.5736 15.2923 14.4206C14.3576 15.1469 12.8891 14.9821 12.1124 14.0978C11.2844 13.2413 11.2416 11.782 12.009 10.8725ZM13.3775 11.0844C12.5991 11.3584 12.2217 12.3612 12.6159 13.0841C12.9521 13.7885 13.8986 14.0844 14.5753 13.696C15.2032 13.3665 15.4932 12.5486 15.2234 11.8947C14.962 11.1835 14.0802 10.7851 13.3775 11.0844Z" fill="#0068FF"/>
<path d="M7.46064 0.0821076C7.64893 0.0283108 7.84563 0.0114993 8.04064 0.00561523C11.4021 0.0182239 14.7636 0.00393408 18.125 0.00981811C19.0236 0.0207456 19.9272 -0.0397758 20.8191 0.0972379C22.0539 0.191382 23.2424 0.71422 24.1612 1.54051C25.3145 2.6425 25.9298 4.22951 25.9491 5.81231C25.9499 10.2682 25.9474 14.7274 25.9516 19.1817C25.9398 19.2077 25.9172 19.2615 25.9054 19.2884C24.7076 20.6283 23.097 21.5353 21.4134 22.122C19.1446 22.8953 16.7145 23.1441 14.3298 22.9626C11.9451 22.7575 9.54191 22.1346 7.51948 20.8166C6.48558 21.2764 5.34492 21.5016 4.21266 21.4083C4.17231 21.3663 4.13281 21.3243 4.09246 21.2823C4.70776 20.6249 5.16251 19.7583 5.12637 18.8387C5.12132 18.41 4.79938 18.0982 4.60605 17.7451C3.4511 15.7723 2.90641 13.4901 2.79041 11.2206C2.67357 8.43322 3.18884 5.55761 4.60269 3.12583C5.30793 1.9112 6.28384 0.852915 7.46064 0.0821076ZM17.1844 8.51896C17.192 10.5338 17.1718 12.5495 17.1937 14.5635C17.3265 15.0334 17.914 14.8073 18.2671 14.8569C18.2612 12.7445 18.2612 10.6313 18.2671 8.51896C17.9056 8.51896 17.545 8.51896 17.1844 8.51896ZM6.15271 8.59377C6.15103 8.95018 6.14851 9.30742 6.15607 9.66382C7.31522 9.65122 8.47522 9.66046 9.63437 9.65878C8.50632 11.0836 7.35977 12.4949 6.22668 13.9163C6.0014 14.1727 5.99804 14.5291 5.99384 14.851C7.51696 14.867 9.04092 14.851 10.5649 14.8594C10.7389 14.8577 10.949 14.872 11.065 14.7123C11.25 14.4652 11.1499 14.1332 11.1726 13.8482C9.95463 13.8482 8.73664 13.8533 7.51864 13.8457C8.66435 12.4184 9.78651 10.9726 10.9331 9.5453C11.1533 9.27968 11.1718 8.9216 11.1836 8.59293C9.5066 8.58116 7.8305 8.59209 6.15271 8.59377ZM20.951 9.99249C20.2332 10.1446 19.5901 10.6246 19.2573 11.2811C18.8647 12.025 18.8908 12.9715 19.3228 13.6944C19.8734 14.6728 21.1444 15.1612 22.206 14.7871C23.4559 14.4106 24.2125 12.9404 23.7981 11.7039C23.4677 10.5153 22.1581 9.72266 20.951 9.99249ZM12.009 10.8726C11.2415 11.7821 11.2844 13.2413 12.1124 14.0979C12.8891 14.9821 14.3576 15.1469 15.2923 14.4206C15.3604 14.5736 15.4133 14.7611 15.5848 14.8308C15.8294 14.8813 16.0824 14.8519 16.3312 14.8586C16.327 13.2775 16.3287 11.6972 16.3304 10.1169C15.9916 10.1186 15.6537 10.1177 15.315 10.1194C15.3175 10.1984 15.3234 10.3556 15.3259 10.4346C15.067 10.2774 14.7989 10.1295 14.503 10.0547C13.6069 9.79832 12.5898 10.153 12.009 10.8726Z" fill="white"/>
<path d="M13.3775 11.0845C14.0802 10.7852 14.9619 11.1836 15.2234 11.8948C15.4932 12.5487 15.2032 13.3666 14.5753 13.6961C13.8986 14.0845 12.9521 13.7886 12.6159 13.0842C12.2217 12.3613 12.5991 11.3585 13.3775 11.0845Z" fill="white"/>
<path d="M20.9309 11.0634C21.6656 10.7625 22.5776 11.1979 22.8129 11.9528C23.0945 12.7152 22.6146 13.6457 21.8202 13.8356C21.1242 14.0458 20.3232 13.6272 20.0853 12.943C19.7978 12.2192 20.1946 11.3232 20.9309 11.0634Z" fill="white"/>
<path d="M25.9054 19.2884L25.9718 19.2161C26.0062 20.5299 25.8642 21.9009 25.2195 23.0701C24.4697 24.4419 23.1096 25.4607 21.5798 25.7868C20.7215 25.9642 19.8415 26.0037 18.9673 25.9928C16.2783 25.9936 13.5893 25.9928 10.9003 25.9936C10.1269 25.981 9.35192 26.0172 8.58112 25.9768C7.7666 25.0202 6.81927 24.1881 5.98794 23.2483C5.4029 22.628 4.78844 22.037 4.21265 21.4083C5.3449 21.5016 6.48556 21.2763 7.51947 20.8165C9.54189 22.1345 11.9451 22.7574 14.3298 22.9625C16.7145 23.1441 19.1446 22.8953 21.4133 22.1219C23.097 21.5352 24.7076 20.6282 25.9054 19.2884Z" fill="#005BE0"/>
</g>
<defs>
<clipPath id="clip0_663_8524">
<rect width="26" height="26" fill="white"/>
</clipPath>
</defs>
</svg>
